<?xml version="1.0" standalone="no"?>
<!DOCTYPE svg PUBLIC "-//W3C//DTD SVG 20010904//EN"
 "http://www.w3.org/TR/2001/REC-SVG-20010904/DTD/svg10.dtd">
<svg version="1.0" xmlns="http://www.w3.org/2000/svg"
 width="300.000000pt" height="398.000000pt" viewBox="0 0 300.000000 398.000000"
 preserveAspectRatio="xMidYMid meet">
<metadata>
Created by potrace 1.10, written by Peter Selinger 2001-2011
</metadata>
<g transform="translate(0.000000,398.000000) scale(0.100000,-0.100000)"
fill="#ffffff" stroke="none">
<path d="M1825 3804 c-22 -8 -44 -16 -50 -18 -5 -2 -13 -4 -18 -5 -4 0 -22 -8
-40 -17 -17 -10 -57 -25 -87 -34 -89 -27 -324 -214 -534 -426 -87 -86 -161
-142 -209 -156 l-42 -12 41 -9 c37 -8 46 -6 85 19 24 16 51 36 59 44 398 378
506 465 626 506 102 34 144 55 137 68 -3 6 0 6 7 -1 10 -9 21 -9 48 2 19 8 42
15 51 15 29 0 233 -175 299 -257 99 -123 167 -231 198 -318 15 -44 32 -82 36
-83 5 -2 6 -8 3 -13 -3 -5 -1 -18 6 -30 6 -12 13 -36 16 -53 2 -17 17 -60 33
-96 49 -111 80 -196 80 -220 0 -35 13 -15 15 22 1 18 -16 77 -37 133 -48 123
-49 125 -89 255 -17 57 -35 111 -40 120 -5 8 -22 44 -38 80 -46 100 -170 263
-257 337 -196 169 -212 177 -299 147z"/>
<path d="M1824 3691 c3 -5 15 -7 26 -4 28 7 25 13 -6 13 -14 0 -23 -4 -20 -9z"/>
<path d="M1659 3633 c-69 -59 -84 -75 -118 -125 -17 -26 -39 -51 -47 -56 -9
-5 -15 -12 -15 -15 1 -4 -1 -7 -4 -7 -15 1 -148 -75 -152 -87 -5 -14 -78 -57
-98 -58 -13 -1 -67 -37 -62 -41 2 -2 30 5 63 16 32 11 65 20 72 20 8 0 28 6
45 14 18 8 43 17 57 20 33 7 71 42 64 60 -3 8 -1 17 5 20 16 11 4 -67 -13 -80
-20 -14 -21 -24 -2 -24 7 0 19 -7 26 -15 9 -11 23 -14 46 -9 18 3 49 1 69 -6
44 -15 59 -6 19 12 -16 7 -33 19 -37 26 -6 9 -18 11 -34 7 -14 -3 -22 -2 -19
3 11 18 -34 21 -45 4 -12 -19 -14 -25 26 89 26 75 63 138 97 165 56 44 120
104 111 104 -5 0 -29 -17 -54 -37z"/>
<path d="M1747 3624 c3 -9 9 -12 12 -7 3 4 10 11 15 16 5 4 0 7 -12 7 -15 0
-20 -4 -15 -16z"/>
<path d="M1660 3559 c0 -5 -4 -8 -9 -5 -15 10 -20 -22 -5 -34 10 -9 14 -9 14
-1 0 6 5 11 11 11 5 0 8 -4 5 -9 -3 -4 5 -7 17 -6 12 1 29 3 37 4 12 1 12 4
-3 12 -9 5 -21 8 -25 5 -4 -2 -14 -1 -22 5 -11 6 -12 9 -2 9 7 0 10 5 7 10 -8
13 -25 13 -25 -1z"/>
<path d="M1434 3513 c-14 -12 -29 -23 -34 -23 -5 0 -17 -10 -27 -23 -10 -13
-24 -22 -31 -21 -7 1 -8 0 -2 -3 5 -2 8 -9 4 -14 -3 -5 11 0 30 12 20 12 36
25 36 29 0 5 9 11 19 15 11 3 23 15 26 26 4 10 10 17 15 14 5 -3 11 -2 14 3
11 18 -26 7 -50 -15z"/>
<path d="M1747 3473 c-13 -12 -7 -54 7 -59 8 -3 23 0 33 6 14 9 14 10 2 7 -13
-4 -15 -1 -12 14 4 13 0 19 -11 19 -10 0 -14 5 -11 10 7 11 2 13 -8 3z"/>
<path d="M2006 3440 c4 -14 7 -32 6 -41 0 -11 8 -16 28 -15 19 1 25 4 19 12
-5 6 -6 14 -2 17 3 4 -1 7 -10 7 -9 0 -23 10 -32 23 l-17 22 8 -25z"/>
<path d="M1547 3436 c-11 -8 -14 -17 -8 -20 5 -4 12 -2 16 4 4 6 11 8 16 5 5
-3 6 1 3 9 -3 9 -7 16 -8 16 0 0 -9 -7 -19 -14z"/>
<path d="M1697 3411 c9 -11 20 -18 25 -15 4 3 5 -3 1 -13 -6 -15 -5 -16 9 -5
14 11 18 10 27 -5 6 -10 10 -13 11 -8 0 17 -14 31 -49 48 -43 21 -44 21 -24
-2z"/>
<path d="M1299 3408 c-8 -7 -23 -24 -34 -37 l-20 -25 27 20 c14 10 31 27 37
37 13 20 10 22 -10 5z"/>
<path d="M1627 3404 c5 -14 3 -15 -15 -5 -25 13 -35 14 -28 2 3 -5 -3 -11 -14
-14 -10 -3 -21 0 -23 7 -3 8 -8 8 -17 0 -15 -15 -10 -46 9 -52 10 -3 12 0 8
12 -4 10 -3 15 3 11 6 -3 10 -2 10 3 0 15 38 21 50 8 5 -7 7 -15 4 -19 -3 -3
4 -3 15 0 12 3 26 14 32 25 8 15 8 19 0 14 -6 -4 -14 0 -17 8 -3 9 -10 16 -15
16 -4 0 -6 -7 -2 -16z"/>
<path d="M1660 3362 c0 -11 22 -32 33 -32 5 0 4 6 -2 13 -6 8 -8 17 -4 20 3 4
-1 7 -10 7 -9 0 -17 -4 -17 -8z"/>
<path d="M2028 3351 c3 -9 11 -25 18 -36 7 -11 33 -83 59 -159 26 -77 60 -166
76 -197 45 -87 101 -267 104 -334 5 -77 16 -157 21 -152 19 19 -12 349 -35
367 -9 7 -31 73 -31 93 0 9 -4 17 -9 17 -9 0 -40 79 -45 112 -1 10 -6 21 -11
25 -4 5 -5 1 -1 -7 4 -8 0 -6 -8 4 -9 11 -12 22 -7 26 12 7 9 42 -4 53 -6 6
-6 10 3 14 6 2 12 12 12 20 0 12 -3 13 -14 4 -11 -9 -20 -6 -41 14 -16 14 -23
25 -17 25 6 0 14 -5 18 -12 5 -7 10 -4 16 11 5 15 14 21 23 17 9 -3 15 0 15 8
0 8 -11 12 -30 11 -17 -1 -33 2 -36 7 -3 4 7 8 21 8 16 0 24 4 20 11 -4 6 -13
8 -20 5 -8 -3 -19 2 -25 10 -7 8 -20 14 -29 14 -9 1 -1 7 17 15 17 8 32 16 32
17 0 2 -22 4 -49 4 -40 0 -48 -3 -43 -15z"/>
<path d="M2270 3362 c0 -4 4 -12 8 -17 21 -23 53 -127 55 -174 1 -28 6 -51 11
-51 4 0 5 -8 1 -17 -3 -10 2 -57 11 -104 l18 -87 19 25 c15 19 17 27 8 36 -9
9 -11 8 -6 -5 5 -11 2 -18 -5 -18 -8 0 -10 10 -6 34 5 23 3 36 -6 39 -7 3 2 3
20 0 37 -6 43 8 11 30 -15 11 -17 16 -7 21 10 4 10 7 1 12 -7 3 -9 12 -6 21 5
12 3 14 -7 8 -8 -5 -11 -4 -7 2 10 16 -36 145 -72 201 -32 51 -41 60 -41 44z"/>
<path d="M1778 3349 c-29 -17 -10 -41 26 -33 28 5 67 29 41 24 -5 -2 -19 -2
-30 -1 -17 1 -18 3 -5 11 13 9 13 10 0 10 -8 -1 -23 -5 -32 -11z"/>
<path d="M1952 3299 c11 -32 34 -44 42 -23 4 10 2 12 -6 8 -7 -5 -9 -2 -5 9 4
12 2 14 -10 10 -12 -5 -15 -2 -11 9 4 8 1 15 -7 15 -10 0 -10 -7 -3 -28z"/>
<path d="M1732 3250 c21 -13 94 -18 110 -8 10 6 9 8 -2 8 -8 1 -40 3 -70 5
-39 3 -50 2 -38 -5z"/>
<path d="M2184 3253 c10 -11 36 -12 36 -2 0 5 -10 9 -22 9 -12 0 -18 -3 -14
-7z"/>
<path d="M1977 3238 c-7 -19 12 -48 31 -49 15 0 15 -1 -1 -8 -17 -6 -17 -8 2
-30 14 -16 21 -19 21 -10 0 8 3 10 8 4 9 -13 32 -17 32 -6 0 5 -9 11 -21 14
-17 5 -19 9 -10 26 9 16 7 25 -13 45 -26 28 -42 33 -49 14z"/>
<path d="M1914 3225 c10 -8 23 -12 29 -8 11 7 -12 23 -33 23 -12 -1 -11 -4 4
-15z"/>
<path d="M1260 3215 c-14 -7 -47 -15 -74 -19 -64 -8 -132 -32 -170 -59 -17
-12 -38 -20 -46 -18 -8 1 -12 0 -8 -4 10 -10 58 -13 58 -4 0 5 7 9 15 9 8 0
15 5 15 11 0 6 9 8 20 4 16 -5 19 -3 13 11 -5 14 -3 16 12 11 9 -4 23 -3 30 3
18 15 179 37 240 33 27 -2 75 -9 105 -15 30 -7 62 -12 72 -13 9 0 20 -3 24 -7
4 -5 15 -8 25 -8 21 0 127 -48 135 -61 3 -5 12 -9 21 -9 9 0 25 -7 35 -17 16
-14 18 -14 18 0 0 8 3 24 6 34 6 16 5 16 -8 -1 -14 -18 -17 -18 -31 -4 -38 38
-240 108 -310 108 -16 0 -36 4 -46 10 -30 15 -125 19 -151 5z"/>
<path d="M2213 3223 c-16 -6 0 -23 37 -43 l25 -13 -25 29 c-14 16 -25 30 -25
30 0 1 -6 -1 -12 -3z"/>
<path d="M1840 3216 c0 -2 17 -15 38 -29 20 -14 50 -37 65 -52 16 -15 31 -24
35 -21 6 7 -76 90 -90 91 -3 0 -10 3 -14 8 -7 7 -34 10 -34 3z"/>
<path d="M1824 3179 c49 -31 85 -66 86 -83 0 -4 48 -54 106 -110 58 -55 127
-130 153 -166 45 -62 101 -168 101 -192 0 -6 3 -9 6 -6 11 11 -19 94 -58 161
-22 38 -66 99 -98 135 -58 68 -212 226 -240 247 -38 28 -71 45 -87 45 -11 0 2
-13 31 -31z"/>
<path d="M1742 3173 c5 -7 14 -10 19 -7 16 10 9 23 -10 21 -15 -1 -17 -4 -9
-14z"/>
<path d="M1250 3160 c-14 -4 -38 -9 -55 -9 -16 -1 -52 -12 -78 -24 l-49 -23
27 -12 c14 -7 24 -8 20 -3 -6 10 11 24 35 28 8 1 17 -3 21 -9 4 -6 10 -2 14
11 6 20 8 20 40 7 25 -11 35 -12 39 -3 3 9 5 9 5 0 1 -7 5 -13 11 -13 5 0 7 7
4 15 -5 11 -2 13 10 9 9 -4 16 -1 16 6 0 8 4 9 13 3 6 -5 38 -9 70 -8 31 0 57
-2 57 -6 0 -3 18 -5 40 -4 22 1 40 -2 40 -7 0 -5 13 -7 30 -3 29 6 44 -8 18
-18 -10 -3 -9 -9 4 -22 13 -15 22 -16 47 -7 19 7 33 7 36 1 4 -5 10 -7 15 -4
4 3 6 -3 3 -14 -3 -10 0 -22 6 -25 6 -4 9 -2 6 6 -3 8 4 14 19 14 16 1 26 -5
29 -17 3 -12 11 -17 20 -13 11 4 16 -2 19 -18 2 -16 6 -19 11 -10 19 29 -158
138 -263 160 -65 14 -251 22 -280 12z"/>
<path d="M2210 3156 c0 -24 12 -46 21 -40 5 3 9 10 9 15 0 6 -4 7 -10 4 -5 -3
-10 1 -10 9 0 9 4 16 9 16 12 0 32 -25 26 -34 -3 -3 1 -1 8 5 9 8 8 13 -7 25
-25 18 -46 18 -46 0z"/>
<path d="M1766 3151 c-4 -6 -5 -11 -2 -11 2 0 12 -3 22 -7 13 -5 15 -3 10 8
-5 8 11 -6 35 -30 33 -34 45 -41 47 -28 7 37 -94 98 -112 68z"/>
<path d="M1347 3106 c-4 -10 -7 -25 -6 -34 0 -11 4 -9 10 7 5 13 8 29 6 35 -2
5 -6 2 -10 -8z"/>
<path d="M2010 3093 c0 -12 28 -55 65 -98 36 -42 65 -72 65 -66 0 33 -84 159
-102 153 -5 -1 -6 2 -3 8 4 6 13 9 21 6 8 -3 14 1 14 8 0 8 -11 13 -30 12 -24
-1 -30 -5 -30 -23z"/>
<path d="M2281 3103 c8 -9 9 -14 3 -10 -7 4 -17 0 -24 -8 -10 -12 -10 -15 1
-15 24 0 42 17 36 34 -4 9 -12 16 -18 16 -8 0 -7 -5 2 -17z"/>
<path d="M846 3096 c3 -7 -4 -33 -15 -57 -64 -140 -54 -449 22 -678 l31 -94
-35 -27 c-18 -16 -38 -26 -43 -23 -5 4 -6 1 -2 -5 4 -8 -4 -16 -21 -23 -15 -6
-30 -10 -32 -9 -2 1 -7 -2 -10 -8 -3 -5 -26 -23 -50 -40 -79 -57 -29 -33 99
47 69 43 124 83 123 87 -2 5 -16 49 -33 99 -98 284 -91 573 16 723 16 22 16
22 -19 22 -27 0 -35 -4 -31 -14z"/>
<path d="M1507 3103 c-4 -3 -7 -13 -7 -21 0 -12 3 -12 15 -2 8 7 15 16 15 21
0 11 -14 12 -23 2z"/>
<path d="M925 3078 c8 -19 19 -21 49 -9 14 5 16 10 7 15 -6 4 -18 3 -25 -3 -9
-7 -16 -7 -25 2 -10 9 -11 8 -6 -5z"/>
<path d="M1041 3081 l-24 -6 27 -12 c15 -8 26 -9 26 -3 0 6 7 10 16 10 8 0 12
5 9 10 -7 11 -18 11 -54 1z"/>
<path d="M1368 3052 c-12 -21 -14 -37 -8 -71 4 -25 6 -51 3 -58 -3 -7 1 -20 8
-29 7 -9 9 -18 3 -22 -5 -4 -10 -18 -11 -32 -1 -14 -3 -41 -4 -60 -1 -19 -7
-40 -12 -47 -11 -15 0 -36 15 -27 6 4 14 0 19 -7 4 -7 12 -10 16 -5 4 5 2 11
-5 13 -6 3 -9 10 -6 15 5 7 2 8 -7 3 -11 -7 -12 -6 -2 6 11 13 11 156 0 284
-1 17 2 36 7 43 5 7 7 14 4 17 -2 2 -11 -8 -20 -23z"/>
<path d="M1277 3047 c-13 -20 -13 -26 -1 -50 8 -14 17 -53 21 -87 3 -33 12
-65 20 -71 11 -10 11 -14 -1 -28 -10 -11 -12 -21 -5 -31 8 -13 10 -13 19 0 13
20 12 51 -6 140 -8 41 -14 92 -14 113 1 42 -11 47 -33 14z"/>
<path d="M2284 3055 c-5 -11 -2 -22 8 -29 8 -6 14 -20 12 -30 -1 -11 4 -29 12
-40 8 -11 14 -35 14 -52 0 -17 7 -45 16 -60 15 -29 15 -29 8 21 -4 28 -7 58
-6 67 0 10 -9 25 -21 33 -12 8 -16 15 -10 15 16 0 9 42 -10 70 -15 22 -17 22
-23 5z"/>
<path d="M1000 3050 c-13 -9 -13 -11 0 -19 16 -11 43 5 34 20 -7 11 -15 11
-34 -1z"/>
<path d="M1823 3039 c6 -10 15 -19 20 -19 18 0 147 -112 225 -196 92 -99 156
-193 146 -218 -4 -10 0 -18 10 -22 10 -4 16 -18 16 -41 0 -24 4 -32 13 -27 9
5 9 4 1 -5 -13 -14 2 -81 18 -81 25 0 -5 157 -43 230 -41 78 -45 83 -138 181
-121 128 -313 270 -268 198z"/>
<path d="M1532 3027 c-18 -8 -22 -16 -17 -34 3 -13 1 -23 -5 -23 -5 0 -10 -7
-10 -15 0 -8 -4 -15 -9 -15 -5 0 -14 -15 -21 -32 -12 -32 -18 -48 -37 -98 -6
-14 -8 -31 -6 -37 7 -19 30 8 49 54 25 64 38 87 59 107 14 13 16 20 8 23 -21
8 -14 25 7 18 18 -6 19 -3 13 27 -3 18 -6 34 -7 34 -1 1 -11 -3 -24 -9z"/>
<path d="M1645 3029 c-4 -6 -4 -13 -1 -16 3 -4 6 0 6 8 1 8 8 3 16 -11 8 -14
13 -17 10 -7 -3 10 -6 23 -6 28 0 12 -17 11 -25 -2z"/>
<path d="M1437 3023 c-10 -17 -21 -70 -22 -103 0 -19 -4 -40 -8 -47 -4 -6 -3
-14 2 -18 6 -3 12 9 15 27 11 65 15 84 22 116 6 29 1 43 -9 25z"/>
<path d="M1150 3011 c0 -11 29 -35 35 -29 2 2 -4 12 -15 21 -11 9 -20 13 -20
8z"/>
<path d="M1800 3012 c0 -5 6 -14 13 -21 10 -11 9 -13 -1 -7 -10 6 -10 2 0 -19
14 -31 28 -20 21 17 -4 24 -33 49 -33 30z"/>
<path d="M2400 3000 c0 -7 24 -20 36 -20 13 0 1 19 -16 23 -11 3 -20 2 -20 -3z"/>
<path d="M1757 2994 c-4 -4 -7 -17 -7 -28 1 -19 1 -20 11 -3 11 19 8 43 -4 31z"/>
<path d="M896 2974 c-3 -8 -10 -12 -16 -9 -5 3 -10 1 -10 -4 0 -15 16 -14 33
4 8 8 18 11 22 7 5 -4 5 -1 1 6 -10 17 -23 15 -30 -4z"/>
<path d="M1681 2974 c-11 -13 -15 -14 -22 -2 -11 17 -10 -1 1 -27 8 -18 9 -18
9 -2 1 10 5 16 9 13 4 -2 13 4 20 15 14 23 3 25 -17 3z"/>
<path d="M1134 2967 c-7 -18 2 -37 17 -37 6 0 8 4 5 9 -4 5 -1 11 5 13 7 2 5
9 -5 17 -13 11 -17 11 -22 -2z"/>
<path d="M1854 2955 c-1 -15 4 -26 12 -26 8 -1 22 -2 32 -3 9 0 19 -10 22 -21
3 -11 16 -21 28 -23 34 -5 41 -50 11 -74 -22 -17 -22 -18 -2 -9 32 16 66 13
85 -6 9 -10 28 -29 42 -42 14 -12 23 -27 20 -32 -3 -6 0 -16 6 -24 6 -8 8 -20
4 -27 -4 -7 -3 -10 1 -5 11 10 45 -22 45 -43 0 -10 7 -23 15 -30 44 -36 -19
93 -80 165 -83 97 -217 225 -236 225 -2 0 -5 -11 -5 -25z"/>
<path d="M2426 2961 c-3 -5 1 -14 9 -21 12 -10 15 -10 15 3 0 19 -16 31 -24
18z"/>
<path d="M1230 2952 c0 -8 -5 -10 -12 -6 -10 6 -10 4 0 -7 6 -7 12 -19 12 -26
0 -11 -5 -11 -22 -2 -22 11 -22 11 -8 -7 11 -12 15 -36 14 -69 -2 -36 3 -57
18 -78 l21 -29 -24 12 c-36 17 -78 35 -137 58 l-53 21 -45 -46 c-48 -50 -51
-66 -7 -37 44 28 149 23 220 -11 76 -38 117 -100 108 -165 -14 -103 -1 -200
27 -200 6 0 6 5 -1 14 -9 11 -6 12 16 9 l28 -4 -27 18 c-31 20 -34 39 -29 171
2 50 -1 78 -10 89 -12 15 -12 16 3 10 38 -14 115 -19 122 -8 5 7 -6 11 -31 12
-67 1 -83 5 -106 27 -13 12 -26 19 -30 16 -3 -3 -12 7 -20 23 -14 28 -14 40
-2 138 5 37 3 55 -9 70 -9 12 -15 15 -16 7z m-150 -172 c0 -5 -7 -10 -15 -10
-8 0 -15 5 -15 10 0 6 7 10 15 10 8 0 15 -4 15 -10z"/>
<path d="M1692 2930 c-22 -21 -30 -36 -13 -26 5 4 11 3 14 -1 2 -5 2 -2 1 5
-2 6 1 12 5 12 5 0 11 7 15 15 7 20 4 19 -22 -5z"/>
<path d="M1570 2938 c0 -4 4 -18 10 -32 10 -28 -4 -36 -28 -16 -9 7 -9 7 -2
-2 15 -18 12 -48 -5 -48 -18 0 -19 -11 -2 -29 8 -10 8 -12 0 -7 -9 5 -9 -2 -3
-24 12 -43 4 -57 -38 -65 -30 -6 -38 -3 -54 17 l-17 23 5 -28 c3 -21 1 -27 -8
-21 -7 4 -6 -1 3 -10 14 -15 18 -15 52 -1 68 28 192 14 284 -32 34 -18 53 -33
53 -45 0 -10 -7 -18 -15 -18 -11 0 -15 -12 -15 -50 l0 -50 24 16 c14 8 27 15
30 15 23 -3 30 0 16 9 -9 5 -19 5 -26 -1 -8 -6 -14 -4 -18 6 -4 11 -2 14 6 9
7 -5 9 -2 5 8 -3 9 -2 19 2 24 14 15 23 67 12 59 -7 -3 -8 0 -5 9 3 9 12 16
19 16 7 0 19 8 26 17 10 11 10 14 2 9 -15 -9 -17 5 -3 22 6 6 -6 -4 -27 -23
-20 -19 -40 -35 -45 -35 -18 0 -20 33 -5 65 15 32 15 34 -1 28 -9 -3 -22 -10
-29 -15 -18 -14 -179 -22 -187 -10 -3 6 3 27 14 48 17 30 19 39 8 45 -13 8 -3
13 17 9 6 -1 7 2 3 6 -4 4 -2 14 5 23 10 14 10 14 -5 3 -21 -17 -30 -2 -23 35
3 15 2 22 -1 14 -5 -11 -10 -8 -20 10 -7 13 -13 21 -14 17z m18 -93 c1 -14 -3
-25 -8 -25 -6 0 -10 11 -10 25 0 14 4 25 8 25 4 0 9 -11 10 -25z"/>
<path d="M1625 2910 c-20 -39 -19 -47 3 -27 10 10 21 15 24 12 3 -3 3 6 1 20
-7 32 -9 31 -28 -5z"/>
<path d="M1139 2913 c-1 -5 -1 -12 0 -17 1 -5 -6 -6 -16 -2 -17 6 -17 5 -1 -7
10 -8 15 -16 13 -19 -3 -3 -8 -15 -10 -28 -3 -16 0 -20 11 -16 9 3 18 6 20 6
3 0 2 4 -1 10 -11 18 -14 50 -4 55 5 4 9 10 9 16 0 11 -19 12 -21 2z"/>
<path d="M2440 2899 c7 -11 9 -27 6 -34 -3 -8 -1 -17 4 -20 6 -4 10 11 10 34
0 30 -4 41 -15 41 -13 0 -14 -4 -5 -21z"/>
<path d="M910 2898 c0 -9 15 -9 50 2 22 7 20 8 -12 7 -21 0 -38 -4 -38 -9z"/>
<path d="M860 2884 c0 -17 22 -14 28 4 2 7 -3 12 -12 12 -9 0 -16 -7 -16 -16z"/>
<path d="M893 2862 c-23 -9 -45 -21 -49 -25 -14 -14 43 -2 60 12 14 12 16 11
10 -5 -7 -19 -7 -19 14 0 22 19 29 37 15 35 -5 0 -27 -8 -50 -17z"/>
<path d="M1042 2868 c6 -18 28 -21 28 -4 0 9 -7 16 -16 16 -9 0 -14 -5 -12
-12z"/>
<path d="M2470 2856 c0 -9 7 -16 16 -16 9 0 14 5 12 12 -6 18 -28 21 -28 4z"/>
<path d="M2480 2823 c0 -5 16 -39 35 -77 26 -52 35 -63 35 -44 0 37 -40 128
-56 128 -8 0 -14 -3 -14 -7z"/>
<path d="M846 2785 c-4 -12 -1 -16 11 -13 18 3 21 20 5 26 -5 1 -12 -4 -16
-13z"/>
<path d="M867 2752 c-12 -2 -16 -9 -12 -22 3 -10 1 -21 -5 -25 -6 -3 -8 -11
-5 -16 9 -13 25 -11 25 3 0 7 12 24 26 39 28 29 24 32 -29 21z"/>
<path d="M15 2720 c6 -32 169 -651 265 -1010 21 -80 44 -165 50 -189 6 -23 14
-41 16 -38 3 3 0 25 -6 48 -7 24 -14 53 -15 64 -2 11 -13 56 -25 100 -12 44
-25 98 -30 120 -5 22 -16 67 -25 100 -9 33 -19 69 -21 80 -3 11 -9 38 -14 60
-15 69 -31 129 -40 150 -8 20 -17 56 -25 105 -3 14 -18 72 -34 130 -16 58 -39
143 -51 190 -25 90 -58 159 -45 90z"/>
<path d="M1028 2729 c-11 -6 -18 -22 -18 -38 0 -35 53 -137 69 -133 6 1 10 -3
9 -10 -7 -29 126 -78 172 -63 32 10 51 64 39 109 -5 20 -13 36 -17 36 -15 0
-36 -19 -38 -35 -2 -13 3 -16 24 -11 15 4 23 3 17 -1 -5 -4 -10 -14 -11 -20
-4 -46 -2 -45 -61 -39 -86 8 -102 11 -110 21 -5 4 -2 5 5 1 27 -16 10 15 -22
39 -35 27 -55 67 -48 98 4 21 39 22 62 2 16 -14 16 -13 6 20 -9 28 -16 35 -36
35 -14 0 -33 -5 -42 -11z"/>
<path d="M1170 2710 c0 -25 48 -72 69 -68 24 5 24 25 0 47 -27 25 -35 21 -19
-8 7 -15 8 -21 0 -21 -6 0 -18 16 -26 35 -16 40 -24 44 -24 15z"/>
<path d="M1477 2672 c-25 -28 -21 -80 10 -125 15 -22 29 -34 31 -28 2 6 8 8
14 5 6 -4 5 2 -1 15 -7 11 -16 21 -21 21 -6 0 -10 4 -10 9 0 6 9 8 20 6 20 -4
20 -4 2 23 -11 15 -25 38 -31 50 -12 22 -11 23 8 17 12 -3 21 -3 21 2 0 4 11
9 25 9 19 2 26 -5 35 -31 12 -35 32 -58 56 -61 8 -1 14 2 14 7 0 8 -15 13 -32
10 -5 0 -8 8 -8 20 0 11 5 17 10 14 19 -12 10 12 -13 33 -30 29 -106 31 -130
4z"/>
<path d="M1625 2679 c21 -37 29 -41 36 -22 6 16 8 15 20 -10 9 -20 18 -27 32
-23 15 4 18 0 14 -14 -3 -11 -1 -20 3 -22 5 -2 10 -10 12 -18 2 -8 7 -18 11
-21 21 -16 -37 -79 -83 -90 -23 -6 -23 -7 7 -8 73 -3 111 43 97 118 -13 67
-48 100 -123 116 -27 6 -32 4 -26 -6z"/>
<path d="M887 2655 c-15 -14 -27 -29 -27 -32 0 -4 15 6 32 23 18 16 35 30 37
32 2 1 0 2 -5 2 -5 0 -22 -11 -37 -25z"/>
<path d="M939 2643 l-24 -26 33 19 c17 10 32 22 32 26 0 15 -17 8 -41 -19z"/>
<path d="M1547 2627 c15 -19 30 -33 32 -31 6 5 -40 64 -51 64 -5 0 3 -15 19
-33z"/>
<path d="M1426 2629 c4 -8 0 -9 -15 -4 -12 4 -21 2 -21 -4 0 -6 10 -11 23 -12
12 0 17 -3 10 -5 -11 -5 -3 -21 49 -96 7 -10 16 -18 21 -18 10 0 -10 39 -36
68 -13 14 -20 34 -19 52 1 17 -3 30 -8 30 -6 0 -8 -5 -4 -11z"/>
<path d="M862 2580 c1 -17 5 -33 9 -36 5 -3 6 2 3 10 -3 8 2 16 13 19 16 4 16
5 1 6 -11 1 -15 6 -12 16 4 8 1 15 -4 15 -6 0 -10 -14 -10 -30z"/>
<path d="M968 2599 c-9 -5 -15 -16 -12 -24 8 -19 20 -12 27 15 3 11 4 20 4 20
-1 0 -10 -5 -19 -11z"/>
<path d="M1894 2566 c-10 -8 -16 -17 -13 -20 3 -3 14 3 24 14 21 23 17 26 -11
6z"/>
<path d="M1985 2571 c-16 -28 88 -34 126 -8 l23 17 -22 0 c-13 0 -21 -4 -18
-9 8 -12 -34 -19 -75 -13 -29 4 -31 6 -14 13 16 6 17 8 3 8 -9 1 -19 -3 -23
-8z"/>
<path d="M1377 2552 c-3 -4 1 -13 9 -19 7 -7 15 -9 17 -5 3 4 -1 13 -9 19 -7
7 -15 9 -17 5z"/>
<path d="M1912 2515 c-34 -18 -63 -30 -66 -28 -2 3 -13 0 -23 -6 -42 -24 29
-10 90 18 34 16 71 31 82 33 19 4 19 4 -1 10 -14 3 -43 -6 -82 -27z"/>
<path d="M2527 2544 c-3 -4 58 -70 137 -148 130 -127 151 -153 217 -266 41
-69 84 -147 96 -175 l22 -50 1 42 c0 36 -22 97 -41 113 -3 3 -25 41 -49 85
-65 123 -150 223 -285 338 -78 67 -86 72 -98 61z"/>
<path d="M2485 2513 c-4 -19 -2 -29 9 -35 9 -5 16 -18 16 -30 0 -17 -2 -18
-15 -8 -19 16 -19 15 4 -48 11 -28 15 -52 10 -52 -16 0 10 -39 34 -51 20 -11
21 -11 9 4 -8 9 -16 49 -18 89 -4 74 -23 158 -35 158 -4 0 -10 -12 -14 -27z"/>
<path d="M2189 2483 c-2 -53 -4 -58 -19 -55 -11 3 -9 -2 5 -18 18 -20 19 -20
26 -2 10 26 9 91 -2 98 -5 3 -10 -7 -10 -23z"/>
<path d="M1003 2493 c-20 -8 -15 -23 8 -23 11 0 18 4 15 9 -4 5 0 12 6 14 9 4
8 5 -2 5 -8 0 -21 -2 -27 -5z"/>
<path d="M890 2472 c0 -21 33 -102 41 -102 5 0 2 17 -7 38 -9 20 -16 45 -16
55 0 9 -3 17 -9 17 -5 0 -9 -4 -9 -8z"/>
<path d="M1600 2470 l-25 -6 29 -8 c30 -7 46 -1 30 13 -5 4 -20 5 -34 1z"/>
<path d="M32 2455 c0 -11 3 -29 8 -40 11 -25 11 1 0 35 -6 20 -8 21 -8 5z"/>
<path d="M1273 2463 c-7 -2 -13 -9 -13 -14 0 -17 -33 -45 -69 -60 -19 -8 -75
-33 -124 -56 -48 -24 -90 -43 -92 -43 -3 0 -2 7 2 15 3 9 8 14 10 11 8 -7 72
28 108 58 l30 26 -29 -10 c-16 -6 -37 -8 -47 -5 -14 5 -18 0 -21 -22 -3 -27
-6 -28 -51 -27 -44 1 -47 0 -32 -15 12 -14 12 -20 2 -30 -9 -10 -8 -11 7 -5
14 5 17 4 12 -5 -5 -7 14 -1 40 12 27 13 88 41 135 61 71 31 90 35 112 27 30
-12 36 -31 10 -32 -14 0 -15 -2 -3 -6 8 -4 20 -13 27 -22 6 -9 15 -13 19 -9 9
10 -15 70 -35 86 -15 12 -14 15 1 42 9 17 16 30 15 29 -1 0 -8 -3 -14 -6z"/>
<path d="M1013 2420 c1 -11 5 -20 9 -20 11 0 10 28 -1 35 -6 3 -9 -4 -8 -15z"/>
<path d="M1680 2429 c-19 -3 -28 -7 -19 -8 9 0 31 -4 49 -8 22 -4 31 -3 26 5
-3 5 0 12 6 15 17 6 -17 4 -62 -4z"/>
<path d="M1451 2422 c0 -7 -16 -19 -33 -27 l-33 -14 37 -1 c44 0 58 -15 22
-24 -17 -5 -24 -12 -20 -21 8 -22 -14 -18 -42 8 l-25 22 16 -31 c9 -17 23 -34
32 -37 8 -4 15 -13 15 -20 0 -8 23 -24 51 -36 57 -23 79 -26 79 -11 0 6 -11
10 -25 10 -34 0 -95 26 -95 40 0 21 22 52 57 83 34 30 31 50 -7 40 -12 -3 -20
2 -23 14 -3 10 -5 12 -6 5z"/>
<path d="M1594 2409 c-3 -6 -1 -16 5 -22 8 -8 11 -5 11 11 0 24 -5 28 -16 11z"/>
<path d="M2240 2400 c0 -13 5 -18 15 -14 8 4 15 12 15 20 0 8 -7 14 -15 14 -8
0 -15 -9 -15 -20z"/>
<path d="M76 2269 c18 -66 36 -124 40 -127 4 -4 4 4 0 18 -4 14 -18 71 -33
128 -14 56 -29 102 -33 102 -4 0 8 -54 26 -121z"/>
<path d="M1622 2375 c-7 -8 -24 -15 -37 -15 -16 0 -25 -6 -25 -15 0 -16 20
-20 36 -6 5 5 32 11 60 14 38 4 58 1 80 -12 16 -9 38 -20 49 -24 20 -7 20 -7
1 8 -11 8 -23 15 -28 15 -4 0 -8 6 -8 14 0 16 -14 22 -75 30 -29 4 -44 2 -53
-9z"/>
<path d="M2155 2357 c-2 -12 -6 -33 -7 -47 -2 -16 -9 -25 -19 -24 -11 1 -16
-7 -16 -24 0 -14 -9 -31 -19 -39 -9 -7 -14 -16 -11 -20 8 -8 3 -13 61 67 48
67 56 94 31 104 -10 3 -16 -2 -20 -17z"/>
<path d="M2216 2285 c-46 -103 -43 -123 4 -28 30 60 47 113 37 113 -1 0 -20
-38 -41 -85z"/>
<path d="M1171 2330 c-23 -11 -47 -18 -52 -15 -5 3 -22 -1 -39 -10 -16 -8 -30
-12 -30 -8 0 5 -10 -3 -21 -17 -11 -14 -18 -19 -14 -12 6 12 3 12 -16 2 -30
-16 -39 -25 -17 -17 15 5 16 4 6 -13 -26 -41 4 -31 56 18 30 29 60 52 66 52 7
0 -11 -21 -39 -46 -28 -25 -49 -50 -46 -54 3 -5 -3 -14 -14 -20 -19 -10 -19
-11 5 -35 13 -13 24 -31 24 -40 0 -25 17 -17 28 13 12 33 47 79 38 49 -3 -11
-2 -16 4 -12 16 10 12 -6 -15 -52 -14 -23 -22 -43 -18 -43 4 0 0 -5 -9 -11
-18 -10 -25 -49 -9 -49 5 0 7 -9 4 -20 -3 -12 0 -20 6 -20 7 0 10 4 6 10 -7
11 55 175 82 217 16 26 16 27 0 14 -21 -16 -23 2 -2 19 8 7 15 9 15 5 0 -4 7
-2 15 5 8 7 12 16 9 21 -2 5 4 16 16 26 22 19 28 39 8 26 -7 -4 -16 -8 -20 -8
-4 0 -30 -13 -58 -30 -31 -18 -48 -35 -45 -43 3 -7 0 -10 -6 -7 -5 4 -16 1
-24 -5 -8 -7 -20 -10 -27 -8 -7 3 10 19 37 36 165 102 191 125 96 82z m16 -48
c-19 -21 -22 -37 -5 -26 7 4 8 3 4 -5 -4 -6 -11 -9 -15 -6 -13 8 -42 -31 -36
-48 4 -8 2 -18 -3 -21 -16 -9 -24 25 -10 43 19 26 71 81 77 81 2 0 -3 -8 -12
-18z m-107 -102 c-18 -25 -25 -28 -36 -19 -20 17 -17 32 5 26 14 -3 18 -1 14
9 -3 9 2 14 17 14 l21 0 -21 -30z"/>
<path d="M1530 2309 c0 -4 7 -12 16 -20 12 -10 20 -10 34 -1 12 7 21 8 25 2 4
-7 13 -6 26 1 12 6 18 13 15 17 -9 8 -116 9 -116 1z"/>
<path d="M1660 2311 c0 -12 37 -24 49 -16 5 3 13 0 17 -6 5 -8 9 -7 15 2 4 7
5 17 3 21 -7 11 -84 10 -84 -1z"/>
<path d="M1871 2298 c-1 -15 6 -33 14 -42 18 -18 20 -30 3 -20 -10 6 -10 4 -2
-7 6 -8 14 -21 18 -29 3 -8 4 -5 2 8 -2 12 0 22 5 22 5 0 9 9 9 20 0 13 -5 18
-14 14 -10 -4 -18 5 -25 28 -9 31 -9 31 -10 6z"/>
<path d="M1215 2256 c-13 -17 -35 -55 -48 -83 -13 -29 -26 -51 -28 -49 -2 2
-5 -16 -5 -40 -1 -24 2 -42 6 -39 3 2 7 -2 7 -10 0 -8 -5 -11 -10 -8 -13 8 1
-148 14 -162 6 -6 9 19 9 70 -2 90 25 207 65 289 23 47 25 47 9 -1 -3 -10 4
-2 15 17 25 43 25 47 5 47 -8 0 -26 -14 -39 -31z"/>
<path d="M1789 2252 c5 -34 6 -35 9 -8 2 16 0 32 -5 37 -5 5 -7 -7 -4 -29z"/>
<path d="M1285 2264 c3 -12 -3 -31 -15 -47 -51 -65 -64 -115 -68 -264 -4 -122
-2 -143 11 -143 8 0 20 7 27 15 10 12 9 15 -8 15 -14 0 -19 5 -17 18 2 9 4 23
4 30 1 7 6 10 12 7 6 -4 5 3 -3 15 -10 17 -10 24 -1 27 8 3 9 13 3 33 -5 18
-5 32 1 35 5 4 4 15 -3 28 -13 24 -12 55 3 73 5 6 6 14 3 17 -4 3 10 16 30 28
36 21 49 36 21 25 -18 -7 -18 -7 -4 33 9 27 16 32 38 29 20 -2 25 -8 22 -23
-3 -19 -2 -19 15 -4 23 20 44 14 44 -11 0 -23 19 -30 42 -17 15 10 14 12 -5
28 -23 17 -107 49 -132 49 -7 0 -16 6 -19 13 -3 6 -4 3 -1 -9z"/>
<path d="M825 2184 c-49 -30 -96 -61 -104 -69 -26 -26 -5 -25 29 0 40 29 52
32 43 8 -4 -11 -3 -14 5 -9 7 4 12 16 12 27 0 12 5 19 13 16 6 -2 32 12 57 31
64 51 66 52 50 51 -8 0 -55 -25 -105 -55z"/>
<path d="M905 2190 c-17 -17 -24 -30 -16 -28 24 5 22 -16 -4 -46 -39 -45 -30
-43 24 5 53 48 57 57 38 83 -11 16 -15 14 -42 -14z"/>
<path d="M2020 2165 c0 -15 4 -24 10 -20 6 3 10 12 10 20 0 8 -4 17 -10 20 -6
4 -10 -5 -10 -20z"/>
<path d="M2150 2180 c-8 -5 -11 -12 -7 -16 4 -4 13 -2 19 4 15 15 7 24 -12 12z"/>
<path d="M1740 2170 c0 -8 5 -22 10 -30 9 -13 10 -13 10 0 0 8 -5 22 -10 30
-9 13 -10 13 -10 0z"/>
<path d="M1870 2095 c7 -109 20 -121 20 -18 0 52 -4 84 -12 91 -10 8 -12 -7
-8 -73z"/>
<path d="M1716 2153 c-3 -3 -6 -16 -6 -27 0 -16 2 -18 9 -7 7 11 9 11 14 0 3
-8 6 -5 6 8 1 23 -12 37 -23 26z"/>
<path d="M936 2099 c-18 -32 -23 -50 -15 -47 8 3 15 10 15 16 3 25 5 27 13 13
6 -10 -2 -35 -27 -80 -85 -159 -94 -182 -99 -261 -4 -64 -2 -85 17 -128 18
-42 21 -62 15 -100 -4 -26 -7 -59 -7 -74 -1 -18 -5 -25 -14 -21 -8 3 -14 0
-14 -7 0 -6 -5 -8 -12 -4 -7 4 -8 3 -4 -4 4 -7 2 -12 -4 -12 -6 0 -8 -5 -4
-12 5 -8 0 -9 -14 -6 -14 4 -20 2 -16 -4 4 -6 0 -14 -7 -19 -11 -7 -10 -9 5
-9 11 0 30 10 43 21 20 20 23 20 29 5 8 -20 24 -21 24 0 0 8 -4 13 -9 10 -5
-3 -14 1 -21 9 -13 15 -8 19 23 16 9 -1 17 1 17 6 1 4 3 45 5 90 4 68 1 91
-16 130 -38 87 -17 168 85 337 50 83 61 120 46 157 -7 16 -15 29 -19 29 -3 0
-19 -23 -35 -51z"/>
<path d="M1650 2134 c0 -10 5 -26 10 -34 8 -11 9 -7 4 15 -8 37 -14 45 -14 19z"/>
<path d="M1533 2125 c-18 -8 -33 -21 -33 -30 0 -14 3 -13 27 2 26 17 27 17 20
-1 -6 -15 -5 -17 7 -7 15 12 28 51 18 51 -4 -1 -22 -7 -39 -15z"/>
<path d="M891 2083 c-27 -32 -36 -50 -28 -55 7 -4 20 9 35 35 13 23 28 48 34
54 6 7 8 13 5 13 -3 0 -24 -21 -46 -47z"/>
<path d="M1392 2064 c-59 -72 -57 -86 4 -21 67 72 79 87 63 86 -8 0 -38 -30
-67 -65z"/>
<path d="M1999 2101 c-26 -29 -34 -48 -12 -28 11 9 22 15 24 12 3 -2 5 5 6 15
2 23 3 23 -18 1z"/>
<path d="M126 2080 c3 -19 10 -42 15 -50 5 -9 6 -2 2 20 -3 19 -10 42 -15 50
-6 10 -7 3 -2 -20z"/>
<path d="M1033 2082 c-7 -4 -9 -13 -4 -21 6 -10 10 -9 15 5 8 20 4 25 -11 16z"/>
<path d="M2101 2071 c-8 -11 -21 -17 -30 -14 -12 4 -13 3 -3 -4 7 -5 10 -16 7
-24 -3 -8 2 -23 11 -34 15 -20 15 -20 10 3 -2 14 4 38 16 58 21 36 12 48 -11
15z"/>
<path d="M2855 2063 c3 -16 19 -53 34 -83 15 -30 31 -73 35 -95 9 -51 26 -95
37 -95 5 0 6 7 3 15 -4 11 1 15 17 16 l24 1 -25 7 c-21 6 -25 13 -25 46 -1 48
-24 102 -37 83 -5 -9 -8 -8 -8 6 0 21 -47 126 -56 126 -4 0 -3 -12 1 -27z"/>
<path d="M1832 2050 c0 -19 2 -27 5 -17 2 9 2 25 0 35 -3 9 -5 1 -5 -18z"/>
<path d="M1105 2040 c-3 -16 -2 -37 4 -47 8 -14 10 -8 11 30 0 54 -5 60 -15
17z"/>
<path d="M1723 2050 c-3 -11 -9 -20 -12 -20 -4 0 -8 -7 -8 -17 0 -13 4 -11 19
7 17 21 24 50 12 50 -3 0 -8 -9 -11 -20z"/>
<path d="M1499 2008 c-33 -52 -46 -88 -31 -88 8 1 75 130 69 136 -2 2 -19 -20
-38 -48z"/>
<path d="M1665 2040 c-4 -12 -5 -24 -2 -27 3 -2 8 5 12 17 4 12 5 24 2 27 -3
2 -8 -5 -12 -17z"/>
<path d="M1179 2028 c0 -13 -3 -53 -5 -90 -3 -42 0 -68 6 -68 6 0 10 36 10 90
0 50 -2 90 -5 90 -3 0 -5 -10 -6 -22z"/>
<path d="M1942 2025 c-6 -14 -8 -25 -3 -25 4 0 13 11 19 25 6 14 8 25 3 25 -4
0 -13 -11 -19 -25z"/>
<path d="M2800 2013 c13 -18 25 -33 27 -33 8 0 -17 38 -33 51 -11 9 -9 2 6
-18z"/>
<path d="M1773 1985 c0 -22 2 -30 4 -17 2 12 2 30 0 40 -3 9 -5 -1 -4 -23z"/>
<path d="M2030 1999 c-9 -16 -8 -26 5 -45 18 -28 21 -29 29 -8 3 8 2 12 -4 9
-6 -3 -10 -1 -10 4 0 6 7 11 15 11 12 0 13 4 3 25 -14 30 -24 32 -38 4z"/>
<path d="M150 1989 c0 -13 5 -31 10 -39 7 -11 8 -5 4 20 -8 43 -14 51 -14 19z"/>
<path d="M1833 1967 c-18 -12 -33 -30 -33 -40 0 -15 6 -13 33 12 17 17 35 31
40 31 4 0 7 5 7 10 0 15 -11 12 -47 -13z"/>
<path d="M1987 1962 c-9 -9 -28 -30 -41 -47 l-24 -30 -13 27 c-6 15 -16 25
-22 21 -5 -3 -5 -8 -1 -12 5 -3 14 -15 20 -26 9 -16 5 -24 -25 -52 -20 -18
-40 -33 -44 -33 -5 0 -6 -4 -3 -9 4 -5 -3 -7 -14 -4 -18 5 -20 0 -20 -60 0
-36 -2 -71 -5 -79 -4 -10 6 -13 39 -13 l44 0 12 55 c7 30 18 66 26 80 7 14 25
53 40 88 15 34 30 62 35 62 13 0 30 38 20 44 -4 3 -15 -2 -24 -12z m-99 -199
c-15 -31 -28 -62 -28 -69 0 -22 -19 -16 -31 9 -12 27 2 74 26 83 8 3 13 10 10
14 -3 5 4 11 15 15 11 3 20 12 20 18 0 8 3 8 8 -1 5 -8 -2 -35 -20 -69z"/>
<path d="M1016 1951 c-5 -7 -3 -18 3 -24 14 -14 20 -6 11 17 -5 15 -9 16 -14
7z"/>
<path d="M2850 1936 c0 -11 -4 -15 -12 -10 -9 5 -9 2 1 -9 11 -14 16 -52 21
-150 0 -5 5 -5 11 -1 8 5 8 8 0 14 -9 5 -8 10 4 20 16 13 20 42 8 54 -4 3 -8
14 -9 24 -7 51 -24 93 -24 58z"/>
<path d="M1767 1928 c-2 -7 -4 -17 -3 -21 1 -9 -44 -36 -56 -34 -3 1 -21 -16
-40 -38 -18 -21 -41 -47 -50 -57 -10 -10 -15 -18 -12 -18 4 0 1 -6 -5 -13 -6
-8 -7 -17 -3 -21 4 -5 -2 -7 -13 -5 -11 2 -30 -1 -43 -5 -15 -5 -29 -3 -40 6
-10 8 -8 1 7 -19 23 -34 35 -40 46 -23 3 6 10 10 15 10 10 0 2 -61 -9 -70 -15
-13 -33 -60 -28 -74 10 -24 29 -20 22 5 -5 14 -1 27 13 39 11 10 22 17 25 14
9 -9 85 34 117 66 40 39 54 39 47 0 -5 -22 -3 -30 8 -30 12 0 15 14 15 65 l0
66 -22 -20 c-11 -11 -26 -17 -32 -14 -6 4 -5 -1 3 -10 14 -17 10 -21 -23 -17
-10 1 -15 -3 -12 -8 8 -13 -53 -64 -66 -56 -6 4 -8 2 -5 -3 10 -16 -25 -26
-35 -11 -4 7 -6 20 -4 28 19 61 39 96 86 144 55 57 79 71 60 37 -14 -28 -12
-35 6 -20 8 7 13 21 10 32 -3 13 1 21 15 24 13 4 19 14 19 34 0 31 -5 37 -13
17z"/>
<path d="M2015 1885 c-10 -22 -26 -49 -35 -60 -9 -11 -29 -54 -44 -96 -34 -97
-54 -119 -106 -119 l-40 0 0 -43 c0 -40 3 -45 35 -60 20 -9 46 -16 58 -16 17
1 18 2 4 6 -9 2 -14 9 -11 15 4 6 2 8 -4 4 -6 -3 -23 -1 -39 6 -23 9 -25 12
-10 15 18 5 18 5 0 19 -17 12 -16 13 9 14 20 0 26 4 22 15 -4 9 0 15 9 15 20
0 77 48 77 65 0 7 5 15 11 17 5 2 14 29 18 61 4 31 15 65 23 74 23 27 50 83
45 96 -2 7 -12 -6 -22 -28z"/>
<path d="M1111 1866 c-1 -16 -9 -35 -18 -42 -17 -12 -16 -13 4 -14 17 0 24 -8
29 -35 3 -19 12 -35 20 -35 7 0 17 -8 23 -17 5 -10 13 -14 17 -10 4 4 -6 22
-22 40 -17 17 -31 44 -33 58 -1 15 -6 40 -11 55 l-8 29 -1 -29z"/>
<path d="M1003 1854 c-26 -29 -30 -78 -9 -100 34 -33 59 6 26 41 -23 25 -26
43 -6 51 15 6 30 34 18 34 -4 0 -17 -12 -29 -26z"/>
<path d="M1271 1789 c-19 -7 -22 -12 -13 -21 9 -9 16 -8 29 5 21 21 15 27 -16
16z"/>
<path d="M1205 1740 c8 -48 30 -110 40 -110 3 0 1 9 -5 20 -9 16 -8 18 5 14
20 -8 19 6 -2 22 -10 7 -15 16 -11 19 13 13 38 -4 48 -31 6 -15 13 -24 17 -20
7 6 -28 76 -38 76 -3 0 -19 12 -34 28 l-27 27 7 -45z"/>
<path d="M1320 1761 c0 -23 43 -58 48 -41 2 6 -4 18 -14 25 -17 13 -17 16 -4
25 12 8 11 10 -7 10 -16 0 -23 -6 -23 -19z"/>
<path d="M2952 1768 c6 -18 48 -19 48 -2 0 8 -11 14 -26 14 -16 0 -24 -5 -22
-12z"/>
<path d="M2901 1761 c-9 -6 -10 -11 -2 -15 13 -8 31 1 31 15 0 11 -11 11 -29
0z"/>
<path d="M1040 1745 c0 -8 5 -15 10 -15 6 0 10 -7 10 -16 0 -8 3 -13 8 -11 7
4 43 -29 37 -35 -2 -1 3 -9 11 -16 24 -22 17 31 -8 64 -35 46 -68 60 -68 29z"/>
<path d="M1420 1731 c0 -5 -8 -12 -17 -14 -14 -4 -13 -5 3 -6 12 0 24 6 28 14
3 8 1 15 -4 15 -6 0 -10 -4 -10 -9z"/>
<path d="M1332 1701 c6 -17 99 -82 109 -76 14 9 1 24 -49 56 -47 30 -66 36
-60 20z"/>
<path d="M2136 1632 c-29 -74 -34 -113 -10 -68 24 44 54 136 44 136 -4 0 -20
-30 -34 -68z"/>
<path d="M2760 1670 c-46 -39 -34 -39 15 0 21 17 34 30 29 30 -5 0 -25 -14
-44 -30z"/>
<path d="M960 1660 c0 -5 11 -10 25 -10 14 0 25 5 25 10 0 6 -11 10 -25 10
-14 0 -25 -4 -25 -10z"/>
<path d="M1200 1651 c0 -12 -8 -21 -22 -24 -20 -4 -19 -4 5 -6 23 -1 27 3 27
24 0 14 -2 25 -5 25 -3 0 -5 -9 -5 -19z"/>
<path d="M1497 1642 c-17 -19 -21 -92 -5 -92 4 0 8 6 9 13 0 6 4 3 9 -8 5 -12
9 -14 9 -6 1 8 -7 23 -16 33 -16 18 -16 21 1 48 19 34 17 38 -7 12z"/>
<path d="M1260 1631 c0 -16 18 -22 23 -9 3 7 6 4 6 -7 1 -17 3 -17 11 -5 15
23 12 30 -15 30 -14 0 -25 -4 -25 -9z"/>
<path d="M1350 1626 c0 -8 -8 -17 -17 -21 -17 -6 -16 -8 2 -15 11 -4 35 -11
53 -14 28 -7 32 -5 32 13 0 25 -18 37 -33 22 -17 -17 -29 -13 -22 9 4 11 2 20
-4 20 -6 0 -11 -6 -11 -14z"/>
<path d="M2703 1634 c-7 -3 -10 -11 -7 -19 3 -8 -4 -16 -16 -20 -12 -4 -19 -9
-17 -11 11 -11 55 20 54 37 -1 11 -1 19 -2 18 0 0 -5 -3 -12 -5z"/>
<path d="M1715 1619 c-4 -6 2 -13 14 -16 23 -6 28 -27 10 -39 -8 -4 -7 -9 2
-15 24 -15 29 -10 29 30 0 26 -5 41 -16 45 -22 9 -32 7 -39 -5z"/>
<path d="M2725 1591 c-93 -48 -185 -111 -162 -111 10 0 35 13 55 29 20 16 69
46 107 67 80 43 80 43 74 48 -2 2 -36 -13 -74 -33z"/>
<path d="M1234 1601 c3 -9 10 -38 17 -64 l12 -48 18 41 c11 23 19 45 19 49 -1
3 -16 13 -36 22 -32 16 -34 16 -30 0z"/>
<path d="M2196 1537 c-17 -39 -36 -76 -43 -80 -7 -4 -13 -16 -13 -26 0 -21
-36 -56 -67 -65 -13 -4 -22 -13 -20 -19 1 -7 -4 -11 -11 -9 -8 1 -11 -2 -7 -8
3 -5 1 -10 -4 -10 -6 0 -11 -6 -11 -14 0 -24 -27 -37 -81 -38 -57 0 -50 -11
13 -22 56 -10 108 22 108 67 0 30 14 42 58 52 34 7 36 10 46 56 3 15 26 49 51
77 50 56 53 62 25 55 -17 -5 -18 -2 -10 26 16 57 -5 32 -34 -42z"/>
<path d="M971 1579 c-13 -5 -21 -12 -18 -15 9 -9 77 5 77 16 0 12 -27 12 -59
-1z"/>
<path d="M1340 1549 c7 -11 9 -27 6 -35 -9 -23 45 -11 62 14 13 19 11 21 -25
31 -52 15 -55 14 -43 -10z"/>
<path d="M1140 1528 c14 -11 24 -25 23 -29 -2 -5 1 -9 6 -9 27 0 87 -78 82
-107 -1 -7 3 -22 9 -33 8 -16 8 -22 -3 -26 -12 -4 -10 -15 8 -60 37 -90 38
-87 16 51 -6 39 -13 91 -16 117 -4 26 -9 47 -13 46 -20 -4 -63 17 -76 37 -8
12 -25 25 -38 28 -23 6 -23 6 2 -15z"/>
<path d="M970 1531 c-17 -5 -26 -15 -27 -31 -1 -14 0 -19 3 -12 4 8 20 22 38
33 32 20 29 22 -14 10z"/>
<path d="M1436 1531 c-3 -5 1 -11 9 -15 15 -6 29 7 18 18 -9 9 -21 8 -27 -3z"/>
<path d="M1485 1468 c-1 -35 -4 -90 -7 -123 -4 -37 1 -18 14 48 12 59 25 107
28 107 4 0 25 -13 48 -30 51 -36 78 -93 89 -180 3 -25 13 -53 22 -64 9 -10 15
-20 14 -22 -5 -8 11 -37 31 -59 35 -38 46 -54 46 -64 0 -5 9 -7 21 -4 19 5 18
8 -14 37 -46 42 -80 112 -107 224 -25 104 -51 144 -108 168 -77 32 -77 32 -77
-38z"/>
<path d="M1586 1521 c-3 -4 6 -13 19 -19 31 -14 61 -73 81 -159 19 -86 32 -99
28 -31 -2 33 1 55 8 59 9 6 4 15 -15 33 -15 14 -27 32 -27 41 0 17 -63 85 -79
85 -5 0 -12 -4 -15 -9z"/>
<path d="M1741 1504 c5 -15 7 -29 4 -32 -2 -3 0 -11 5 -17 8 -9 6 -14 -5 -19
-20 -7 -19 -19 5 -34 19 -12 20 -10 20 58 0 63 -2 70 -20 70 -17 0 -18 -3 -9
-26z"/>
<path d="M1998 1507 c-6 -32 -1 -34 92 -34 41 0 60 1 43 4 -22 3 -33 10 -33
21 0 10 -3 13 -8 6 -11 -17 -60 -11 -75 10 -13 18 -14 18 -19 -7z"/>
<path d="M1790 1465 c0 -38 3 -43 18 -38 9 3 25 13 34 21 11 9 27 12 43 8 14
-4 25 -2 25 4 0 5 -12 10 -27 10 -16 0 -43 9 -60 20 l-33 20 0 -45z"/>
<path d="M1005 1490 c-7 -11 9 -11 45 0 24 8 24 8 -7 9 -17 1 -35 -3 -38 -9z"/>
<path d="M1084 1481 c4 -6 13 -11 19 -11 7 0 26 -7 42 -16 30 -15 30 -15 10 5
-23 22 -83 42 -71 22z"/>
<path d="M1387 1483 c-11 -18 4 -73 20 -73 8 0 11 5 7 12 -4 6 -10 25 -13 42
-4 18 -10 26 -14 19z"/>
<path d="M347 1450 c3 -11 9 -17 14 -15 10 7 1 35 -11 35 -5 0 -6 -9 -3 -20z"/>
<path d="M2988 1423 c5 -76 10 -83 11 -15 0 34 -2 62 -7 62 -4 0 -6 -21 -4
-47z"/>
<path d="M2023 1446 c6 -17 42 -22 77 -10 l35 12 -58 3 c-31 2 -56 0 -54 -5z"/>
<path d="M2532 1451 c-8 -5 -33 -6 -55 -4 -24 3 -56 -1 -76 -10 -32 -14 -30
-14 45 -10 44 3 86 7 94 10 8 4 21 5 29 4 7 -1 10 2 6 8 -7 13 -25 14 -43 2z"/>
<path d="M1284 1392 c11 -101 25 -119 25 -36 1 55 -3 75 -16 85 -15 13 -16 9
-9 -49z"/>
<path d="M1982 1434 c4 -21 22 -23 26 -1 2 10 -3 17 -13 17 -10 0 -15 -6 -13
-16z"/>
<path d="M1792 1387 c1 -14 5 -24 9 -21 9 5 6 31 -4 40 -4 4 -6 -4 -5 -19z"/>
<path d="M2258 1393 c-17 -4 -51 -64 -42 -73 3 -3 14 6 25 20 10 14 26 33 36
43 16 17 13 19 -19 10z"/>
<path d="M937 1372 c2 -10 -5 -28 -16 -41 -12 -13 -21 -27 -21 -30 0 -3 14
-24 30 -45 17 -22 30 -46 30 -53 0 -7 4 -13 9 -13 4 0 7 -12 4 -27 -3 -26 -3
-26 6 -6 8 16 4 33 -13 70 -23 47 -23 48 -5 64 11 9 19 20 19 25 0 4 -5 3 -12
-4 -7 -7 -16 -12 -22 -12 -6 0 -5 5 2 12 7 7 12 17 12 23 0 5 -5 3 -10 -5 -8
-13 -10 -12 -10 3 0 10 8 17 20 17 13 0 20 7 20 20 0 14 -7 20 -24 20 -18 0
-23 -4 -19 -18z"/>
<path d="M729 1320 c-8 -6 -7 -9 2 -13 8 -3 4 -6 -9 -6 -13 -1 -21 -5 -17 -10
3 -5 -6 -21 -20 -35 -22 -22 -23 -26 -8 -26 14 -1 13 -4 -7 -15 -15 -9 -19
-14 -10 -15 9 0 11 -3 5 -8 -15 -11 -17 -32 -2 -32 8 0 8 -3 -2 -9 -12 -8 -11
-17 3 -62 17 -50 61 -103 77 -93 4 2 9 -1 11 -8 4 -11 94 -15 105 -5 10 11 -9
28 -20 18 -18 -14 -88 14 -114 46 -24 30 -39 99 -28 132 4 14 2 21 -7 21 -8 0
-6 5 5 11 9 6 15 14 13 18 -3 4 11 22 29 40 19 18 35 38 35 45 0 14 -22 17
-41 6z"/>
<path d="M1805 1288 c4 -18 12 -51 18 -72 l11 -39 8 28 c5 21 3 32 -10 42 -15
11 -15 14 -2 23 9 6 10 10 3 10 -6 0 -10 9 -8 20 2 13 -2 20 -11 20 -12 0 -14
-7 -9 -32z"/>
<path d="M2256 1278 c-21 -29 -13 -35 14 -10 13 12 17 22 11 26 -5 4 -17 -4
-25 -16z"/>
<path d="M406 1234 c7 -31 16 -59 20 -62 3 -4 4 2 1 13 -3 11 -9 37 -13 58 -3
20 -10 39 -14 42 -4 2 -1 -21 6 -51z"/>
<path d="M802 1248 c-5 -7 -6 -22 -2 -33 7 -19 7 -19 18 2 21 38 8 61 -16 31z"/>
<path d="M870 1240 c-13 -9 -13 -11 0 -19 8 -5 17 -8 21 -5 4 2 5 -6 2 -18
l-5 -23 17 23 c14 19 19 21 33 10 16 -12 16 -11 1 12 -18 27 -46 36 -69 20z"/>
<path d="M2107 1182 c59 -54 98 -78 187 -116 57 -25 55 -13 -4 18 -74 39 -182
110 -204 135 -11 11 -24 21 -30 21 -6 -1 17 -27 51 -58z"/>
<path d="M2223 1225 c-9 -10 -9 -16 -2 -20 14 -9 22 0 17 18 -2 13 -5 13 -15
2z"/>
<path d="M1720 1222 c0 -5 6 -16 13 -24 10 -14 14 -14 24 -4 9 11 6 16 -13 25
-13 6 -24 7 -24 3z"/>
<path d="M1790 1191 c-6 -12 -18 -21 -27 -21 -12 0 -13 -3 -3 -14 6 -8 19 -12
28 -9 12 3 13 2 4 -4 -10 -7 -8 -14 8 -28 l21 -19 -4 52 c-6 62 -11 71 -27 43z"/>
<path d="M1840 1167 c0 -4 7 -24 15 -43 10 -23 19 -33 27 -28 8 5 9 9 1 11 -6
2 -8 13 -5 25 3 14 1 19 -6 14 -6 -3 -15 2 -21 11 -6 10 -11 14 -11 10z"/>
<path d="M1257 1078 c-9 -32 -62 -88 -85 -88 -9 -1 -28 -10 -41 -21 -18 -15
-21 -23 -13 -31 8 -8 13 -7 18 5 3 9 29 29 58 45 65 37 78 53 74 89 l-3 28 -8
-27z"/>
<path d="M847 1053 c-4 -3 -7 -10 -7 -15 0 -12 73 -6 77 7 3 11 -60 19 -70 8z"/>
<path d="M1923 1039 c9 -5 33 -17 53 -25 34 -14 35 -14 24 6 -6 11 -15 18 -21
15 -5 -4 -15 -3 -21 2 -7 4 -22 9 -33 10 -18 3 -18 2 -2 -8z"/>
<path d="M1630 1019 c0 -5 -3 -8 -8 -5 -4 2 -16 -2 -27 -10 -15 -11 -16 -14
-3 -14 24 0 79 25 71 33 -10 11 -33 8 -33 -4z"/>
<path d="M1774 998 c9 -13 21 -33 26 -45 11 -26 30 -31 30 -8 0 8 -5 15 -12
15 -6 0 -9 3 -5 6 7 7 -33 54 -46 54 -5 0 -2 -10 7 -22z"/>
<path d="M1948 987 c12 -13 22 -27 22 -32 0 -10 69 -115 76 -115 14 0 -81 156
-99 163 -21 8 -21 8 1 -16z"/>
<path d="M1028 984 c-4 -3 -2 -20 3 -37 5 -18 9 -40 9 -49 0 -18 -63 -88 -79
-88 -5 0 -12 -7 -15 -16 -4 -10 -2 -13 7 -8 9 6 9 4 -1 -8 -14 -18 -18 -62 -8
-93 6 -18 2 -20 -46 -22 -60 -3 -91 4 -82 18 3 5 -13 8 -38 7 -24 -1 -82 2
-130 6 -52 4 -88 3 -88 -2 0 -10 47 -22 86 -22 13 0 24 -4 24 -8 0 -4 -30 -5
-67 -1 -53 5 -70 11 -84 30 -10 13 -19 19 -19 13 0 -6 3 -14 7 -17 3 -4 8 -33
10 -64 6 -95 9 -118 16 -130 12 -19 -32 -36 -88 -35 -49 1 -50 1 -23 -13 32
-18 189 -39 443 -60 105 -8 202 -18 218 -21 27 -6 38 -24 15 -25 -145 -6 -438
-66 -438 -90 0 -4 -27 -24 -60 -44 -60 -36 -85 -67 -32 -39 15 7 32 14 38 14
6 0 17 6 23 14 10 12 69 32 161 56 19 5 72 18 116 30 45 12 110 24 145 25 82
4 149 16 149 25 0 4 12 10 26 13 19 3 51 -10 118 -48 88 -50 94 -51 156 -48
36 2 81 8 100 13 41 11 196 19 370 20 81 1 117 4 104 10 -43 17 -161 22 -259
10 -55 -7 -135 -14 -179 -16 -43 -3 -87 -9 -97 -14 -46 -25 -169 6 -169 43 0
13 -87 42 -155 53 -22 3 -161 30 -310 59 -148 29 -289 56 -312 60 -41 6 -42 8
-41 44 0 21 -3 48 -7 59 -8 28 -11 28 165 -7 250 -50 381 -73 386 -68 3 3 -38
13 -90 22 -67 12 -96 22 -96 31 0 17 -17 19 -22 3 -2 -7 -28 -6 -83 6 -44 9
-81 18 -83 20 -7 6 9 26 17 21 4 -3 41 -7 82 -9 41 -3 68 -3 62 0 -7 2 -13 11
-13 19 0 17 -12 18 -27 3 -13 -13 -76 -2 -67 12 3 5 0 9 -5 9 -6 0 -11 -5 -11
-11 0 -6 -9 -9 -20 -6 -11 3 -18 1 -15 -4 4 -5 -7 -7 -22 -5 -15 2 -22 1 -15
-1 6 -2 12 -9 12 -15 0 -7 -14 -8 -37 -4 -21 3 -44 6 -50 6 -7 0 -13 7 -13 15
0 18 -17 20 -22 4 -2 -7 -13 -9 -26 -5 -40 13 -23 26 36 26 43 0 53 -3 42 -11
-11 -8 -7 -9 19 -5 19 3 39 14 46 23 11 15 19 15 86 3 41 -7 101 -12 134 -12
42 1 56 -1 45 -8 -11 -7 -6 -10 20 -9 65 3 165 -10 163 -21 -4 -12 10 -13 23
-1 15 14 267 -14 622 -71 233 -37 282 -41 527 -48 265 -8 331 -16 575 -66 19
-4 32 -4 28 0 -3 4 -12 8 -20 10 -7 1 -17 4 -23 7 -5 4 -55 18 -110 32 -171
45 -280 56 -510 55 -157 -2 -236 2 -315 15 -158 26 -379 57 -435 61 -51 4
-203 22 -263 32 -18 3 -30 9 -27 14 6 10 -23 2 -40 -11 -13 -10 -116 17 -128
33 -6 9 -7 8 -3 -4 4 -14 0 -18 -17 -18 -46 1 -62 30 -58 108 1 22 58 85 97
108 15 9 16 14 8 25 -7 8 -18 33 -26 57 -8 23 -17 40 -20 36z m-353 -547 c11
-2 -16 -4 -60 -3 -65 1 -80 4 -83 17 -3 17 24 14 143 -14z"/>
<path d="M1533 976 c0 -11 5 -13 19 -5 10 5 18 12 18 14 0 3 -8 5 -18 5 -10 0
-19 -7 -19 -14z"/>
<path d="M2025 956 c9 -13 24 -28 33 -32 16 -7 55 -13 49 -8 -18 18 -82 64
-89 64 -4 0 -1 -11 7 -24z"/>
<path d="M1935 916 c13 -24 21 -47 17 -51 -4 -5 -2 -5 5 -1 9 5 7 18 -9 51
-12 25 -25 45 -30 45 -4 0 3 -20 17 -44z"/>
<path d="M2180 941 c24 -20 40 -26 40 -16 0 2 -15 12 -32 20 l-33 16 25 -20z"/>
<path d="M1642 906 c1 -15 6 -26 10 -26 12 0 10 38 -2 45 -6 4 -9 -5 -8 -19z"/>
<path d="M1145 880 c-9 -15 13 -21 55 -14 57 9 57 19 -1 21 -27 0 -51 -3 -54
-7z"/>
<path d="M1176 824 c-29 -20 -9 -37 37 -31 47 6 79 30 53 40 -9 4 -16 2 -16
-3 0 -5 -12 -5 -28 -1 -19 6 -34 4 -46 -5z"/>
<path d="M1290 832 c0 -9 61 -44 67 -38 9 9 -7 24 -37 34 -16 6 -30 8 -30 4z"/>
<path d="M519 764 c-8 -10 -5 -14 13 -18 30 -6 291 -16 286 -10 -8 7 -162 32
-226 36 -43 3 -66 0 -73 -8z"/>
<path d="M1204 748 c-11 -13 -12 -17 -3 -11 8 7 26 17 40 22 22 9 22 10 3 10
-11 1 -29 -9 -40 -21z"/>
<path d="M932 605 c-17 -19 -1 -19 24 0 14 11 15 14 4 14 -8 0 -21 -6 -28 -14z"/>
<path d="M1030 595 c0 -9 6 -12 15 -9 8 4 15 10 15 15 0 5 -7 9 -15 9 -8 0
-15 -7 -15 -15z"/>
<path d="M1210 560 c0 -5 6 -10 14 -10 8 0 18 5 21 10 3 6 -3 10 -14 10 -12 0
-21 -4 -21 -10z"/>
<path d="M1328 538 c9 -9 15 -9 24 0 9 9 7 12 -12 12 -19 0 -21 -3 -12 -12z"/>
<path d="M1470 530 c-25 -4 -40 -8 -35 -10 20 -4 80 2 95 11 18 10 11 10 -60
-1z"/>
<path d="M1156 514 c-4 -11 -1 -14 11 -12 9 2 18 9 21 16 6 18 -25 15 -32 -4z"/>
<path d="M1625 509 c-4 -6 -25 -9 -46 -8 -21 2 -38 -1 -36 -6 2 -12 87 -14 87
-3 0 4 21 8 48 9 38 1 42 2 22 9 -37 12 -68 11 -75 -1z"/>
<path d="M1278 499 c-6 -4 -6 -9 -1 -12 13 -8 222 -11 230 -3 4 3 0 6 -8 7
-151 11 -213 13 -221 8z"/>
<path d="M930 472 c0 -14 9 -21 31 -26 44 -9 56 -7 39 4 -13 8 -13 10 2 10 9
0 21 -7 25 -15 12 -20 98 -25 98 -5 0 13 -28 21 -157 44 -33 6 -38 4 -38 -12z"/>
<path d="M1805 480 c3 -5 -29 -10 -82 -12 l-88 -3 90 -9 c64 -6 90 -6 93 3 5
14 62 15 62 1 0 -15 37 -12 43 4 3 8 21 16 39 19 18 2 -11 5 -65 5 -61 1 -96
-2 -92 -8z"/>
<path d="M1192 433 c7 -15 13 -29 14 -31 1 -2 16 4 33 13 22 11 51 15 99 13
63 -3 67 -5 65 -26 -3 -21 1 -23 35 -20 30 2 38 7 40 26 3 16 8 22 19 18 8 -3
17 -6 19 -6 2 0 4 -7 4 -15 0 -10 10 -15 34 -15 19 0 37 3 39 8 3 4 94 6 203
4 108 -2 193 -6 188 -11 -12 -11 -131 -29 -234 -36 -115 -8 -194 -16 -198 -20
-2 -2 13 -7 33 -11 42 -7 128 -2 310 21 66 8 154 18 195 21 41 4 88 13 105 22
24 12 79 15 312 14 156 0 292 -3 302 -7 11 -3 22 -2 25 3 15 25 -306 44 -524
32 -91 -5 -176 -9 -189 -10 -24 0 -24 0 -5 -15 17 -13 14 -14 -43 -15 -35 0
-63 5 -65 11 -2 6 -69 14 -173 20 -94 5 -222 13 -285 18 -63 5 -172 13 -243
16 l-127 7 12 -29z"/>
<path d="M2292 381 c-9 -5 7 -10 45 -13 62 -6 89 1 57 13 -26 10 -86 11 -102
0z"/>
<path d="M440 371 c0 -6 14 -20 30 -33 17 -12 30 -30 30 -40 0 -10 4 -18 10
-18 5 0 7 -7 4 -15 -4 -9 0 -15 10 -15 20 0 20 1 -4 53 -19 39 -80 92 -80 68z"/>
<path d="M2435 370 c28 -12 47 -12 40 0 -3 6 -18 10 -33 9 -24 0 -25 -1 -7 -9z"/>
<path d="M2065 330 c-24 -5 -17 -7 34 -13 90 -10 177 -9 166 2 -12 11 -159 19
-200 11z"/>
<path d="M2308 323 c-10 -2 -18 -8 -18 -12 0 -9 101 -4 109 6 3 3 -6 3 -21 1
-16 -3 -28 -1 -28 3 0 9 -13 10 -42 2z"/>
<path d="M1023 253 c9 -2 25 -2 35 0 9 3 1 5 -18 5 -19 0 -27 -2 -17 -5z"/>
<path d="M830 200 c-27 -4 -31 -7 -17 -13 29 -11 387 -9 387 3 0 6 -21 10 -47
10 -27 0 -102 2 -168 3 -66 1 -136 0 -155 -3z"/>
<path d="M1298 183 c17 -2 47 -2 65 0 17 2 3 4 -33 4 -36 0 -50 -2 -32 -4z"/>
<path d="M1570 184 c36 -7 379 -10 374 -2 -3 4 -92 7 -197 7 -106 -1 -185 -3
-177 -5z"/>
<path d="M2113 173 c9 -2 25 -2 35 0 9 3 1 5 -18 5 -19 0 -27 -2 -17 -5z"/>
</g>
</svg>
