 <svg  version="1.0" xmlns="http://www.w3.org/2000/svg"  width="900.000000pt" height="858.000000pt" viewBox="0 0 900.000000 858.000000"  preserveAspectRatio="xMidYMid meet">  <g transform="translate(0.000000,858.000000) scale(0.100000,-0.100000)" fill="#ffffff" stroke="none"> <path d="M3605 8300 c-8 -13 3 -30 21 -30 18 0 18 14 0 29 -10 8 -16 9 -21 1z"/> <path d="M8550 7911 c0 -6 9 -15 20 -21 13 -7 20 -7 20 -1 0 6 -9 15 -20 21 -13 7 -20 7 -20 1z"/> <path d="M2664 7685 c-3 -7 -4 -18 -2 -25 2 -8 -16 -24 -39 -37 -44 -25 -88 -84 -80 -106 3 -8 -2 -38 -10 -68 -8 -30 -18 -69 -23 -88 -5 -18 -13 -38 -19 -44 -6 -6 -11 -20 -11 -30 0 -11 -7 -25 -15 -31 -10 -7 -17 -31 -19 -61 -2 -28 -9 -63 -15 -78 -13 -34 -14 -54 -2 -61 4 -3 14 14 20 37 7 23 21 56 30 72 10 17 21 51 25 75 9 56 43 130 61 130 17 0 48 48 41 66 -3 7 3 18 12 24 16 9 16 11 0 24 -24 18 -23 22 11 34 20 7 30 19 34 41 l7 31 70 -4 c69 -5 70 -4 70 20 0 24 23 34 35 14 4 -7 13 -6 27 1 18 9 20 9 15 -4 -4 -11 6 -22 37 -36 63 -31 113 -78 98 -93 -15 -15 22 -58 50 -58 21 0 36 -10 78 -54 16 -16 26 -34 24 -41 -3 -6 2 -18 11 -25 8 -7 15 -10 15 -6 0 4 11 -1 25 -10 31 -20 34 -54 5 -54 -18 0 -19 -3 -9 -21 10 -20 9 -21 -33 -17 -37 3 -43 0 -43 -17 0 -17 11 -22 72 -34 56 -12 73 -19 79 -35 6 -19 7 -18 11 7 4 25 33 40 33 16 0 -14 61 -69 77 -69 7 0 13 2 13 5 0 20 -121 207 -155 242 -8 8 -15 18 -15 22 0 4 -9 18 -20 31 -11 13 -20 28 -20 34 0 21 -152 166 -174 166 -3 0 -34 20 -69 44 -44 31 -78 46 -113 51 -27 4 -55 12 -62 18 -19 15 -133 17 -138 2z"/> <path d="M2842 7550 c7 -12 24 -23 38 -27 14 -3 37 -13 51 -21 27 -15 59 -11 59 8 0 5 -13 10 -29 10 -17 0 -33 5 -36 10 -3 6 -17 10 -29 10 -13 0 -29 7 -36 15 -19 22 -32 18 -18 -5z"/> <path d="M2880 7440 c-19 -14 -22 -22 -13 -31 8 -8 21 -5 52 13 23 14 38 28 34 31 -12 13 -48 7 -73 -13z"/> <path d="M2492 7434 c4 -21 22 -23 26 -1 2 10 -3 17 -13 17 -10 0 -15 -6 -13 -16z"/> <path d="M2980 7375 c-19 -23 -8 -26 20 -5 19 15 21 20 9 20 -9 0 -22 -7 -29 -15z"/> <path d="M2717 7338 c-16 -12 -16 -15 -3 -33 18 -25 29 -16 24 20 -3 23 -5 25 -21 13z"/> <path d="M2910 7330 c0 -5 9 -10 21 -10 11 0 17 5 14 10 -3 6 -13 10 -21 10 -8 0 -14 -4 -14 -10z"/> <path d="M6084 7293 l-24 -26 25 -33 c22 -29 24 -37 14 -56 -28 -54 -29 -59 -18 -80 11 -20 5 -30 -24 -40 -4 -2 -1 -18 5 -37 10 -27 10 -35 1 -38 -7 -3 -23 -13 -35 -24 -23 -19 -23 -19 -3 -34 27 -21 49 -15 53 15 2 14 8 29 13 35 12 12 11 43 -2 47 -14 5 0 38 15 38 12 0 42 95 53 167 12 78 -29 114 -73 66z"/> <path d="M5978 7303 c-10 -2 -18 -9 -18 -14 0 -15 53 -6 58 9 4 12 -8 14 -40 5z"/> <path d="M3053 7259 c-35 -37 -63 -50 -63 -29 0 6 -7 10 -15 10 -8 0 -15 -4 -15 -10 0 -5 5 -10 10 -10 6 0 10 -7 10 -15 0 -8 -6 -15 -13 -15 -12 0 -57 -43 -57 -55 0 -9 39 11 64 33 15 12 30 22 35 22 7 0 20 9 67 49 6 5 24 11 39 13 39 4 41 21 5 35 -29 11 -33 9 -67 -28z"/> <path d="M5877 7260 c-14 -11 -29 -20 -34 -20 -17 0 -131 -60 -143 -75 -7 -8 -18 -15 -25 -15 -7 0 -31 -18 -53 -40 -22 -22 -43 -40 -46 -40 -4 0 -32 -20 -63 -45 -30 -25 -59 -45 -64 -45 -5 0 -9 -11 -9 -25 0 -30 24 -43 45 -25 8 6 19 9 25 5 18 -11 48 23 43 49 -6 31 52 78 85 69 16 -4 22 -1 22 10 0 9 12 22 28 29 15 7 31 23 37 36 5 12 15 22 21 22 6 0 19 9 29 20 10 11 24 20 32 20 7 0 13 4 13 9 0 5 14 11 32 15 35 7 68 32 68 53 0 18 -13 16 -43 -7z"/> <path d="M2820 7260 c0 -5 7 -10 15 -10 8 0 15 5 15 10 0 6 -7 10 -15 10 -8 0 -15 -4 -15 -10z"/> <path d="M2765 7225 c-16 -14 -24 -25 -17 -25 17 0 62 30 62 41 0 15 -13 10 -45 -16z"/> <path d="M2895 7229 c-4 -6 -5 -13 -2 -16 7 -7 27 6 27 18 0 12 -17 12 -25 -2z"/> <path d="M2594 7184 c-6 -3 -9 -16 -6 -29 2 -15 0 -25 -7 -25 -6 0 -11 -9 -11 -20 0 -23 15 -26 27 -6 4 8 25 28 45 44 21 16 35 32 31 36 -7 7 -62 7 -79 0z"/> <path d="M5950 7170 c20 -13 50 -13 50 0 0 6 -15 10 -32 10 -25 0 -29 -3 -18 -10z"/> <path d="M2632 7091 c4 -13 18 -16 19 -4 0 4 -5 9 -11 12 -7 2 -11 -2 -8 -8z"/> <path d="M2735 7063 c-33 -18 -69 -33 -80 -33 -12 0 -25 -4 -30 -9 -6 -5 -26 -13 -45 -18 -25 -7 -36 -16 -38 -31 -3 -17 2 -22 17 -22 14 0 21 6 21 20 0 17 7 20 49 20 28 0 53 -5 57 -11 4 -7 21 -9 47 -5 26 5 43 3 48 -5 5 -8 15 -9 35 -2 25 9 29 15 26 42 -2 29 0 31 33 31 36 0 46 15 24 37 -8 8 -19 8 -39 0 -23 -9 -33 -8 -47 4 -16 14 -24 12 -78 -18z m75 -27 c0 -18 -17 -29 -30 -21 -8 5 -7 11 1 21 15 18 29 18 29 0z"/> <path d="M3060 7090 c0 -12 27 -20 66 -20 38 0 47 17 12 24 -38 6 -78 4 -78 -4z"/> <path d="M3345 7031 c22 -21 45 -47 52 -57 10 -17 13 -17 22 -4 17 24 13 40 -13 49 -13 5 -26 19 -29 30 -4 16 -13 21 -38 21 l-33 0 39 -39z"/> <path d="M3500 7016 c0 -8 5 -18 10 -21 6 -3 10 3 10 14 0 12 -4 21 -10 21 -5 0 -10 -6 -10 -14z"/> <path d="M2980 7003 c-19 -13 -28 -43 -13 -43 13 0 83 34 83 41 0 14 -50 16 -70 2z"/> <path d="M2907 6974 c-8 -8 1 -24 14 -24 5 0 9 7 9 15 0 15 -12 20 -23 9z"/> <path d="M3065 6970 c-8 -13 39 -34 59 -27 23 9 20 24 -6 31 -33 8 -46 7 -53 -4z"/> <path d="M3534 6966 c-8 -20 -1 -49 12 -53 10 -3 34 37 34 57 0 16 -40 11 -46 -4z"/> <path d="M5355 6950 c-29 -21 -47 -27 -67 -23 -57 11 -128 -48 -128 -106 0 -14 -6 -21 -19 -21 -11 0 -23 -9 -26 -20 -5 -14 -13 -19 -28 -15 -18 4 -26 -3 -44 -43 -20 -41 -21 -52 -12 -87 6 -22 15 -62 21 -90 14 -71 25 -95 42 -95 17 0 39 34 29 44 -12 12 -3 100 14 136 9 19 27 49 40 66 12 17 23 35 23 39 0 10 69 75 80 75 10 0 50 45 50 57 0 7 8 14 18 17 10 3 26 19 35 36 10 16 22 30 28 30 5 0 9 7 9 15 0 22 -20 17 -65 -15z"/> <path d="M3177 6954 c-29 -29 23 -67 54 -38 9 8 23 12 32 9 8 -4 18 -2 21 4 7 10 -8 16 -64 26 -19 4 -39 3 -43 -1z"/> <path d="M2573 6931 c-13 -11 -23 -27 -23 -36 0 -13 6 -16 23 -12 12 4 41 9 65 13 47 7 51 13 24 37 -24 22 -61 21 -89 -2z"/> <path d="M3586 6924 c-8 -20 1 -34 20 -34 8 0 14 -7 14 -15 0 -8 -4 -15 -10 -15 -5 0 -10 -7 -10 -16 0 -10 6 -13 19 -9 14 4 20 -1 26 -22 3 -15 24 -44 46 -64 21 -20 39 -44 39 -55 0 -28 12 -42 43 -49 21 -6 26 -12 22 -26 -4 -13 -1 -19 9 -19 9 0 16 5 16 10 0 6 7 10 15 10 11 0 15 11 15 39 0 22 6 44 15 51 13 11 12 16 -10 38 -18 18 -25 35 -25 63 0 43 -10 49 -31 20 -21 -28 -72 -11 -89 29 -7 16 -22 32 -34 36 -11 4 -29 15 -39 25 -22 23 -43 24 -51 3z m244 -224 c0 -11 -4 -20 -9 -20 -14 0 -23 18 -16 30 10 17 25 11 25 -10z"/> <path d="M3908 6907 c12 -21 26 -32 40 -31 12 0 22 -3 22 -8 0 -20 45 -3 48 18 3 24 -34 45 -91 49 l-38 3 19 -31z"/> <path d="M2430 6907 c0 -7 6 -21 14 -32 7 -11 16 -37 20 -58 5 -29 14 -41 34 -49 l27 -10 -22 -11 c-13 -5 -23 -16 -23 -22 0 -18 39 -26 62 -14 19 10 19 11 2 30 -29 33 -6 44 63 31 36 -7 72 -8 95 -3 20 5 39 6 43 3 3 -3 71 -7 153 -8 196 -5 200 -5 206 -20 6 -15 44 -19 62 -6 6 4 13 15 17 25 3 9 16 17 27 17 28 0 25 17 -5 24 -14 4 -25 11 -25 16 0 6 -9 10 -20 10 -11 0 -20 -7 -20 -15 0 -8 9 -15 20 -15 11 0 20 -5 20 -10 0 -21 -28 -21 -66 -1 -21 12 -44 21 -51 21 -7 0 -13 5 -13 10 0 6 10 10 23 10 12 0 28 4 35 9 10 6 8 10 -10 14 -34 10 -45 8 -61 -7 -8 -8 -31 -22 -52 -30 -37 -16 -39 -15 -58 5 -12 13 -25 18 -36 13 -30 -13 -115 -34 -137 -34 -13 0 -24 8 -27 20 -4 17 -14 20 -56 20 -38 0 -51 -4 -51 -15 0 -8 -17 -19 -40 -26 -49 -15 -72 -1 -64 40 4 18 0 34 -13 48 -22 25 -73 40 -73 20z"/> <path d="M3282 6881 c-14 -8 18 -41 78 -81 19 -13 43 -33 52 -44 14 -17 18 -18 18 -5 0 38 -56 109 -87 109 -9 0 -24 7 -32 14 -9 8 -22 12 -29 7z"/> <path d="M4040 6835 c0 -63 10 -68 51 -29 29 28 49 25 49 -7 0 -27 32 -24 60 6 20 22 32 25 70 23 l45 -3 -2 -92 c-3 -96 5 -119 27 -78 20 38 68 35 83 -5 9 -24 16 -30 33 -26 27 7 76 -7 103 -30 25 -22 28 -59 5 -68 -8 -3 -12 -11 -9 -16 5 -8 11 -7 20 0 8 7 23 9 35 5 14 -4 22 -1 27 12 3 10 12 22 20 26 15 9 18 37 3 37 -5 0 -13 -7 -18 -16 -8 -14 -16 -9 -56 29 -31 30 -57 47 -77 49 -27 3 -36 12 -61 61 -30 56 -41 66 -53 47 -12 -19 -53 -11 -60 11 -9 29 5 40 58 46 37 4 48 2 65 -18 21 -22 22 -22 42 -4 18 17 25 17 53 7 28 -11 34 -10 45 5 15 21 15 40 0 49 -6 4 -64 7 -129 6 -79 -1 -130 3 -157 12 -33 12 -46 12 -78 1 -21 -7 -40 -18 -42 -24 -6 -18 -19 -13 -25 10 -5 17 -11 20 -31 15 -14 -3 -28 -2 -31 4 -3 5 -19 10 -36 10 -29 0 -29 -1 -29 -55z"/> <path d="M4730 6855 c0 -24 -6 -37 -20 -45 -23 -12 -27 -40 -6 -40 28 0 46 12 46 30 0 24 18 36 33 21 14 -14 27 -14 27 0 0 14 -55 69 -69 69 -6 0 -11 -16 -11 -35z"/> <path d="M4947 6884 c-4 -4 -7 -14 -7 -23 0 -11 3 -12 11 -4 6 6 10 16 7 23 -2 6 -7 8 -11 4z"/> <path d="M2740 6870 c0 -5 7 -10 15 -10 8 0 15 5 15 10 0 6 -7 10 -15 10 -8 0 -15 -4 -15 -10z"/> <path d="M5095 6857 c-4 -10 -5 -21 -1 -24 10 -10 18 4 13 24 -4 17 -4 17 -12 0z"/> <path d="M4666 6851 c-3 -5 1 -11 9 -15 9 -3 15 0 15 9 0 16 -16 20 -24 6z"/> <path d="M3860 6826 c0 -17 14 -29 23 -20 8 8 -3 34 -14 34 -5 0 -9 -6 -9 -14z"/> <path d="M4999 6814 c-12 -33 -4 -74 15 -74 16 0 39 51 34 77 -6 30 -37 28 -49 -3z"/> <path d="M3511 6780 c0 -33 1 -34 11 -12 8 17 8 26 0 34 -9 9 -12 4 -11 -22z"/> <path d="M5848 6778 c9 -9 15 -9 24 0 9 9 7 12 -12 12 -19 0 -21 -3 -12 -12z"/> <path d="M5953 6764 c-8 -21 13 -42 28 -27 13 13 5 43 -11 43 -6 0 -13 -7 -17 -16z"/> <path d="M3958 6749 c-15 -8 -48 -93 -48 -121 0 -14 48 -9 64 8 9 8 16 23 16 33 0 14 6 17 25 13 20 -3 25 0 25 17 0 12 -6 21 -14 21 -8 0 -18 9 -21 20 -7 22 -21 25 -47 9z"/> <path d="M4607 6737 c-38 -59 -8 -110 39 -67 29 29 29 28 1 64 l-23 28 -17 -25z"/> <path d="M5338 6739 c-16 -11 -28 -25 -28 -30 0 -14 45 10 58 32 16 24 4 24 -30 -2z"/> <path d="M3195 6730 c-4 -7 -3 -16 3 -22 14 -14 45 -2 40 15 -6 16 -34 21 -43 7z"/> <path d="M3302 6728 c3 -7 13 -15 22 -16 12 -3 17 1 14 10 -3 7 -13 15 -22 16 -12 3 -17 -1 -14 -10z"/> <path d="M2895 6710 c-62 -8 -100 -24 -108 -44 -4 -9 -18 -16 -33 -16 -45 0 -94 -22 -94 -42 0 -21 15 -22 93 -7 45 9 57 16 59 33 3 18 12 22 58 27 67 8 90 17 90 34 0 20 -9 22 -65 15z"/> <path d="M2585 6700 c-4 -6 7 -10 25 -10 18 0 29 4 25 10 -3 6 -15 10 -25 10 -10 0 -22 -4 -25 -10z"/> <path d="M3221 6681 c-19 -12 -5 -31 23 -31 29 0 39 10 25 27 -13 15 -28 16 -48 4z"/> <path d="M3448 6684 c-12 -11 -10 -38 4 -52 6 -6 13 -40 14 -74 5 -82 12 -114 25 -101 20 20 12 129 -12 183 -13 28 -27 48 -31 44z"/> <path d="M4071 6676 c-9 -10 -8 -15 2 -19 23 -9 41 8 24 22 -11 9 -17 8 -26 -3z"/> <path d="M2485 6671 c-3 -5 11 -15 31 -21 l37 -13 -22 -17 -23 -17 24 -27 c22 -26 27 -27 71 -21 53 8 61 26 20 42 l-28 10 28 11 c39 16 33 24 -15 20 -38 -2 -43 0 -46 20 -3 18 -10 22 -37 22 -19 0 -36 -4 -40 -9z"/> <path d="M5715 6671 c-30 -7 -30 -7 10 -13 44 -6 68 -1 59 13 -6 10 -25 10 -69 0z"/> <path d="M4220 6642 c0 -11 -7 -25 -15 -32 -27 -22 -19 -42 15 -35 29 6 30 5 30 -29 0 -31 -3 -36 -24 -36 -14 0 -28 5 -31 10 -13 20 -24 9 -23 -23 1 -18 -5 -43 -11 -56 -13 -24 -8 -33 24 -44 5 -2 1 -23 -10 -48 -24 -52 -25 -148 -2 -161 16 -9 31 -52 28 -83 -1 -11 7 -33 18 -48 l19 -29 15 22 c13 18 15 19 21 5 3 -9 3 -27 0 -40 -3 -13 -1 -31 4 -41 9 -15 12 -15 33 9 12 15 28 27 35 27 22 0 24 30 3 48 -11 9 -32 38 -45 65 -13 26 -30 47 -38 47 -41 0 -61 78 -27 108 10 10 23 42 30 72 13 63 13 200 0 216 -5 6 -8 28 -6 50 2 34 -1 39 -20 42 -17 3 -23 -2 -23 -16z"/> <path d="M5890 6651 c-8 -6 -17 -8 -21 -5 -17 10 -20 -19 -3 -37 22 -25 50 -24 64 2 21 37 -4 62 -40 40z"/> <path d="M3276 6626 c-8 -30 29 -97 49 -90 8 4 15 -5 20 -25 5 -25 41 -61 60 -61 11 0 4 34 -11 51 -17 18 -21 71 -9 107 5 16 3 22 -8 22 -9 0 -19 -9 -22 -20 -9 -29 -25 -24 -31 10 -8 37 -39 41 -48 6z"/> <path d="M4797 6643 c-4 -3 -7 -23 -7 -44 0 -26 5 -38 18 -43 9 -3 23 -9 30 -12 16 -8 15 12 -4 63 -16 42 -24 50 -37 36z"/> <path d="M4122 6605 c-12 -15 -22 -36 -22 -45 0 -10 -9 -24 -21 -31 -13 -9 -22 -29 -26 -58 -6 -41 -5 -43 15 -32 17 9 22 8 27 -9 4 -11 15 -20 26 -20 18 0 20 4 14 31 -14 64 -13 149 3 158 8 5 13 14 10 21 -3 9 -12 4 -26 -15z"/> <path d="M2246 6613 c-12 -12 -6 -43 9 -43 8 0 15 9 15 19 0 21 -13 34 -24 24z"/> <path d="M4361 6583 c-15 -54 -15 -55 22 -51 30 3 32 5 32 43 0 34 -4 41 -22 43 -18 3 -24 -4 -32 -35z"/> <path d="M4880 6596 c0 -13 7 -29 15 -36 8 -7 15 -19 15 -26 0 -19 25 -18 44 2 24 23 20 44 -9 44 -14 0 -29 8 -35 20 -15 27 -30 25 -30 -4z"/> <path d="M2397 6604 c-13 -13 -7 -95 9 -129 20 -42 8 -118 -19 -123 -18 -4 -24 24 -6 30 6 2 9 21 7 43 l-3 40 -21 -36 c-12 -20 -27 -56 -32 -80 -6 -24 -16 -62 -22 -84 -7 -22 -14 -56 -17 -75 -2 -19 -9 -44 -14 -56 -6 -11 -9 -34 -7 -50 2 -23 8 -29 28 -29 40 -1 81 -16 77 -29 -3 -6 -10 -10 -17 -8 -7 1 -18 -3 -26 -9 -11 -9 -18 -8 -29 1 -21 17 -65 -2 -65 -29 0 -34 25 -44 62 -25 18 9 40 23 49 30 12 11 27 12 75 3 83 -15 134 -31 134 -41 0 -4 8 -8 18 -8 15 1 15 2 -2 15 -14 10 -20 28 -20 56 -1 28 -6 43 -18 50 -10 6 -18 18 -18 28 0 23 -19 31 -69 31 -24 0 -43 7 -53 18 -13 16 -51 104 -45 107 1 0 14 9 30 18 l27 17 0 -29 c0 -35 26 -62 36 -37 3 9 3 36 0 60 -8 50 9 100 49 148 35 41 33 75 -4 83 -34 7 -54 28 -73 73 -7 19 -16 30 -21 26z"/> <path d="M5643 6587 c5 -15 37 -22 37 -9 0 5 -9 12 -21 15 -13 3 -19 1 -16 -6z"/> <path d="M3120 6580 c-37 -8 -32 -10 43 -16 37 -3 47 -1 47 11 0 16 -29 18 -90 5z"/> <path d="M4720 6578 c0 -8 5 -19 12 -26 9 -9 9 -15 0 -24 -9 -9 -16 -8 -30 5 -10 9 -22 17 -25 17 -13 0 -7 -38 8 -50 8 -7 15 -22 15 -35 0 -12 9 -32 20 -45 11 -13 20 -27 20 -32 0 -4 7 -8 15 -8 8 0 23 -9 33 -20 16 -17 26 -19 66 -14 26 4 50 13 53 20 3 8 14 14 25 14 14 0 18 5 14 16 -3 9 -6 18 -6 20 0 10 -35 2 -51 -12 -16 -14 -20 -14 -43 1 -14 10 -26 25 -26 35 0 44 -26 68 -32 30 -7 -46 -23 -11 -23 50 0 60 -2 65 -22 68 -14 2 -23 -2 -23 -10z"/> <path d="M3987 6573 c-4 -3 -7 -17 -7 -30 0 -33 24 -24 28 10 3 26 -7 35 -21 20z"/> <path d="M5576 6571 c-3 -5 -33 -12 -66 -16 -33 -4 -60 -11 -60 -15 0 -11 131 -18 152 -8 15 7 16 12 5 28 -13 22 -23 25 -31 11z"/> <path d="M6695 6565 c-16 -6 -46 -21 -65 -33 -19 -12 -40 -22 -46 -22 -40 0 -164 -92 -164 -121 0 -22 28 -15 48 13 7 10 19 18 26 18 7 0 53 20 102 45 49 25 93 45 97 45 5 0 33 7 63 16 56 16 64 34 15 34 -15 0 -31 4 -36 8 -6 5 -23 3 -40 -3z"/> <path d="M2186 6539 c-27 -21 -36 -59 -13 -59 19 0 57 43 57 63 0 22 -12 21 -44 -4z"/> <path d="M3926 6551 c-4 -6 -3 -18 2 -27 6 -11 11 -13 16 -5 4 6 3 18 -2 27 -6 11 -11 13 -16 5z"/> <path d="M5830 6550 c0 -5 -17 -10 -37 -10 -20 0 -63 -5 -96 -12 l-58 -12 81 -18 82 -17 34 27 c38 30 44 52 14 52 -11 0 -20 -4 -20 -10z"/> <path d="M2745 6532 c-39 -20 -45 -29 -45 -73 0 -27 7 -42 30 -62 17 -15 30 -32 30 -38 0 -5 5 -7 10 -4 6 3 10 15 10 25 0 13 9 22 26 26 25 6 124 90 124 104 0 15 -85 17 -93 3 -4 -7 -16 -13 -26 -13 -10 0 -24 -7 -31 -15 -14 -17 -56 -20 -65 -5 -3 6 1 10 9 10 9 0 21 9 28 20 9 13 24 20 45 20 18 0 33 5 33 10 0 15 -50 10 -85 -8z"/> <path d="M6953 6535 c-3 -9 -3 -18 0 -21 9 -9 27 6 27 22 0 19 -19 18 -27 -1z"/> <path d="M3210 6540 c-1 -3 -4 -24 -5 -47 -3 -37 0 -42 26 -53 16 -7 29 -20 29 -29 0 -29 39 -81 60 -81 11 0 20 -6 20 -14 0 -7 7 -19 15 -26 23 -19 38 0 26 31 -11 29 -64 89 -78 89 -20 0 -45 38 -38 59 5 16 1 23 -18 30 -14 6 -27 18 -30 28 -3 10 -6 16 -7 13z"/> <path d="M3671 6508 c-11 -28 -6 -38 20 -38 14 0 19 7 19 30 0 36 -26 41 -39 8z"/> <path d="M4491 6512 c-12 -23 -4 -55 13 -49 15 5 20 47 8 59 -7 7 -14 3 -21 -10z"/> <path d="M5340 6514 c0 -11 5 -14 16 -10 9 3 25 6 37 6 18 0 19 2 7 10 -24 16 -60 12 -60 -6z"/> <path d="M2983 6503 c-13 -2 -23 -8 -23 -12 0 -4 -13 -21 -30 -37 -16 -16 -30 -35 -30 -41 0 -7 -6 -13 -14 -13 -8 0 -24 -8 -36 -18 -32 -26 -14 -64 39 -82 51 -16 60 -9 32 26 -19 25 -29 64 -15 64 3 0 21 -15 39 -32 55 -54 61 -57 91 -49 32 8 45 31 17 31 -22 0 -43 18 -43 36 0 7 18 15 39 19 32 5 43 3 60 -14 12 -12 17 -21 11 -21 -5 0 -10 -9 -10 -20 0 -13 7 -20 20 -20 21 0 22 1 24 67 2 45 -7 53 -65 53 -33 0 -51 20 -39 40 6 8 10 18 10 23 0 7 -38 7 -77 0z"/> <path d="M3565 6497 c-4 -10 -5 -21 -1 -24 10 -10 18 4 13 24 -4 17 -4 17 -12 0z"/> <path d="M3801 6488 c0 -7 4 -22 8 -33 8 -19 8 -19 15 2 8 24 1 43 -15 43 -5 0 -9 -6 -8 -12z"/> <path d="M3952 6488 c7 -19 38 -22 38 -4 0 10 -9 16 -21 16 -12 0 -19 -5 -17 -12z"/> <path d="M3865 6446 c-10 -49 30 -118 50 -86 3 6 3 16 -2 23 -4 6 -8 30 -8 52 0 29 -4 40 -17 43 -12 2 -19 -6 -23 -32z"/> <path d="M4434 6435 c-7 -29 -16 -31 -34 -10 -7 8 -16 15 -20 15 -15 0 -20 -49 -8 -75 9 -19 8 -30 -1 -49 -13 -24 -8 -59 11 -83 16 -20 48 -87 48 -100 0 -7 9 -13 21 -13 17 0 19 4 12 23 -4 12 -8 43 -8 68 0 30 -6 51 -17 63 -23 23 -23 35 4 63 19 20 20 27 10 43 -10 16 -10 20 2 20 19 0 26 21 14 43 -12 24 -27 21 -34 -8z"/> <path d="M2131 6429 c-5 -13 -18 -33 -30 -43 -25 -23 -27 -36 -5 -36 18 0 74 50 74 66 0 6 -7 17 -15 24 -12 10 -16 8 -24 -11z"/> <path d="M4524 6395 c-13 -50 36 -104 53 -59 4 12 14 14 34 10 23 -4 29 -2 29 12 0 26 -12 38 -45 46 -16 4 -38 9 -47 12 -12 4 -19 -2 -24 -21z"/> <path d="M5060 6395 c-7 -8 -18 -15 -25 -15 -6 0 -18 -12 -25 -26 -13 -23 -12 -27 3 -35 9 -6 17 -18 17 -28 0 -26 43 -54 59 -38 18 18 14 55 -6 53 -24 -1 -30 46 -9 64 17 13 22 40 7 40 -5 0 -14 -7 -21 -15z"/> <path d="M5610 6395 c-14 -8 -34 -14 -45 -15 -23 0 -45 -18 -45 -35 0 -20 64 -11 83 12 10 12 32 23 50 25 17 2 31 8 30 13 -4 16 -46 16 -73 0z"/> <path d="M2680 6368 c11 -37 15 -42 29 -33 18 11 12 32 -13 49 l-24 15 8 -31z"/> <path d="M3160 6390 c0 -5 7 -10 15 -10 8 0 15 5 15 10 0 6 -7 10 -15 10 -8 0 -15 -4 -15 -10z"/> <path d="M3805 6379 c-4 -13 -15 -29 -23 -35 -18 -13 -2 -27 22 -18 20 8 30 39 18 60 -8 15 -11 14 -17 -7z"/> <path d="M2576 6367 c-15 -11 -16 -18 -7 -53 16 -62 40 -78 90 -64 23 6 41 14 41 18 0 14 -42 75 -63 93 -26 22 -38 23 -61 6z"/> <path d="M3957 6373 c-4 -3 -7 -17 -7 -30 0 -28 23 -27 28 1 4 20 -11 40 -21 29z"/> <path d="M4667 6351 c-20 -40 -21 -49 -5 -33 19 19 36 14 40 -13 4 -32 22 -37 26 -7 2 12 -1 22 -7 22 -6 0 -17 15 -24 32 l-13 33 -17 -34z"/> <path d="M5117 6373 c-15 -14 -7 -43 12 -43 22 0 45 25 36 40 -7 11 -38 14 -48 3z"/> <path d="M3717 6354 c-14 -14 -7 -35 11 -32 9 2 17 10 17 17 0 16 -18 25 -28 15z"/> <path d="M2782 6334 c2 -11 11 -20 22 -22 13 -3 17 1 14 14 -2 11 -11 20 -22 22 -13 3 -17 -1 -14 -14z"/> <path d="M5725 6340 c-11 -17 5 -32 21 -19 7 6 11 15 8 20 -7 12 -21 11 -29 -1z"/> <path d="M3170 6312 c0 -16 22 -30 41 -25 26 7 24 19 -3 27 -31 8 -38 7 -38 -2z"/> <path d="M3595 6309 c-8 -12 4 -49 16 -49 5 0 9 4 9 9 0 5 3 16 6 24 6 16 -22 31 -31 16z"/> <path d="M4850 6289 c0 -24 4 -30 18 -27 10 2 18 14 20 31 3 22 -1 27 -17 27 -17 0 -21 -6 -21 -31z"/> <path d="M5485 6311 c-6 -11 9 -23 19 -14 9 9 7 23 -3 23 -6 0 -12 -4 -16 -9z"/> <path d="M2062 6283 c-36 -7 -24 -37 16 -41 29 -3 32 -1 32 22 0 26 -4 27 -48 19z"/> <path d="M4535 6274 c-17 -17 -17 -45 0 -51 13 -4 36 55 25 62 -5 3 -16 -2 -25 -11z"/> <path d="M4926 6265 c-20 -30 -20 -34 0 -57 14 -14 14 -20 4 -33 -7 -8 -16 -30 -19 -48 -5 -23 -13 -33 -29 -35 -40 -6 -60 -53 -79 -184 -3 -24 -1 -38 6 -38 6 0 11 -7 11 -14 0 -8 12 -21 28 -28 27 -13 36 -38 16 -45 -6 -2 -14 5 -17 17 -7 28 -35 25 -49 -5 -8 -18 -8 -28 1 -39 9 -10 9 -20 2 -34 -12 -22 -3 -64 13 -59 6 2 13 17 16 33 4 20 14 33 36 43 37 16 67 71 58 105 -3 13 -1 27 6 31 13 8 4 43 -17 63 -8 8 -17 11 -21 8 -3 -4 0 -11 8 -16 12 -7 11 -13 -8 -33 -12 -13 -22 -28 -22 -34 0 -8 -7 -8 -25 0 -28 14 -32 29 -10 47 8 7 15 20 15 30 0 10 7 21 16 24 9 4 14 13 10 21 -3 9 0 15 9 15 8 0 15 9 15 20 0 11 4 20 9 20 5 0 17 3 26 6 14 6 15 2 10 -30 -6 -29 -4 -36 9 -36 9 0 16 8 16 20 0 11 4 20 9 20 5 0 14 13 20 29 10 23 9 40 -4 87 -9 33 -18 76 -20 96 -5 63 -22 74 -49 33z"/> <path d="M5172 6266 c-13 -14 -20 -30 -16 -40 9 -24 24 -19 24 8 0 13 7 26 15 30 15 5 21 26 8 26 -5 0 -18 -11 -31 -24z"/> <path d="M4644 6245 c-4 -9 7 -30 25 -50 17 -20 28 -41 25 -50 -4 -9 4 -23 17 -35 30 -25 36 -25 44 0 3 11 20 33 36 49 18 18 25 32 19 36 -6 4 -17 2 -24 -4 -15 -13 -26 4 -26 40 0 21 -20 25 -38 7 -9 -9 -16 -8 -30 5 -23 21 -41 22 -48 2z"/> <path d="M4050 6223 c1 -27 1 -27 15 -9 14 19 12 36 -6 36 -5 0 -9 -12 -9 -27z"/> <path d="M4100 6232 c0 -28 10 -52 22 -52 14 0 5 63 -9 68 -8 2 -13 -5 -13 -16z"/> <path d="M4280 6241 c0 -5 11 -23 25 -38 l25 -28 -14 35 c-13 33 -36 53 -36 31z"/> <path d="M5007 6243 c-11 -10 -8 -43 3 -43 15 0 24 30 13 41 -5 5 -12 6 -16 2z"/> <path d="M2650 6228 c0 -16 19 -38 33 -38 4 0 7 10 5 22 -3 25 -38 39 -38 16z"/> <path d="M2750 6216 c0 -8 6 -16 14 -19 7 -3 16 -15 19 -26 7 -28 -29 -29 -38 -1 -3 11 -15 20 -25 20 -16 0 -17 -3 -7 -25 7 -14 18 -25 25 -25 6 0 12 -7 12 -15 0 -18 36 -20 44 -2 3 6 3 1 0 -13 -3 -14 -2 -20 3 -14 4 6 16 13 26 17 26 10 21 28 -21 75 -39 44 -52 51 -52 28z"/> <path d="M5600 6220 c-8 -5 -27 -10 -42 -10 -26 0 -88 -43 -88 -61 0 -5 11 -9 25 -9 14 0 25 4 25 9 0 13 35 20 52 10 10 -6 20 -4 28 6 7 8 21 15 31 15 22 0 23 8 5 33 -15 20 -16 20 -36 7z"/> <path d="M5420 6201 c-7 -15 -7 -21 0 -21 12 0 25 28 17 36 -3 3 -10 -4 -17 -15z"/> <path d="M3841 6200 c-17 -10 -7 -40 14 -40 8 0 15 9 15 19 0 24 -12 32 -29 21z"/> <path d="M4537 6203 c-10 -10 -8 -43 2 -43 23 0 41 14 41 31 0 19 -29 27 -43 12z"/> <path d="M3380 6188 c0 -7 5 -20 10 -28 8 -12 10 -9 10 13 0 15 -4 27 -10 27 -5 0 -10 -6 -10 -12z"/> <path d="M3924 6171 c-4 -17 -11 -34 -15 -37 -12 -7 -12 -44 0 -44 5 0 11 9 14 21 5 19 7 18 39 -13 30 -30 32 -36 23 -65 -5 -18 -15 -33 -22 -33 -14 0 -27 36 -18 50 3 5 3 15 -1 22 -5 7 -11 5 -21 -8 -13 -18 -15 -18 -27 -1 -16 21 -36 22 -36 2 0 -8 6 -15 14 -15 8 0 18 -9 21 -20 3 -11 12 -20 20 -20 7 0 19 -16 25 -35 12 -36 27 -44 48 -23 9 9 12 6 12 -14 0 -14 7 -31 15 -38 8 -7 15 -21 15 -31 0 -10 9 -23 20 -29 11 -6 20 -15 20 -21 0 -6 -9 -13 -20 -16 -26 -7 -26 -19 1 -26 20 -5 20 -7 4 -37 -16 -30 -19 -80 -16 -217 1 -23 8 -48 16 -57 8 -8 15 -21 15 -28 0 -15 19 -38 32 -38 4 0 8 9 8 20 0 11 5 20 10 20 19 0 31 49 18 70 -10 15 -9 22 5 38 22 24 24 138 2 161 -11 14 -12 32 -5 101 7 72 6 88 -8 103 -14 16 -17 16 -32 2 -16 -15 -19 -13 -39 19 -12 19 -27 36 -34 39 -9 3 -9 7 -1 18 7 8 8 23 4 34 -4 11 -1 37 7 59 16 48 11 69 -23 84 -20 10 -26 9 -30 -3 -8 -19 -24 -20 -24 -1 0 7 -7 19 -15 26 -13 11 -16 8 -21 -19z m86 -41 c0 -5 -7 -10 -15 -10 -8 0 -15 5 -15 10 0 6 7 10 15 10 8 0 15 -4 15 -10z"/> <path d="M5743 6193 c-16 -3 -23 -11 -23 -29 0 -13 -4 -24 -9 -24 -14 0 -80 -44 -81 -52 -1 -20 51 -5 80 22 18 17 37 30 44 30 18 0 36 21 36 42 0 18 -5 19 -47 11z"/> <path d="M2023 6164 c-8 -22 18 -37 36 -20 7 8 10 19 7 25 -10 16 -36 13 -43 -5z"/> <path d="M3768 6148 c-11 -16 -14 -29 -8 -33 6 -3 10 -17 10 -29 0 -13 7 -29 15 -36 8 -7 15 -16 15 -21 0 -11 72 -89 83 -89 13 0 7 37 -8 50 -8 7 -15 18 -15 25 0 7 -7 18 -15 25 -16 13 -20 45 -7 53 4 2 2 3 -5 1 -16 -4 -41 27 -45 56 l-3 24 -17 -26z"/> <path d="M5355 6159 c-4 -6 -4 -13 -1 -16 8 -8 36 5 36 17 0 13 -27 13 -35 -1z"/> <path d="M5293 6124 c-25 -26 -31 -74 -10 -74 10 1 57 78 57 95 0 13 -27 1 -47 -21z"/> <path d="M2670 6131 c0 -19 161 -161 182 -161 5 0 3 10 -4 22 -19 32 -41 58 -50 58 -11 0 -48 38 -48 50 0 6 -7 10 -15 10 -9 0 -18 7 -21 15 -7 16 -44 21 -44 6z"/> <path d="M3160 6131 c0 -12 29 -35 36 -28 11 10 -5 37 -21 37 -8 0 -15 -4 -15 -9z"/> <path d="M5030 6116 c0 -14 5 -26 10 -26 6 0 10 7 10 15 0 8 0 18 1 22 0 4 -4 9 -10 11 -6 2 -11 -8 -11 -22z"/> <path d="M3013 6112 c10 -10 17 -26 17 -35 0 -9 5 -17 10 -17 16 0 12 37 -6 54 -22 22 -41 20 -21 -2z"/> <path d="M4550 6105 c0 -16 6 -25 15 -25 9 0 15 9 15 25 0 16 -6 25 -15 25 -9 0 -15 -9 -15 -25z"/> <path d="M3680 6103 c0 -20 75 -95 84 -86 11 11 6 33 -7 33 -7 0 -21 16 -31 35 -20 37 -46 47 -46 18z"/> <path d="M2610 6076 c0 -14 4 -27 9 -30 5 -3 7 -15 4 -26 -5 -17 0 -20 33 -20 l38 0 -32 33 c-18 18 -32 38 -32 44 0 7 -4 15 -10 18 -6 3 -10 -5 -10 -19z"/> <path d="M3386 6064 c-10 -27 -7 -41 12 -48 9 -3 22 -8 28 -11 6 -3 14 3 17 15 3 11 1 18 -4 14 -5 -3 -9 4 -9 14 0 11 -7 23 -16 26 -21 8 -21 8 -28 -10z"/> <path d="M3540 6060 c0 -5 7 -10 14 -10 8 0 27 -11 42 -25 33 -30 54 -32 54 -4 0 13 -11 25 -35 35 -40 16 -75 18 -75 4z"/> <path d="M4520 6026 c0 -27 4 -36 16 -36 13 0 15 -7 11 -35 -6 -35 10 -94 28 -107 25 -18 30 -4 30 78 0 74 2 87 19 96 14 8 16 12 6 18 -19 11 -37 2 -43 -22 -7 -26 -30 -19 -37 12 -9 39 -30 36 -30 -4z"/> <path d="M4710 6050 c0 -5 -10 -19 -22 -30 -19 -18 -20 -22 -8 -30 8 -5 18 -10 22 -10 10 0 37 63 31 73 -6 10 -23 9 -23 -3z"/> <path d="M5538 6051 c-9 -3 -26 -19 -38 -34 l-22 -28 26 -24 26 -24 6 27 c3 15 10 37 16 49 13 27 7 42 -14 34z"/> <path d="M3112 6034 c4 -21 22 -23 26 -1 2 10 -3 17 -13 17 -10 0 -15 -6 -13 -16z"/> <path d="M3260 6035 c7 -8 16 -12 21 -9 13 8 1 24 -18 24 -13 0 -13 -3 -3 -15z"/> <path d="M5102 6009 c-21 -21 -31 -38 -27 -49 4 -12 -1 -19 -15 -23 -23 -6 -27 -32 -5 -41 22 -8 18 -25 -9 -35 -26 -10 -44 -67 -26 -85 5 -5 10 -19 10 -31 0 -12 4 -25 10 -31 6 -6 6 -21 1 -41 -7 -24 -6 -35 5 -44 8 -6 14 -24 14 -39 0 -38 7 -41 46 -18 37 22 42 39 19 58 -9 8 -13 21 -9 36 3 13 -2 37 -11 56 -10 18 -22 41 -27 51 -14 29 39 125 79 142 22 9 33 21 33 34 0 27 -18 36 -38 18 -9 -8 -23 -12 -29 -10 -20 7 -15 31 7 43 19 10 28 40 12 40 -5 0 -23 -14 -40 -31z"/> <path d="M5340 6033 c0 -7 -48 -62 -117 -135 -15 -16 -30 -28 -35 -28 -4 0 -8 -11 -8 -25 0 -30 20 -33 27 -5 3 12 23 30 45 41 21 11 43 30 49 42 5 12 17 36 27 52 25 42 33 65 22 65 -6 0 -10 -3 -10 -7z"/> <path d="M3470 6006 c0 -10 9 -16 21 -16 24 0 21 23 -4 28 -10 2 -17 -3 -17 -12z"/> <path d="M4090 6011 c0 -6 6 -11 12 -11 7 0 27 -17 45 -37 18 -20 33 -32 33 -26 0 19 -34 73 -47 73 -6 0 -18 3 -27 6 -9 3 -16 1 -16 -5z"/> <path d="M4393 5995 c-6 -14 -7 -27 -2 -31 17 -10 9 -34 -11 -34 -11 0 -20 5 -20 10 0 19 -31 10 -55 -16 -26 -28 -32 -58 -15 -69 6 -3 15 6 20 20 16 42 35 25 35 -31 0 -39 3 -48 15 -44 8 2 36 5 63 5 53 2 81 25 70 60 -12 42 -43 41 -43 -2 l0 -25 -25 23 c-26 26 -33 59 -12 59 7 0 18 -5 25 -12 9 -9 12 -5 12 19 0 23 -6 33 -21 38 -16 5 -18 10 -9 20 11 14 6 35 -8 35 -4 0 -12 -11 -19 -25z"/> <path d="M2700 5981 c0 -16 30 -61 41 -61 17 0 9 27 -16 50 -14 13 -25 18 -25 11z"/> <path d="M3173 5963 c-22 -8 -14 -33 10 -33 30 0 40 10 26 27 -12 14 -16 15 -36 6z"/> <path d="M3420 5949 c0 -6 24 -35 54 -63 30 -28 56 -60 58 -71 2 -11 12 -21 23 -23 10 -3 43 -23 73 -46 94 -72 157 -116 166 -116 5 0 19 -11 32 -25 13 -14 33 -25 45 -25 l23 0 -22 20 c-12 12 -22 27 -22 35 0 8 -7 15 -15 15 -8 0 -15 7 -15 16 0 9 -9 18 -20 21 -11 3 -20 9 -20 14 0 5 -11 15 -25 21 -31 14 -32 24 -4 31 20 5 18 9 -21 46 -24 22 -50 43 -60 46 -9 3 -23 17 -30 30 -7 14 -18 25 -23 25 -5 0 -22 14 -37 30 -28 30 -63 39 -75 19 -4 -6 2 -13 13 -16 11 -2 34 -22 52 -44 26 -33 29 -40 15 -45 -18 -7 -55 22 -55 43 0 7 -7 13 -15 13 -7 0 -18 6 -22 14 -12 20 -73 49 -73 35z m230 -123 c0 -8 7 -17 16 -20 8 -3 12 -11 9 -16 -4 -7 -16 -2 -31 12 -27 27 -30 38 -9 38 8 0 15 -6 15 -14z"/> <path d="M3326 5933 l-28 -15 28 -24 c16 -13 33 -23 38 -24 5 0 14 -7 20 -16 7 -8 18 -12 28 -9 14 6 13 9 -7 31 -12 13 -30 24 -39 24 -19 0 -22 36 -3 43 6 3 8 5 2 5 -5 0 -23 -7 -39 -15z"/> <path d="M4722 5938 c6 -18 28 -21 28 -4 0 9 -7 16 -16 16 -9 0 -14 -5 -12 -12z"/> <path d="M5414 5934 c3 -9 6 -18 6 -20 0 -2 5 -4 10 -4 6 0 10 9 10 20 0 12 -7 20 -16 20 -11 0 -14 -5 -10 -16z"/> <path d="M3645 5920 c-7 -12 2 -30 16 -30 5 0 18 -9 29 -20 22 -22 40 -26 40 -9 0 11 -60 69 -72 69 -4 0 -10 -4 -13 -10z"/> <path d="M3185 5890 c-8 -12 20 -24 35 -15 6 3 8 11 5 16 -8 12 -32 12 -40 -1z"/> <path d="M5377 5882 c-16 -18 -23 -42 -12 -42 15 0 55 34 55 46 0 20 -24 17 -43 -4z"/> <path d="M2995 5871 c-6 -20 19 -71 35 -71 4 0 13 7 20 15 11 13 10 20 -7 42 -25 35 -40 39 -48 14z"/> <path d="M5780 5866 c0 -17 27 -29 35 -16 4 6 3 15 0 20 -9 15 -35 12 -35 -4z"/> <path d="M2234 5839 c-3 -6 -3 -32 1 -59 11 -81 1 -92 -115 -127 -27 -8 11 -23 60 -23 25 0 56 -7 70 -15 14 -8 39 -14 57 -15 44 0 63 -9 63 -30 0 -11 17 -25 48 -38 26 -12 54 -27 64 -34 13 -9 25 -9 60 2 23 7 47 17 52 21 4 4 -19 20 -53 35 -34 16 -61 34 -61 41 0 7 -8 13 -18 13 -26 0 -94 35 -116 59 -11 12 -25 21 -33 21 -26 0 -13 29 14 32 36 4 41 31 8 48 -29 15 -33 35 -8 44 12 5 14 9 5 18 -15 15 -90 20 -98 7z"/> <path d="M3306 5831 c-3 -5 1 -12 10 -15 21 -8 56 3 49 15 -8 12 -52 12 -59 0z"/> <path d="M4670 5825 c-7 -8 -27 -15 -45 -15 -18 0 -39 -8 -48 -18 -21 -23 -22 -39 -2 -22 12 10 18 8 35 -11 25 -31 25 -55 0 -62 -26 -7 -26 -34 1 -42 14 -5 18 -12 14 -23 -20 -48 -35 -127 -30 -153 4 -16 2 -29 -3 -29 -8 0 -32 -42 -32 -56 0 -10 45 9 56 24 9 13 12 13 17 -2 4 -10 1 -19 -8 -22 -18 -7 -20 -64 -2 -64 6 0 23 3 36 7 23 6 23 6 16 109 -5 73 -4 104 4 104 15 0 14 40 -2 81 -17 41 -11 128 9 136 15 6 18 41 5 61 -6 10 -10 10 -21 -3z"/> <path d="M5610 5825 c0 -9 5 -15 11 -13 6 2 11 8 11 13 0 5 -5 11 -11 13 -6 2 -11 -4 -11 -13z"/> <path d="M5473 5782 c-13 -9 -26 -32 -29 -49 -5 -28 -11 -33 -35 -33 -32 0 -48 -18 -28 -31 25 -15 76 -10 103 12 32 25 33 35 4 43 l-23 7 23 16 c12 8 22 24 22 34 0 23 -9 24 -37 1z"/> <path d="M2806 5773 c-3 -4 6 -17 20 -30 34 -32 83 -18 84 24 0 12 -93 17 -104 6z"/> <path d="M4445 5763 c4 -10 10 -37 12 -60 5 -35 3 -43 -11 -43 -9 0 -16 7 -16 15 0 24 -28 17 -46 -10 -15 -23 -15 -33 -5 -83 25 -112 46 -131 77 -67 9 19 24 35 33 35 25 0 51 36 51 72 0 29 -1 30 -17 16 -10 -8 -26 -18 -36 -22 -11 -3 -21 -15 -24 -26 -7 -28 -32 -25 -43 6 -13 34 -14 32 16 36 24 3 34 15 64 79 10 22 9 30 -6 48 -23 26 -60 29 -49 4z"/> <path d="M5870 5764 c0 -9 7 -14 17 -12 25 5 28 28 4 28 -12 0 -21 -6 -21 -16z"/> <path d="M1864 5718 c-43 -28 -122 -74 -174 -101 -52 -27 -106 -59 -120 -72 -14 -13 -47 -34 -75 -47 -49 -23 -75 -39 -205 -123 -36 -23 -88 -55 -117 -70 -60 -33 -162 -141 -194 -208 -22 -44 -22 -49 -9 -149 16 -130 16 -124 7 -178 -5 -25 -4 -70 0 -100 l8 -55 50 -6 c28 -3 58 -9 68 -13 22 -10 70 1 61 15 -3 6 -16 8 -29 5 -27 -7 -39 3 -24 21 9 10 8 18 -3 31 -41 48 -52 198 -18 232 22 22 15 52 -15 64 -10 4 -15 19 -15 50 0 54 35 101 81 111 22 5 34 15 41 36 5 15 18 31 29 34 11 4 36 22 57 41 20 19 48 37 62 40 14 4 31 13 37 22 26 32 135 61 158 42 8 -6 19 -9 24 -5 6 3 23 -1 38 -8 21 -11 33 -12 51 -4 17 8 29 8 43 -1 28 -18 39 -15 39 12 0 14 13 38 31 55 32 33 36 66 6 66 -9 0 -16 5 -14 10 1 6 17 9 35 7 28 -3 33 0 30 15 -2 10 -12 19 -23 21 -48 9 -36 22 17 20 51 -2 59 1 78 24 11 15 36 32 55 38 40 13 52 40 35 80 -8 19 -9 34 -2 47 10 19 -1 53 -17 53 -4 0 -43 -23 -87 -52z m-279 -337 c3 -5 1 -13 -5 -16 -15 -9 -43 3 -35 15 8 13 32 13 40 1z"/> <path d="M3031 5746 c-14 -17 0 -29 22 -20 9 3 16 -3 20 -15 4 -16 13 -21 36 -21 41 0 39 16 -4 37 -19 9 -35 20 -35 25 0 13 -27 9 -39 -6z"/> <path d="M3790 5747 l-25 -10 23 -5 c26 -4 36 1 31 16 -3 6 -14 5 -29 -1z"/> <path d="M4702 5738 c2 -13 8 -23 13 -23 6 0 11 10 13 23 2 15 -2 22 -13 22 -11 0 -15 -7 -13 -22z"/> <path d="M5791 5728 c-18 -16 -30 -32 -27 -35 3 -4 16 3 29 15 13 12 29 22 35 22 7 0 12 4 12 9 0 21 -17 18 -49 -11z"/> <path d="M2760 5725 c0 -18 7 -26 26 -31 43 -11 49 11 10 34 l-36 21 0 -24z"/> <path d="M3167 5744 c-13 -13 5 -24 39 -24 24 0 34 4 32 13 -5 13 -60 22 -71 11z"/> <path d="M2660 5725 c-15 -18 -7 -29 28 -40 23 -7 23 -7 7 24 -18 36 -18 36 -35 16z"/> <path d="M2910 5720 c-11 -7 -12 -12 -3 -21 15 -15 66 -3 60 14 -5 16 -38 20 -57 7z"/> <path d="M3345 5705 c-12 -8 -38 -17 -59 -20 -48 -6 -49 -7 -32 -31 15 -19 15 -19 29 0 14 19 16 19 49 3 23 -11 58 -16 99 -15 74 1 109 12 109 32 0 15 -27 29 -40 21 -4 -3 -24 2 -44 10 -44 19 -85 18 -111 0z"/> <path d="M3580 5690 c32 -25 40 -25 40 0 0 16 -7 20 -32 20 l-33 0 25 -20z"/> <path d="M5838 5664 c-52 -62 -50 -74 11 -74 28 0 53 4 56 10 3 5 -4 23 -17 40 -19 26 -20 34 -10 50 22 36 -2 20 -40 -26z"/> <path d="M5627 5684 c-9 -10 2 -24 19 -24 8 0 14 7 14 15 0 15 -21 21 -33 9z"/> <path d="M2050 5650 c0 -5 9 -10 21 -10 11 0 17 5 14 10 -3 6 -13 10 -21 10 -8 0 -14 -4 -14 -10z"/> <path d="M2577 5654 c-12 -13 -8 -20 18 -32 35 -16 65 -15 65 2 0 8 -3 17 -7 19 -17 10 -69 17 -76 11z"/> <path d="M2757 5653 c-13 -12 -7 -23 13 -23 11 0 23 -7 26 -15 7 -17 38 -21 32 -4 -5 15 -64 50 -71 42z"/> <path d="M4740 5641 c-14 -26 4 -71 28 -71 20 0 75 -54 85 -83 4 -10 11 -15 17 -12 17 10 11 55 -11 86 -19 26 -19 30 -4 35 10 4 21 1 25 -7 5 -7 13 -10 17 -5 12 12 -36 46 -66 46 -14 0 -35 7 -45 15 -26 20 -33 19 -46 -4z"/> <path d="M2907 5624 c-8 -8 1 -24 14 -24 5 0 9 7 9 15 0 15 -12 20 -23 9z"/> <path d="M5315 5589 c-98 -16 -270 -117 -348 -203 -15 -17 -34 -38 -42 -47 -8 -9 -15 -21 -15 -27 0 -7 -4 -12 -9 -12 -5 0 -14 -12 -20 -27 -6 -16 -15 -35 -19 -43 -30 -51 -42 -82 -42 -107 0 -16 -5 -34 -11 -40 -19 -19 5 -285 27 -304 8 -6 14 -19 14 -28 1 -21 51 -79 56 -65 16 41 24 42 228 47 109 3 203 10 208 15 10 10 1 42 -12 42 -5 0 -22 19 -39 42 -23 31 -31 53 -31 84 0 30 -5 44 -16 48 -23 9 -26 4 -32 -56 -3 -41 -11 -60 -34 -84 -29 -31 -32 -32 -101 -27 -40 2 -84 10 -99 18 -14 7 -38 10 -52 8 -21 -4 -27 0 -42 33 -31 73 -25 167 18 304 14 43 33 76 55 98 18 18 33 34 33 36 0 3 18 23 40 45 22 22 40 45 40 51 0 5 8 10 19 10 10 0 26 11 35 25 9 14 29 28 44 31 15 4 43 16 63 26 28 14 42 16 62 9 25 -10 48 2 33 16 -11 11 16 33 41 33 16 0 27 -7 30 -20 3 -12 14 -20 27 -20 11 -1 31 -9 44 -20 l23 -19 -21 -21 c-11 -11 -20 -24 -20 -30 0 -19 19 -10 43 21 20 26 28 29 43 21 13 -7 26 -7 37 -1 14 8 17 6 17 -16 0 -26 14 -32 40 -15 10 6 30 -5 75 -44 33 -29 68 -55 77 -59 23 -8 14 -31 -26 -69 -24 -23 -37 -28 -58 -24 -66 13 -78 -21 -15 -46 52 -21 95 -18 135 10 51 37 69 25 53 -35 -6 -21 -13 -50 -16 -65 -3 -16 -12 -28 -21 -28 -12 0 -15 -11 -13 -54 2 -44 -3 -62 -27 -100 -27 -44 -32 -47 -64 -43 -48 5 -92 -8 -108 -34 -12 -18 -12 -23 0 -30 7 -5 20 -6 28 -3 26 10 110 14 110 6 0 -15 -25 -62 -33 -62 -4 0 -32 -18 -61 -40 -29 -22 -57 -40 -63 -40 -5 0 -18 -9 -28 -20 -10 -11 -42 -24 -74 -30 -31 -6 -69 -15 -86 -19 -62 -17 -233 -19 -310 -4 -27 5 -66 19 -85 30 -54 30 -70 34 -70 18 0 -8 7 -15 15 -15 9 0 18 -7 21 -15 4 -8 12 -15 19 -15 6 0 22 -9 35 -20 13 -11 36 -20 51 -20 15 0 31 -4 34 -10 8 -12 295 -14 295 -1 0 4 27 11 60 15 33 4 62 11 65 16 4 6 13 10 22 10 15 0 39 16 101 68 61 50 142 128 142 136 0 5 14 28 30 53 17 24 30 48 30 52 0 5 7 22 15 37 8 16 15 47 15 70 0 32 6 47 30 70 36 36 37 40 4 48 -24 6 -25 10 -20 41 4 22 3 35 -4 35 -5 0 -10 8 -10 19 0 10 -7 24 -15 31 -8 7 -15 23 -15 35 0 12 -7 28 -15 35 -8 7 -15 20 -15 30 0 10 -7 23 -15 30 -8 7 -15 19 -15 27 0 7 -7 16 -15 19 -8 4 -15 12 -15 20 0 8 -7 14 -16 14 -12 0 -15 6 -10 25 5 20 3 25 -13 25 -10 0 -21 6 -24 14 -4 9 -14 12 -26 9 -15 -4 -21 -1 -21 11 0 10 -9 16 -25 16 -14 0 -37 8 -51 17 -16 10 -51 18 -92 19 -37 2 -83 5 -102 7 -19 3 -58 1 -85 -4z"/> <path d="M2960 5560 c0 -5 12 -10 28 -10 21 0 24 2 12 10 -20 13 -40 13 -40 0z"/> <path d="M3038 5563 c-19 -5 -24 -28 -9 -38 5 -3 12 -1 16 5 11 17 30 11 41 -14 8 -16 8 -28 2 -34 -6 -6 -7 -15 -3 -22 5 -8 13 -7 31 4 31 21 84 21 84 1 0 -8 -6 -15 -14 -15 -22 0 -30 -19 -15 -36 9 -11 8 -18 -5 -33 -10 -10 -27 -21 -39 -24 -12 -3 -48 -14 -80 -26 -34 -13 -67 -19 -82 -15 -29 7 -33 -3 -8 -22 13 -9 22 -9 31 -2 18 16 25 3 12 -21 -16 -31 12 -38 46 -12 17 13 41 21 67 21 42 0 66 19 67 53 0 10 8 17 20 17 11 0 37 16 57 35 20 19 42 35 49 35 6 0 23 11 37 24 15 14 36 27 47 31 11 3 20 11 20 16 0 15 -33 10 -74 -10 -37 -19 -57 -19 -85 3 -20 16 -83 36 -113 36 -18 0 -28 5 -28 15 0 8 -9 19 -19 25 -20 10 -25 11 -53 3z"/> <path d="M5900 5530 c-24 -7 -23 -7 13 -15 40 -8 53 -3 42 14 -7 12 -18 12 -55 1z"/> <path d="M4780 5487 c0 -27 13 -36 26 -16 3 6 -1 18 -10 27 -15 15 -16 14 -16 -11z"/> <path d="M4497 5493 c-13 -22 -17 -72 -7 -78 16 -10 21 -2 27 44 4 26 2 41 -5 41 -6 0 -13 -3 -15 -7z"/> <path d="M2588 5471 c-20 -4 -48 -15 -63 -25 -15 -10 -33 -15 -41 -12 -16 6 -66 -14 -62 -25 6 -15 113 -80 141 -86 19 -4 37 -19 54 -44 21 -32 32 -39 57 -39 40 0 70 32 62 66 -4 13 -13 24 -22 24 -8 0 -17 7 -20 15 -4 8 -12 15 -20 15 -8 0 -14 5 -14 10 0 13 6 13 30 -2 22 -14 39 -3 22 14 -18 18 -14 36 8 43 25 8 27 45 2 45 -10 0 -23 -5 -30 -12 -9 -9 -16 -8 -30 5 -10 9 -23 16 -28 16 -5 -1 -25 -5 -46 -8z m48 -32 c10 -18 -11 -31 -40 -23 -36 9 -34 34 3 34 17 0 33 -5 37 -11z"/> <path d="M3635 5470 c-96 -8 -177 -31 -211 -61 -11 -11 -24 -19 -28 -19 -14 0 -131 -94 -179 -145 -26 -27 -61 -79 -78 -115 -17 -36 -35 -74 -42 -85 -11 -20 -21 -171 -19 -277 1 -74 41 -150 117 -222 76 -72 92 -86 102 -86 6 0 16 -7 23 -15 7 -8 20 -15 30 -15 10 0 23 -7 31 -16 11 -13 37 -15 177 -12 121 2 166 6 170 16 2 7 23 12 58 12 30 0 54 5 54 10 0 6 9 10 21 10 35 0 61 19 146 108 67 70 85 83 96 73 20 -16 44 -4 62 32 8 16 15 32 15 34 0 7 -45 -22 -57 -37 -21 -25 -15 20 8 55 10 17 22 37 25 45 3 8 13 29 20 47 21 47 21 252 0 294 -9 18 -16 42 -16 54 0 13 -7 28 -15 35 -8 7 -15 17 -15 22 0 43 -167 195 -232 212 -16 3 -28 11 -28 16 0 6 -15 10 -34 10 -18 0 -50 7 -69 15 -20 8 -38 14 -39 13 -2 -1 -43 -5 -93 -8z m78 -107 c4 -2 7 -13 7 -24 0 -14 -7 -19 -29 -19 -31 0 -49 -26 -32 -43 17 -17 86 4 86 25 0 21 3 22 29 12 13 -5 23 -2 31 9 15 21 36 22 29 2 -5 -12 2 -15 29 -15 25 0 45 -8 64 -26 41 -39 85 -64 111 -64 18 0 22 -6 22 -29 0 -34 -18 -51 -63 -60 -43 -9 -49 -43 -12 -77 35 -33 52 -30 72 10 8 19 26 39 38 44 38 18 55 -12 56 -97 1 -74 -13 -113 -26 -72 -3 12 -10 21 -15 21 -5 0 -15 3 -24 6 -20 8 -22 -21 -2 -33 22 -13 36 -49 36 -93 0 -39 -15 -69 -61 -125 -9 -11 -20 -34 -23 -51 -6 -25 -23 -41 -89 -84 -45 -29 -93 -61 -107 -70 -57 -38 -143 -59 -278 -66 -109 -6 -139 -4 -170 9 -20 8 -56 23 -79 33 -78 32 -59 80 28 70 26 -2 73 2 105 9 33 8 90 14 127 15 68 0 107 11 107 31 0 5 -19 30 -42 55 -31 33 -42 53 -40 71 2 13 -2 30 -8 38 -6 8 -15 45 -19 82 l-7 68 -8 -43 c-5 -29 -4 -48 3 -55 18 -18 12 -55 -11 -72 -21 -15 -22 -17 -5 -26 41 -24 13 -52 -63 -64 -57 -9 -93 -28 -118 -60 -27 -34 -42 -32 -42 6 0 28 -3 31 -26 26 -20 -4 -34 4 -65 36 -21 23 -39 47 -39 54 0 8 -9 26 -19 41 -25 34 -27 50 -17 137 7 70 49 199 72 222 6 7 22 32 33 57 23 46 47 64 65 46 7 -7 25 5 57 39 52 55 123 91 178 91 20 0 43 5 51 10 13 9 84 4 103 -7z"/> <path d="M3810 5015 c-7 -8 -17 -15 -23 -15 -29 0 -98 -44 -103 -66 -8 -31 10 -104 42 -171 13 -28 24 -61 24 -72 0 -35 22 -71 43 -71 11 0 38 8 59 17 31 14 38 21 34 38 -3 11 -6 28 -6 37 0 9 -12 23 -27 30 -27 13 -28 15 -24 83 2 39 8 76 14 84 9 10 7 16 -5 25 -13 9 -15 22 -11 54 6 45 3 51 -17 27z m-13 -151 c-9 -9 -28 6 -21 18 4 6 10 6 17 -1 6 -6 8 -13 4 -17z"/> <path d="M2960 5451 c13 -25 33 -28 28 -4 -2 10 -11 19 -21 21 -16 3 -17 1 -7 -17z"/> <path d="M2325 5440 c3 -5 15 -10 26 -10 11 0 17 5 14 10 -3 6 -15 10 -26 10 -11 0 -17 -4 -14 -10z"/> <path d="M6024 5436 c-3 -9 -3 -23 0 -32 5 -14 10 -14 39 5 41 26 41 35 -1 39 -22 2 -34 -2 -38 -12z"/> <path d="M5515 5410 c-12 -19 5 -28 30 -17 14 7 25 15 25 20 0 11 -48 9 -55 -3z"/> <path d="M4366 5378 c-18 -35 -14 -48 7 -27 19 19 28 47 17 54 -4 3 -16 -9 -24 -27z"/> <path d="M4440 5380 c0 -16 5 -21 23 -18 12 2 22 10 22 18 0 8 -10 16 -22 18 -18 3 -23 -2 -23 -18z"/> <path d="M2040 5372 c0 -11 7 -13 31 -8 17 3 38 6 47 6 32 0 2 11 -37 14 -31 2 -41 0 -41 -12z"/> <path d="M4163 5374 c-9 -25 13 -40 26 -16 10 19 6 32 -11 32 -5 0 -11 -7 -15 -16z"/> <path d="M1907 5356 c-7 -18 1 -26 25 -26 13 0 18 6 16 17 -4 22 -34 29 -41 9z"/> <path d="M4286 5353 c-3 -3 -6 -14 -6 -23 0 -9 -9 -25 -20 -35 -16 -14 -22 -15 -35 -5 -16 13 -45 7 -45 -10 0 -5 7 -10 15 -10 8 0 19 -9 25 -20 6 -11 15 -20 19 -20 5 0 11 9 14 20 3 11 10 20 16 20 14 0 14 -27 1 -35 -17 -10 -1 -25 26 -25 28 0 63 35 64 63 0 10 -11 22 -25 27 -15 6 -25 17 -25 29 0 21 -13 35 -24 24z"/> <path d="M4818 5336 c-10 -7 -18 -24 -18 -37 l0 -23 21 21 c26 26 23 59 -3 39z"/> <path d="M5925 5316 c-11 -17 -14 -35 -9 -66 7 -43 22 -57 50 -46 15 6 14 9 -6 31 -21 23 -22 25 -5 31 10 4 26 2 35 -4 36 -22 42 23 7 56 -30 28 -53 28 -72 -2z"/> <path d="M4661 5301 c-8 -5 -29 -7 -48 -4 -21 4 -33 2 -33 -6 0 -12 1 -12 68 -15 35 -2 42 1 42 16 0 20 -8 22 -29 9z"/> <path d="M6233 5294 c-9 -25 11 -38 38 -24 22 12 22 13 4 26 -24 18 -34 18 -42 -2z"/> <path d="M1905 5277 c-6 -22 9 -77 20 -77 4 0 15 5 26 11 22 11 19 37 -9 70 -21 25 -30 24 -37 -4z"/> <path d="M4392 5288 c6 -18 28 -21 28 -4 0 9 -7 16 -16 16 -9 0 -14 -5 -12 -12z"/> <path d="M4737 5240 c-4 -30 -10 -74 -13 -97 -6 -39 -4 -43 15 -43 19 0 21 5 19 37 -1 22 3 38 10 41 16 5 15 33 -2 57 -7 11 -15 29 -18 40 -2 11 -7 -5 -11 -35z"/> <path d="M1547 5261 c-66 -31 -71 -52 -19 -83 l27 -16 -28 -7 c-15 -4 -33 -5 -40 -2 -14 5 -45 -9 -37 -16 3 -3 45 -7 93 -8 86 -4 88 -3 83 18 -5 17 0 23 25 32 40 14 37 47 -4 44 -24 -2 -27 1 -21 19 4 13 1 24 -7 29 -19 12 -28 10 -72 -10z"/> <path d="M4466 5240 c-28 -18 -28 -18 -7 -29 17 -10 21 -9 21 3 0 8 10 22 22 30 32 23 0 19 -36 -4z"/> <path d="M4547 5233 c-12 -12 -7 -22 14 -28 18 -6 21 -13 16 -46 -5 -36 -2 -40 29 -60 28 -17 33 -25 28 -43 -9 -26 -45 -66 -61 -66 -21 0 -15 -48 7 -55 34 -11 60 12 60 51 0 19 4 33 9 30 12 -8 51 -83 51 -100 0 -13 23 -68 41 -96 5 -8 13 -25 19 -37 5 -13 14 -23 20 -23 5 0 10 -7 10 -15 0 -8 7 -15 15 -15 8 0 15 6 15 14 0 8 -7 16 -15 20 -8 3 -15 14 -15 24 0 11 -6 25 -14 31 -7 6 -16 36 -18 65 -3 40 -13 64 -36 97 -18 23 -32 54 -32 67 0 13 -7 30 -15 38 -8 9 -15 29 -15 46 0 59 -82 132 -113 101z"/> <path d="M2296 5214 c-9 -22 1 -34 29 -34 29 0 41 16 25 35 -16 20 -46 19 -54 -1z"/> <path d="M2962 5213 c-20 -3 -35 -11 -38 -21 -3 -9 -10 -25 -16 -36 -11 -21 3 -36 35 -36 9 0 17 -4 17 -10 0 -5 8 -10 18 -10 16 1 16 1 0 14 -10 7 -18 25 -18 40 0 22 4 26 29 26 34 0 51 18 30 31 -8 5 -16 8 -19 7 -3 -1 -20 -3 -38 -5z"/> <path d="M2031 5197 c-6 -9 -22 -12 -37 -9 -21 4 -25 1 -22 -14 3 -13 11 -18 26 -17 17 2 22 -2 22 -22 0 -27 10 -31 41 -15 16 9 17 15 9 31 -6 11 -9 23 -6 28 3 5 0 14 -8 20 -10 8 -16 8 -25 -2z"/> <path d="M2674 5188 c4 -13 8 -27 10 -33 5 -22 62 -75 79 -75 15 0 18 6 15 33 -3 28 0 32 22 35 14 2 32 12 39 24 19 30 1 38 -93 38 -77 0 -78 0 -72 -22z"/> <path d="M4276 5178 c-2 -7 -8 -29 -15 -49 -13 -42 -14 -96 -2 -103 14 -9 49 67 53 115 2 35 0 44 -15 47 -9 2 -19 -2 -21 -10z"/> <path d="M2242 5169 c2 -6 8 -10 13 -10 5 0 11 4 13 10 2 6 -4 11 -13 11 -9 0 -15 -5 -13 -11z"/> <path d="M4385 5167 c-4 -10 -5 -21 -1 -24 10 -10 18 4 13 24 -4 17 -4 17 -12 0z"/> <path d="M1820 5158 c0 -6 -7 -19 -16 -29 -9 -10 -13 -23 -9 -28 10 -17 22 -13 28 9 3 11 10 20 15 20 5 0 12 -9 15 -20 7 -26 43 -26 57 0 9 17 7 24 -12 40 -25 21 -78 27 -78 8z"/> <path d="M6035 5140 c-22 -25 -13 -50 19 -50 31 0 38 12 30 45 -7 30 -25 32 -49 5z"/> <path d="M6327 5126 c-4 -10 -5 -21 -2 -24 9 -9 17 6 13 25 -3 17 -4 17 -11 -1z"/> <path d="M2090 5117 c0 -30 50 -51 66 -26 8 14 -4 25 -38 33 -20 4 -28 2 -28 -7z"/> <path d="M2836 5121 c-4 -5 -2 -21 4 -35 8 -21 16 -26 44 -26 43 0 56 17 23 29 -13 5 -27 17 -30 25 -7 17 -32 22 -41 7z"/> <path d="M4350 5110 c0 -11 5 -20 10 -20 6 0 10 9 10 20 0 11 -4 20 -10 20 -5 0 -10 -9 -10 -20z"/> <path d="M2191 5111 c-7 -5 -10 -14 -7 -20 8 -13 46 3 46 19 0 12 -20 13 -39 1z"/> <path d="M5250 5091 c0 -38 9 -39 40 -6 19 20 20 25 8 25 -9 0 -23 3 -32 6 -13 5 -16 -1 -16 -25z"/> <path d="M2535 5090 c10 -11 26 -20 36 -20 10 0 23 9 29 20 10 19 8 20 -36 20 -46 0 -47 0 -29 -20z"/> <path d="M5490 5095 c-8 -2 -31 -6 -52 -10 -29 -4 -38 -12 -46 -35 -19 -53 25 -259 59 -281 17 -11 80 -1 96 15 21 20 0 90 -41 130 -30 31 -34 40 -26 56 6 11 17 20 25 20 24 0 49 59 36 86 -10 23 -17 26 -51 19z"/> <path d="M6287 5093 c-14 -14 -6 -36 24 -64 17 -16 33 -29 35 -29 11 0 2 51 -10 56 -8 3 -16 14 -19 25 -5 19 -18 25 -30 12z"/> <path d="M2251 5066 c-16 -17 -19 -25 -9 -28 17 -6 80 31 72 43 -10 16 -40 9 -63 -15z"/> <path d="M2474 5075 c-4 -9 -19 -15 -35 -15 -19 0 -29 -5 -29 -15 0 -9 9 -15 24 -15 13 0 29 7 36 15 7 8 19 15 26 15 8 0 14 7 14 15 0 8 -7 15 -15 15 -9 0 -18 -7 -21 -15z"/> <path d="M1818 5063 c-23 -6 -23 -16 0 -36 23 -21 42 -22 42 -3 0 20 -11 46 -19 45 -3 -1 -14 -3 -23 -6z"/> <path d="M2770 5051 c0 -11 -5 -23 -11 -27 -8 -5 -6 -10 5 -16 9 -5 16 -20 16 -32 0 -13 7 -26 15 -30 8 -3 15 -16 15 -30 0 -27 -15 -42 -25 -26 -11 18 -52 11 -58 -10 -3 -11 -16 -24 -30 -29 -27 -10 -56 -51 -37 -51 5 0 10 -7 10 -15 0 -8 -4 -15 -8 -15 -5 0 -17 -6 -27 -14 -19 -14 -19 -15 8 -27 20 -9 26 -17 21 -31 -3 -10 -1 -18 5 -18 6 0 11 8 11 19 0 10 6 24 14 30 8 7 22 27 31 46 9 19 30 42 47 51 28 15 33 14 64 -2 33 -18 33 -18 59 8 23 23 26 33 23 80 -3 46 -6 53 -25 56 -28 4 -30 -14 -3 -28 21 -11 27 -49 10 -66 -6 -6 -23 -9 -39 -6 -28 4 -29 5 -28 62 1 32 -4 68 -10 81 -6 13 -14 32 -17 42 -7 23 -36 22 -36 -2z"/> <path d="M1471 5053 c-67 -4 -73 -6 -68 -23 3 -11 1 -23 -4 -26 -20 -12 -7 -24 26 -24 40 0 128 -17 168 -32 20 -8 31 -8 39 0 8 8 4 14 -15 21 -15 6 -27 15 -27 21 0 5 -9 10 -19 10 -26 0 -37 18 -16 26 9 4 24 -1 35 -11 11 -10 26 -15 36 -11 14 5 13 9 -8 31 -14 15 -33 24 -48 23 -14 -1 -58 -4 -99 -5z"/> <path d="M1910 5050 c0 -5 8 -13 18 -19 19 -11 9 -27 -22 -33 -11 -1 -21 -9 -24 -15 -2 -9 10 -13 42 -13 50 0 56 11 36 64 -9 25 -50 38 -50 16z"/> <path d="M4737 5054 c-8 -8 1 -24 14 -24 5 0 9 7 9 15 0 15 -12 20 -23 9z"/> <path d="M6035 5052 c-12 -12 -3 -22 19 -22 38 0 39 -15 5 -45 l-32 -26 28 -30 c31 -31 45 -35 76 -19 18 10 18 13 4 46 -8 19 -12 41 -9 48 3 9 -3 17 -15 21 -12 3 -21 10 -21 15 0 9 -47 20 -55 12z"/> <path d="M2077 5023 c-28 -7 -9 -23 29 -23 35 0 46 13 18 24 -17 6 -19 6 -47 -1z"/> <path d="M2930 5005 c0 -23 3 -25 43 -24 25 1 32 4 18 6 -13 3 -26 13 -28 24 -8 28 -33 24 -33 -6z"/> <path d="M5960 5011 c0 -16 28 -20 47 -6 17 13 16 14 -14 15 -18 0 -33 -4 -33 -9z"/> <path d="M4457 4994 c-8 -8 1 -24 14 -24 5 0 9 7 9 15 0 15 -12 20 -23 9z"/> <path d="M4378 4977 c-21 -6 -38 -14 -38 -19 0 -5 -11 -26 -25 -48 -26 -40 -33 -80 -15 -80 6 0 10 9 10 19 0 25 16 36 24 16 7 -20 25 -19 33 1 3 9 16 27 28 40 16 18 24 21 33 12 9 -9 15 -9 24 0 9 9 7 13 -5 18 -9 3 -17 17 -17 30 0 13 -3 23 -7 23 -5 -1 -25 -6 -45 -12z"/> <path d="M1760 4961 c0 -19 6 -21 55 -21 42 0 55 3 55 15 0 8 -8 15 -17 15 -10 0 -35 3 -55 6 -34 6 -38 4 -38 -15z"/> <path d="M2267 4963 c-13 -12 -7 -23 13 -23 11 0 20 7 20 15 0 15 -21 21 -33 8z"/> <path d="M2330 4955 c0 -10 7 -15 18 -13 21 4 19 22 -2 26 -10 2 -16 -3 -16 -13z"/> <path d="M1962 4946 c-30 -14 -23 -29 20 -41 20 -5 40 -13 44 -17 4 -5 13 -8 21 -8 25 0 13 25 -25 50 -30 21 -41 24 -60 16z"/> <path d="M2544 4945 c-8 -20 4 -35 26 -35 28 0 35 19 14 35 -24 18 -33 18 -40 0z"/> <path d="M3003 4933 c-8 -3 -13 -22 -13 -45 0 -35 2 -39 23 -36 17 2 23 10 25 39 3 37 -9 51 -35 42z"/> <path d="M1346 4921 c-5 -8 51 -41 68 -41 3 0 33 -18 66 -41 57 -39 62 -40 83 -25 57 40 59 43 47 66 -9 16 -16 19 -33 13 -12 -4 -38 -7 -57 -8 -30 0 -35 3 -33 23 3 21 -1 22 -67 22 -38 0 -71 -4 -74 -9z"/> <path d="M5961 4913 c7 -10 15 -20 16 -22 2 -2 3 5 3 17 0 14 -6 22 -16 22 -14 0 -15 -3 -3 -17z"/> <path d="M6175 4890 c3 -5 17 -10 31 -10 13 0 24 5 24 10 0 6 -14 10 -31 10 -17 0 -28 -4 -24 -10z"/> <path d="M6311 4871 c12 -33 54 -60 70 -44 14 14 -36 73 -61 73 -16 0 -18 -4 -9 -29z"/> <path d="M2312 4883 c-23 -5 -47 -37 -37 -53 7 -11 74 31 75 48 0 6 -3 11 -7 11 -5 -1 -18 -4 -31 -6z"/> <path d="M4585 4880 c-9 -15 4 -30 26 -30 25 0 25 16 0 30 -13 7 -22 7 -26 0z"/> <path d="M6083 4883 c-18 -7 -16 -23 2 -23 43 0 75 -82 36 -93 -10 -2 -20 -16 -23 -30 -7 -36 2 -87 16 -87 21 0 65 66 59 89 -5 19 -1 21 31 21 44 0 47 17 6 31 -16 6 -32 20 -36 32 -7 25 -51 67 -68 66 -6 0 -17 -3 -23 -6z"/> <path d="M1735 4870 c-14 -22 8 -32 57 -26 37 5 52 3 64 -9 9 -8 25 -15 38 -15 12 0 27 -5 34 -12 15 -15 116 -11 158 7 18 7 35 11 38 8 2 -3 11 -1 18 3 25 16 -64 22 -121 8 -84 -20 -103 -18 -99 9 3 21 1 22 -70 19 -40 -1 -81 2 -92 8 -12 7 -21 7 -25 0z"/> <path d="M2190 4855 c-7 -9 -9 -19 -5 -23 4 -4 10 -1 12 6 3 6 11 12 18 12 8 0 17 5 20 10 10 16 -31 11 -45 -5z"/> <path d="M1775 4819 c-10 -15 1 -23 20 -15 9 3 13 10 10 16 -8 13 -22 13 -30 -1z"/> <path d="M2573 4818 c-6 -7 -13 -21 -16 -30 -6 -16 -4 -16 28 -1 27 13 32 19 24 30 -14 16 -24 17 -36 1z"/> <path d="M4605 4818 c-2 -7 -1 -29 3 -48 6 -26 14 -36 30 -38 23 -4 29 7 13 24 -5 5 -11 22 -13 38 -3 31 -25 47 -33 24z"/> <path d="M2878 4803 c-10 -2 -18 -10 -18 -18 0 -7 -7 -18 -15 -25 -14 -12 -14 -15 1 -32 18 -19 17 -23 -17 -90 -15 -29 -11 -38 16 -38 29 0 60 41 52 70 -3 10 1 24 9 31 8 6 14 17 14 24 0 7 10 19 22 27 12 8 18 19 14 26 -11 19 -24 14 -38 -15 -13 -27 -38 -43 -38 -24 0 6 7 11 15 11 8 0 15 6 15 14 0 8 3 21 6 30 6 16 -3 18 -38 9z"/> <path d="M5952 4793 c2 -11 14 -19 33 -21 30 -4 30 -4 11 17 -23 26 -49 28 -44 4z"/> <path d="M1380 4788 c0 -15 57 -41 71 -32 19 11 8 34 -15 34 -13 0 -31 3 -40 6 -10 4 -16 1 -16 -8z"/> <path d="M6350 4785 c-7 -8 -25 -15 -41 -15 -15 0 -30 -4 -33 -9 -8 -12 58 -61 83 -61 17 0 19 5 16 46 -5 54 -8 60 -25 39z"/> <path d="M2113 4773 c9 -9 20 -13 24 -9 4 4 1 11 -7 16 -25 16 -35 11 -17 -7z"/> <path d="M2333 4783 c-13 -2 -23 -11 -23 -19 0 -10 5 -12 13 -7 6 4 27 8 46 8 19 0 36 6 38 13 5 12 -26 14 -74 5z"/> <path d="M5873 4783 c-20 -7 -15 -23 7 -23 11 0 20 4 20 9 0 13 -12 19 -27 14z"/> <path d="M2420 4751 c0 -11 -9 -23 -21 -26 -11 -4 -24 -18 -29 -31 -5 -13 -15 -24 -22 -24 -7 0 -18 -12 -25 -26 -10 -21 -10 -25 2 -20 7 2 30 8 51 12 24 4 38 13 41 25 6 23 19 24 31 3 6 -11 17 -15 29 -12 16 4 19 1 16 -13 -4 -13 3 -22 21 -30 15 -7 25 -17 23 -23 -4 -13 -59 -8 -68 5 -3 6 -22 12 -42 16 -31 5 -37 3 -37 -12 0 -14 6 -16 28 -12 32 6 58 -5 48 -22 -4 -6 -16 -11 -26 -11 -25 0 -36 -20 -19 -31 18 -12 59 -2 84 21 11 10 34 21 50 24 37 8 89 52 79 67 -4 6 -19 8 -37 5 -23 -5 -33 -2 -44 14 -8 11 -23 20 -34 20 -14 0 -19 7 -19 28 -1 15 -9 37 -19 50 -24 28 -61 30 -61 3z m53 -28 c8 -7 -23 -32 -40 -33 -7 0 -13 9 -13 20 0 14 7 20 23 20 13 0 27 -3 30 -7z"/> <path d="M1577 4746 c-5 -11 -20 -16 -50 -16 -61 0 -64 -10 -11 -37 74 -37 104 -30 119 30 6 21 4 27 -8 27 -8 0 -22 3 -30 6 -8 3 -17 -2 -20 -10z"/> <path d="M1960 4750 c-11 -7 -4 -10 25 -10 29 0 36 3 25 10 -8 5 -19 10 -25 10 -5 0 -17 -5 -25 -10z"/> <path d="M2182 4751 c-10 -6 -6 -10 14 -14 32 -6 56 1 48 14 -7 11 -45 11 -62 0z"/> <path d="M1277 4733 c-13 -12 -7 -23 13 -23 13 0 18 5 14 15 -7 16 -17 19 -27 8z"/> <path d="M1774 4728 c-9 -14 23 -38 53 -38 28 0 31 25 4 40 -26 13 -48 13 -57 -2z"/> <path d="M2296 4719 c-9 -11 -16 -24 -16 -29 0 -15 17 -12 23 4 3 8 15 16 27 18 20 3 20 3 2 15 -16 9 -22 8 -36 -8z"/> <path d="M2755 4707 c-4 -12 -15 -27 -27 -32 -29 -14 -28 -29 2 -33 20 -2 29 5 44 32 17 33 16 56 -4 56 -5 0 -12 -10 -15 -23z"/> <path d="M1330 4711 c0 -31 126 -88 147 -67 9 9 -39 46 -70 52 -15 4 -30 11 -33 15 -7 12 -44 12 -44 0z"/> <path d="M2083 4707 c15 -6 27 -14 27 -19 0 -4 9 -8 20 -8 18 0 19 3 10 20 -8 15 -20 20 -48 19 l-37 -1 28 -11z"/> <path d="M4672 4670 c-13 -28 -11 -32 20 -70 19 -23 42 -39 53 -39 18 0 18 1 -2 9 -26 11 -30 35 -7 44 21 8 10 22 -25 29 -24 5 -28 10 -24 31 7 34 1 33 -15 -4z"/> <path d="M5795 4689 c-10 -15 3 -25 16 -12 7 7 7 13 1 17 -6 3 -14 1 -17 -5z"/> <path d="M4455 4670 c-10 -11 -15 -20 -11 -20 11 0 39 30 34 36 -3 2 -13 -5 -23 -16z"/> <path d="M4850 4660 c0 -6 7 -22 16 -35 20 -31 14 -49 -23 -67 -36 -17 -38 -36 -8 -73 20 -25 33 -30 87 -36 35 -3 64 -5 66 -4 4 3 -32 70 -42 77 -7 5 -4 12 9 22 19 14 19 15 -9 37 -42 33 -76 69 -76 79 0 6 -4 10 -10 10 -5 0 -10 -5 -10 -10z"/> <path d="M2048 4646 c-27 -20 -22 -28 14 -24 22 2 34 9 36 21 4 21 -25 23 -50 3z"/> <path d="M4290 4650 c0 -5 5 -10 10 -10 6 0 10 -6 10 -13 0 -21 -41 -34 -87 -27 -37 5 -46 3 -65 -17 -21 -23 -21 -24 -4 -78 l17 -56 37 7 c67 12 121 69 93 97 -17 17 -14 21 24 41 41 23 45 43 9 56 -32 13 -44 13 -44 0z"/> <path d="M5735 4635 c-26 -21 -27 -24 -10 -25 11 0 30 -3 43 -6 19 -6 22 -3 22 25 0 38 -15 39 -55 6z"/> <path d="M6255 4636 c-28 -23 -29 -25 -10 -31 11 -4 28 -11 37 -16 10 -5 25 -9 34 -9 9 0 23 -8 30 -17 19 -27 42 -2 26 29 -6 13 -12 32 -14 43 -5 31 -65 32 -103 1z"/> <path d="M6057 4643 c-13 -12 -7 -33 8 -33 24 0 65 -52 54 -67 -7 -7 -6 -14 1 -18 13 -8 31 3 29 18 -1 7 2 21 6 31 10 23 -20 49 -46 41 -11 -4 -18 1 -22 15 -5 20 -18 26 -30 13z"/> <path d="M1828 4602 c-46 -33 -47 -42 -8 -42 25 0 30 4 30 25 0 20 5 25 24 25 14 0 28 -4 31 -10 3 -5 20 -10 36 -10 24 0 30 4 27 18 -2 13 -15 18 -53 19 -41 2 -57 -2 -87 -25z"/> <path d="M4404 4605 c-4 -8 -18 -15 -33 -15 -15 0 -31 -3 -34 -7 -10 -9 13 -33 31 -33 16 0 62 45 62 61 0 15 -20 10 -26 -6z"/> <path d="M1253 4603 c-18 -2 -33 -8 -33 -12 0 -24 112 -43 125 -21 3 6 0 10 -8 10 -8 0 -20 7 -27 15 -7 8 -15 14 -19 13 -3 0 -21 -3 -38 -5z"/> <path d="M1488 4593 c-42 -50 -27 -63 74 -63 59 0 108 13 108 28 0 14 -99 52 -135 52 -18 0 -38 -8 -47 -17z"/> <path d="M2997 4604 c-15 -15 -6 -24 24 -24 20 0 29 4 27 13 -5 14 -40 21 -51 11z"/> <path d="M4780 4590 c0 -5 9 -10 20 -10 11 0 20 5 20 10 0 6 -9 10 -20 10 -11 0 -20 -4 -20 -10z"/> <path d="M5670 4590 c0 -6 -10 -15 -22 -20 -13 -6 -30 -14 -38 -19 -27 -17 -88 -41 -102 -41 -8 0 -19 -5 -26 -12 -8 -8 -65 -12 -186 -12 -152 -1 -176 1 -193 17 -24 21 -73 23 -73 2 0 -8 4 -15 9 -15 5 0 17 -8 26 -17 19 -18 104 -30 287 -39 89 -5 110 -3 132 11 27 18 28 17 30 -22 2 -39 21 -30 24 11 2 28 9 40 23 43 10 3 19 9 19 14 0 5 7 9 15 9 21 0 75 41 75 56 0 6 7 14 15 18 8 3 15 10 15 16 0 5 -7 10 -15 10 -8 0 -15 -5 -15 -10z"/> <path d="M995 4538 c24 -157 53 -273 103 -404 40 -106 55 -189 43 -244 -16 -76 -14 -131 9 -168 25 -41 53 -52 134 -50 73 1 110 -16 119 -54 7 -28 52 -150 74 -198 24 -54 51 -78 105 -91 79 -21 85 -57 22 -135 -19 -22 -40 -56 -48 -75 -8 -19 -49 -68 -91 -109 -42 -41 -87 -91 -100 -111 -12 -19 -64 -81 -114 -137 -78 -87 -162 -202 -184 -252 -4 -8 -31 -50 -61 -93 -58 -84 -154 -312 -195 -462 -27 -101 -51 -312 -44 -390 4 -52 -1 -79 -40 -200 -58 -182 -132 -558 -167 -845 -4 -36 -12 -99 -18 -140 -6 -41 -19 -131 -27 -199 -9 -68 -23 -137 -31 -153 l-15 -28 61 0 60 0 0 31 c0 17 5 39 10 49 6 11 13 53 17 95 3 42 10 78 14 81 5 3 9 29 9 57 0 29 6 86 14 127 8 41 22 129 31 195 15 116 44 267 67 350 6 22 10 64 9 94 -2 29 2 65 7 80 5 14 15 51 22 81 7 30 19 62 27 71 7 9 12 31 11 49 -1 20 3 35 10 38 6 2 12 20 12 40 0 21 4 44 10 52 5 9 5 19 -1 27 -7 8 -7 19 1 33 7 13 9 37 5 60 -4 22 -2 47 5 59 6 12 11 42 11 69 0 26 5 61 9 77 5 17 16 66 25 110 9 44 27 104 40 134 14 29 25 57 25 62 0 4 18 45 40 91 22 46 40 88 40 94 0 6 9 19 20 29 11 10 20 23 20 30 0 7 9 20 20 30 19 17 76 109 92 148 4 10 20 28 34 40 60 49 84 80 84 107 0 16 5 32 10 35 6 3 10 12 10 20 0 22 57 73 106 94 11 5 27 23 34 40 7 17 19 31 27 31 23 0 85 76 113 139 6 13 24 39 40 57 45 52 56 121 32 209 -16 55 -37 82 -71 90 -40 9 -54 28 -56 78 -2 49 -41 112 -86 139 -16 10 -28 22 -25 27 3 5 -1 14 -9 21 -8 7 -15 23 -15 36 0 14 -6 24 -14 24 -7 0 -19 7 -27 16 -9 11 -22 14 -43 10 -25 -5 -35 0 -71 37 l-42 44 -6 100 c-5 70 -14 115 -29 149 -19 44 -23 62 -31 129 -1 11 -10 31 -19 45 -10 13 -18 36 -18 51 0 14 -3 28 -6 32 -14 13 -13 106 2 118 8 6 14 20 14 29 0 10 5 20 12 22 23 8 -4 28 -36 28 -18 0 -45 9 -59 20 -14 11 -37 20 -52 20 -26 0 -27 -1 -20 -42z"/> <path d="M2813 4563 c2 -10 -5 -33 -16 -51 -11 -18 -16 -36 -12 -40 4 -4 10 -1 12 6 3 6 13 12 23 12 10 0 26 12 35 27 17 25 17 27 -6 44 -30 23 -42 24 -36 2z"/> <path d="M4617 4564 c-11 -11 -8 -44 3 -44 15 0 24 30 13 41 -5 5 -12 6 -16 3z"/> <path d="M6032 4553 c2 -10 11 -19 21 -21 23 -5 21 10 -4 26 -18 12 -20 11 -17 -5z"/> <path d="M2695 4550 c-8 -13 4 -32 16 -25 12 8 12 35 0 35 -6 0 -13 -4 -16 -10z"/> <path d="M1890 4536 c0 -9 40 -13 46 -5 3 5 -6 9 -20 9 -14 0 -26 -2 -26 -4z"/> <path d="M3116 4532 c-2 -4 -2 -19 1 -34 4 -19 14 -30 36 -37 37 -13 37 -13 37 -1 0 13 -69 80 -74 72z"/> <path d="M2080 4512 c0 -12 34 -22 73 -22 19 0 27 4 25 13 -5 14 -98 23 -98 9z"/> <path d="M4344 4505 c-9 -22 5 -38 22 -24 18 15 18 25 -1 33 -9 3 -18 -1 -21 -9z"/> <path d="M5800 4510 c0 -5 9 -10 20 -10 11 0 20 5 20 10 0 6 -9 10 -20 10 -11 0 -20 -4 -20 -10z"/> <path d="M6360 4510 c0 -12 28 -21 35 -11 2 5 -4 11 -15 14 -11 3 -20 2 -20 -3z"/> <path d="M1194 4498 c-6 -9 48 -13 109 -9 21 1 37 -2 37 -8 0 -14 60 -43 132 -65 32 -10 60 -22 64 -27 3 -5 23 -9 44 -9 35 0 39 3 37 22 -1 17 4 24 21 26 23 4 26 10 16 36 -7 19 -96 22 -175 5 -36 -8 -57 -8 -73 -1 -61 31 -104 42 -153 40 -30 -1 -57 -6 -59 -10z m404 -55 c2 -8 -6 -13 -21 -13 -32 0 -57 9 -57 22 0 14 73 5 78 -9z"/> <path d="M1794 4495 c-8 -21 10 -39 30 -32 22 9 20 24 -4 37 -16 9 -22 8 -26 -5z"/> <path d="M1876 4481 c-12 -19 23 -32 71 -26 70 9 81 14 63 25 -19 12 -127 13 -134 1z"/> <path d="M6020 4460 c-19 -12 -13 -16 37 -23 49 -6 67 8 28 23 -32 12 -46 12 -65 0z"/> <path d="M2110 4450 c-9 -6 -4 -12 16 -23 l29 -15 -28 -13 -27 -12 22 -24 c30 -32 97 -30 153 4 17 11 18 14 5 23 -8 5 -27 10 -41 10 -15 0 -29 7 -33 15 -3 8 -15 15 -26 15 -11 0 -20 4 -20 9 0 12 -35 20 -50 11z m100 -66 c0 -9 -7 -14 -17 -12 -25 5 -28 28 -4 28 12 0 21 -6 21 -16z"/> <path d="M1657 4408 c-22 -24 -11 -40 21 -31 16 4 22 12 20 26 -4 28 -19 29 -41 5z"/> <path d="M2564 4420 c-24 -9 -39 -28 -31 -37 7 -6 67 19 67 29 0 13 -15 16 -36 8z"/> <path d="M1850 4411 c0 -5 8 -11 18 -15 9 -3 24 -9 32 -12 10 -5 9 0 -4 15 -19 21 -46 29 -46 12z"/> <path d="M3237 4414 c-17 -18 -6 -35 21 -32 16 2 27 9 27 18 0 16 -36 26 -48 14z"/> <path d="M4395 4410 c-3 -5 -22 -10 -41 -10 -27 0 -34 -4 -34 -19 0 -10 7 -24 15 -31 8 -7 15 -24 16 -39 l1 -26 9 25 c5 14 25 35 44 48 39 25 48 62 16 62 -11 0 -23 -4 -26 -10z"/> <path d="M2622 4380 c-7 -11 -19 -20 -27 -20 -8 0 -15 -3 -15 -6 0 -13 22 -44 31 -44 12 0 89 70 89 82 0 18 -65 8 -78 -12z"/> <path d="M4800 4389 c0 -4 5 -11 10 -14 6 -3 10 -13 10 -21 0 -12 -8 -13 -34 -9 -44 9 -76 -8 -76 -40 0 -18 5 -25 19 -25 22 0 45 -25 36 -40 -3 -5 -12 -10 -19 -10 -8 0 -30 -18 -50 -40 -26 -29 -36 -49 -36 -74 0 -40 -27 -57 -47 -30 -11 15 -14 14 -43 -6 l-31 -22 -22 28 c-24 31 -24 44 -1 57 23 13 17 61 -11 87 -21 20 -31 22 -80 16 -48 -5 -56 -4 -67 14 -7 11 -20 20 -30 20 -9 0 -32 16 -50 35 -35 37 -77 50 -86 26 -5 -16 153 -171 175 -171 29 0 71 -30 83 -60 7 -16 16 -30 20 -30 4 0 11 -12 15 -27 3 -16 13 -35 21 -45 10 -10 15 -37 15 -72 0 -50 -4 -62 -38 -106 -24 -31 -46 -49 -59 -50 -12 0 -27 -7 -34 -15 -7 -8 -25 -15 -40 -15 -15 0 -33 -6 -39 -14 -6 -7 -39 -17 -74 -20 -47 -6 -66 -13 -79 -29 -17 -22 -17 -22 -31 -3 -14 19 -15 19 -48 -8 -42 -35 -62 -71 -54 -96 10 -30 44 -24 63 10 13 23 23 30 39 27 13 -2 28 2 34 9 6 8 20 14 30 14 10 0 22 7 27 16 6 10 18 14 38 11 28 -4 28 -4 6 -12 -26 -9 -26 -38 1 -43 11 -2 17 3 17 16 0 22 45 56 61 46 6 -3 18 1 27 9 20 18 94 32 140 28 18 -1 39 2 46 8 10 9 17 6 30 -13 10 -16 27 -26 48 -28 25 -2 34 -9 38 -28 4 -17 13 -24 26 -23 10 1 21 -1 24 -5 14 -19 82 -41 110 -36 16 4 30 8 30 10 0 18 -103 94 -127 94 -9 0 -31 17 -49 39 -18 21 -46 44 -62 50 -68 28 -92 151 -38 187 13 8 26 24 29 34 3 11 20 27 38 35 22 10 44 34 61 64 19 34 35 51 55 55 30 8 123 93 123 113 0 6 -9 14 -19 18 -33 10 -35 46 -8 104 1 2 -13 5 -30 6 -18 2 -33 -1 -33 -6z"/> <path d="M5096 4393 c-3 -4 7 -19 24 -34 32 -30 37 -45 18 -52 -8 -3 0 -18 24 -40 22 -21 41 -52 49 -78 16 -56 35 -75 83 -84 37 -6 38 -6 34 19 -4 18 -1 26 8 26 8 0 14 -5 14 -11 0 -14 63 -7 68 9 2 8 -8 12 -32 12 -25 0 -36 4 -36 15 0 8 9 15 19 15 11 0 23 5 26 10 9 15 -23 24 -39 11 -12 -10 -15 -8 -18 11 -2 17 -20 31 -70 56 -38 18 -68 40 -68 48 0 7 -9 14 -20 14 -10 0 -23 6 -27 13 -14 22 -49 47 -57 40z"/> <path d="M5355 4391 c-7 -12 12 -24 25 -16 11 7 4 25 -10 25 -5 0 -11 -4 -15 -9z"/> <path d="M3300 4380 c-12 -8 -12 -10 3 -16 20 -7 47 1 47 16 0 12 -30 13 -50 0z"/> <path d="M3740 4381 c-56 -31 -209 -44 -302 -26 -44 8 -70 1 -63 -17 13 -33 125 -53 221 -39 55 8 173 57 199 82 11 11 -34 11 -55 0z"/> <path d="M5208 4378 c9 -9 15 -9 24 0 9 9 7 12 -12 12 -19 0 -21 -3 -12 -12z"/> <path d="M4035 4370 c-8 -13 4 -32 16 -25 12 8 12 35 0 35 -6 0 -13 -4 -16 -10z"/> <path d="M6331 4348 c-11 -28 -6 -38 19 -38 24 0 33 15 25 40 -9 27 -34 25 -44 -2z"/> <path d="M4503 4343 c-54 -5 -56 -26 -4 -42 54 -16 97 0 81 29 -6 11 -16 19 -23 18 -7 -1 -31 -3 -54 -5z"/> <path d="M2300 4325 c0 -8 5 -15 10 -15 6 0 10 7 10 15 0 8 -4 15 -10 15 -5 0 -10 -7 -10 -15z"/> <path d="M1510 4318 c0 -28 40 -51 101 -60 64 -8 99 1 99 28 0 20 -40 33 -126 41 -62 5 -74 3 -74 -9z"/> <path d="M3212 4318 c-16 -16 -15 -38 1 -38 7 0 18 5 25 12 16 16 15 38 -1 38 -7 0 -18 -5 -25 -12z"/> <path d="M3965 4320 c3 -5 13 -10 21 -10 8 0 14 5 14 10 0 6 -9 10 -21 10 -11 0 -17 -4 -14 -10z"/> <path d="M5600 4322 c0 -12 34 -42 48 -42 20 0 13 17 -13 34 -27 18 -35 20 -35 8z"/> <path d="M2276 4284 c-9 -23 -8 -24 13 -24 14 0 18 5 14 20 -6 24 -19 26 -27 4z"/> <path d="M6320 4270 c0 -6 11 -15 25 -20 14 -5 25 -14 25 -20 0 -12 30 -13 50 0 12 7 12 12 -4 29 -20 22 -96 30 -96 11z"/> <path d="M2325 4260 c-14 -22 62 -77 91 -66 24 9 15 24 -32 50 -54 30 -51 29 -59 16z"/> <path d="M3758 4253 c-22 -5 -24 -33 -3 -33 8 0 19 9 25 20 11 20 9 21 -22 13z"/> <path d="M4622 4250 c-19 -8 -21 -13 -12 -30 14 -26 25 -25 44 2 24 34 11 45 -32 28z"/> <path d="M2015 4240 c-18 -8 -17 -9 8 -9 15 -1 27 4 27 9 0 12 -8 12 -35 0z"/> <path d="M6126 4241 c-7 -11 17 -21 50 -21 15 0 24 6 24 15 0 17 -65 22 -74 6z"/> <path d="M1708 4218 c-26 -20 -65 -26 -112 -17 -34 7 -29 -20 8 -42 20 -11 36 -27 36 -35 0 -16 16 -19 25 -4 10 15 65 12 82 -5 8 -9 20 -14 26 -12 20 6 18 24 -5 34 l-23 11 28 7 c32 8 34 20 7 37 -11 7 -20 21 -20 30 0 24 -19 22 -52 -4z"/> <path d="M2710 4233 c0 -17 19 -35 29 -29 18 12 12 36 -9 36 -11 0 -20 -3 -20 -7z"/> <path d="M3675 4200 c-3 -11 -13 -20 -20 -20 -9 0 -12 6 -9 15 9 23 -10 18 -40 -10 -22 -20 -36 -25 -76 -23 -52 2 -70 -6 -53 -23 10 -10 333 -20 361 -11 40 13 -22 52 -84 52 -13 0 -24 8 -27 20 -3 12 -14 20 -25 20 -12 0 -23 -9 -27 -20z"/> <path d="M3336 4185 c-19 -14 -19 -15 7 -15 17 0 27 5 27 15 0 19 -9 19 -34 0z"/> <path d="M3899 4163 c-20 -5 -33 -45 -17 -54 14 -9 89 1 106 14 40 32 -20 59 -89 40z"/> <path d="M5116 4144 c-6 -24 -9 -25 -51 -18 -37 5 -45 3 -45 -9 0 -13 12 -15 77 -12 71 4 92 13 93 38 0 7 -43 27 -60 27 -4 0 -11 -12 -14 -26z"/> <path d="M6323 4154 c-9 -23 13 -40 32 -24 12 10 13 16 4 26 -15 18 -28 18 -36 -2z"/> <path d="M2447 4154 c-11 -12 3 -24 28 -24 13 0 27 -4 30 -10 9 -15 25 -12 25 5 0 23 -66 45 -83 29z"/> <path d="M4062 4148 c-18 -18 -15 -38 6 -38 26 0 56 25 48 38 -9 15 -39 15 -54 0z"/> <path d="M2870 4126 c0 -19 47 -33 63 -17 14 14 10 17 -30 26 -26 5 -33 3 -33 -9z"/> <path d="M3030 4116 c0 -10 9 -16 21 -16 24 0 21 23 -4 28 -10 2 -17 -3 -17 -12z"/> <path d="M2784 4109 c-3 -6 -2 -14 2 -19 11 -10 54 6 54 20 0 13 -47 13 -56 -1z"/> <path d="M2230 4090 c-11 -7 -7 -10 18 -10 20 0 31 4 27 10 -8 13 -26 13 -45 0z"/> <path d="M3113 4093 c-25 -10 -12 -24 19 -21 37 4 52 28 16 27 -12 0 -29 -3 -35 -6z"/> <path d="M3522 4084 c-9 -15 -13 -16 -26 -5 -21 17 -21 4 0 -16 10 -11 18 -13 22 -6 4 6 16 12 27 14 23 5 24 22 1 27 -8 2 -19 -5 -24 -14z"/> <path d="M5411 4091 c-9 -6 -5 -10 16 -13 36 -5 55 0 47 13 -7 11 -45 11 -63 0z"/> <path d="M5940 4091 c-11 -8 -9 -12 13 -20 16 -6 38 -11 50 -11 26 0 53 15 41 23 -20 11 -90 17 -104 8z"/> <path d="M1666 4071 c-16 -18 -15 -19 21 -26 21 -4 43 -10 48 -15 6 -4 41 -10 78 -13 54 -4 70 -2 74 10 11 29 -23 47 -86 45 -33 -1 -62 2 -66 8 -10 16 -51 11 -69 -9z"/> <path d="M2355 4060 c-4 -6 6 -10 22 -10 22 0 25 2 13 10 -19 12 -27 12 -35 0z"/> <path d="M2546 4061 c-3 -5 4 -11 17 -15 35 -9 47 -7 47 9 0 16 -55 22 -64 6z"/> <path d="M3380 4054 c0 -9 5 -14 12 -12 18 6 21 28 4 28 -9 0 -16 -7 -16 -16z"/> <path d="M6288 4063 c-23 -6 -23 -16 2 -38 25 -22 50 -13 50 20 0 25 -11 29 -52 18z"/> <path d="M3330 4030 c0 -5 9 -10 20 -10 11 0 20 5 20 10 0 6 -9 10 -20 10 -11 0 -20 -4 -20 -10z"/> <path d="M4065 4024 c-11 -11 -25 -14 -46 -10 -48 9 -79 -2 -79 -29 0 -33 21 -36 69 -12 34 17 45 19 61 9 21 -13 80 -6 80 10 0 43 -53 63 -85 32z"/> <path d="M5440 4000 c18 -16 41 -30 49 -30 10 0 3 11 -19 30 -46 39 -73 39 -30 0z"/> <path d="M5624 4015 c25 -19 36 -19 36 0 0 10 -10 15 -27 15 -27 -1 -27 -1 -9 -15z"/> <path d="M3200 3990 c0 -19 5 -30 14 -30 22 0 28 17 14 40 -18 28 -28 25 -28 -10z"/> <path d="M2786 4003 c-11 -11 -6 -23 9 -23 8 0 15 4 15 9 0 13 -16 22 -24 14z"/> <path d="M3382 3990 c-7 -11 -19 -20 -27 -20 -8 0 -15 -9 -15 -20 0 -31 32 -24 63 14 15 19 27 37 27 40 0 15 -37 4 -48 -14z"/> <path d="M3802 3993 c-17 -12 -25 -13 -37 -3 -20 17 -105 -25 -105 -53 0 -17 5 -18 43 -12 23 4 48 12 54 17 8 6 35 8 66 4 41 -5 57 -4 66 7 9 12 7 19 -15 36 -31 25 -41 25 -72 4z"/> <path d="M5063 3993 c-18 -7 -16 -43 2 -43 14 0 55 34 55 45 0 6 -41 5 -57 -2z"/> <path d="M5168 3988 c-33 -11 -35 -23 -9 -38 14 -7 28 -7 47 0 26 10 26 11 9 30 -10 11 -19 20 -19 19 -1 0 -13 -5 -28 -11z"/> <path d="M3590 3970 c-6 -11 -18 -20 -26 -20 -25 0 -10 -25 17 -28 19 -2 28 4 37 23 15 32 15 32 -3 39 -9 3 -19 -3 -25 -14z"/> <path d="M1770 3971 c-83 -7 -95 -11 -103 -41 -4 -16 1 -21 32 -26 54 -9 134 -35 151 -49 26 -22 97 -37 120 -25 24 13 26 30 5 30 -19 0 -19 17 -1 53 l15 27 -54 0 c-48 0 -53 2 -48 20 4 16 1 20 -18 18 -13 -1 -58 -4 -99 -7z"/> <path d="M2847 3974 c-4 -4 -4 -10 -1 -15 6 -10 34 0 34 12 0 10 -24 12 -33 3z"/> <path d="M6287 3973 c-13 -3 -16 -10 -11 -26 10 -34 22 -43 42 -31 22 14 28 44 10 55 -7 5 -15 8 -18 8 -3 -1 -13 -3 -23 -6z"/> <path d="M5251 3961 c-32 -20 29 -55 79 -45 38 8 38 19 0 39 -33 17 -58 19 -79 6z"/> <path d="M2970 3945 c0 -8 7 -15 16 -15 14 0 14 3 4 15 -7 8 -14 15 -16 15 -2 0 -4 -7 -4 -15z"/> <path d="M2255 3940 c-4 -6 5 -10 20 -10 15 0 24 4 20 10 -3 6 -12 10 -20 10 -8 0 -17 -4 -20 -10z"/> <path d="M2725 3941 c-3 -5 -1 -13 5 -16 15 -9 71 5 64 16 -7 12 -61 12 -69 0z"/> <path d="M3150 3940 c0 -5 7 -10 15 -10 8 0 15 5 15 10 0 6 -7 10 -15 10 -8 0 -15 -4 -15 -10z"/> <path d="M4355 3924 c-16 -14 -40 -29 -52 -34 -26 -11 -31 -30 -8 -30 24 0 72 27 78 45 4 8 18 15 32 15 16 0 25 6 25 15 0 23 -41 17 -75 -11z"/> <path d="M4707 3943 c-12 -12 -8 -20 18 -31 14 -6 25 -18 25 -26 0 -18 39 -31 52 -18 15 15 2 30 -31 37 -17 3 -31 14 -34 26 -5 19 -18 25 -30 12z"/> <path d="M5750 3940 c0 -5 7 -10 15 -10 8 0 15 5 15 10 0 6 -7 10 -15 10 -8 0 -15 -4 -15 -10z"/> <path d="M3258 3919 c-16 -17 -16 -19 -2 -19 9 0 27 9 41 20 l26 20 -24 -1 c-13 0 -32 -9 -41 -20z"/> <path d="M2905 3920 c-4 -6 -3 -16 3 -22 6 -6 12 -6 17 2 4 6 3 16 -3 22 -6 6 -12 6 -17 -2z"/> <path d="M4226 3903 c-4 -4 -19 -7 -34 -8 -20 0 -27 -5 -27 -20 0 -16 8 -21 43 -23 39 -3 42 -1 42 22 0 26 -12 40 -24 29z"/> <path d="M5380 3900 c20 -13 47 -13 55 0 4 6 -9 10 -32 10 -28 0 -34 -3 -23 -10z"/> <path d="M4046 3874 c-23 -23 -15 -39 20 -39 24 0 29 4 29 25 0 30 -26 38 -49 14z"/> <path d="M5537 3883 c-10 -10 45 -53 68 -53 13 0 27 -4 30 -10 3 -5 26 -10 50 -10 29 0 45 -5 49 -15 5 -15 46 -22 46 -7 0 16 -60 72 -77 72 -10 0 -26 7 -37 15 -17 13 -118 20 -129 8z"/> <path d="M3090 3850 c-24 -8 -23 -8 8 -9 20 -1 31 3 27 9 -3 6 -7 10 -8 9 -1 -1 -13 -5 -27 -9z"/> <path d="M3618 3839 c-51 -26 -49 -46 4 -51 42 -4 98 14 98 32 0 5 15 4 32 -1 50 -14 60 -12 56 14 -4 28 -58 37 -78 13 -16 -20 -34 -20 -50 -1 -15 19 -17 19 -62 -6z"/> <path d="M3900 3850 c-12 -8 -12 -10 3 -16 20 -7 47 1 47 16 0 12 -30 13 -50 0z"/> <path d="M4862 3848 c5 -15 68 -24 68 -10 0 12 -24 22 -52 22 -11 0 -18 -5 -16 -12z"/> <path d="M6250 3842 c0 -11 51 -35 58 -28 2 3 2 12 -1 21 -7 15 -57 22 -57 7z"/> <path d="M3012 3828 c7 -19 38 -22 38 -4 0 10 -9 16 -21 16 -12 0 -19 -5 -17 -12z"/> <path d="M3176 3823 c-12 -12 -5 -23 14 -23 11 0 20 4 20 9 0 11 -26 22 -34 14z"/> <path d="M3296 3815 c-11 -8 -26 -15 -34 -15 -8 0 -25 -9 -39 -20 -14 -11 -34 -20 -44 -20 -11 0 -19 -7 -19 -15 0 -9 -9 -15 -25 -15 -31 0 -32 -15 -4 -31 18 -9 24 -8 31 5 5 9 18 16 28 16 11 0 36 11 56 25 20 14 42 25 49 25 19 0 66 40 60 51 -9 13 -37 10 -59 -6z"/> <path d="M3434 3786 c-24 -25 -44 -50 -43 -58 0 -10 2 -10 6 0 2 6 11 12 18 12 8 0 19 9 25 20 6 11 17 20 24 20 17 0 48 35 39 43 -13 13 -25 7 -69 -37z"/> <path d="M5000 3815 c0 -8 7 -15 15 -15 8 0 15 7 15 15 0 8 -7 15 -15 15 -8 0 -15 -7 -15 -15z"/> <path d="M5107 3823 c-14 -14 -6 -23 21 -23 15 0 45 -12 67 -25 41 -26 75 -32 75 -15 0 6 -4 10 -9 10 -5 0 -23 14 -41 30 -24 22 -42 30 -69 30 -21 0 -41 -3 -44 -7z"/> <path d="M1696 3811 c-3 -5 12 -11 33 -15 31 -5 40 -11 43 -29 2 -14 11 -23 27 -25 13 -2 31 -10 38 -18 8 -8 21 -14 29 -14 19 0 18 -29 -1 -36 -8 -3 -14 -16 -13 -27 1 -12 -2 -32 -6 -44 -11 -33 17 -30 43 3 19 24 26 26 62 20 44 -7 79 11 79 41 0 18 -26 17 -34 -2 -8 -21 -46 -19 -46 1 0 9 17 32 38 50 29 25 34 35 25 44 -15 16 -103 -8 -103 -27 0 -20 -19 -25 -36 -9 -8 9 -22 16 -30 16 -21 0 -17 15 9 33 21 16 21 16 -24 16 -32 1 -49 6 -53 16 -6 16 -71 21 -80 6z"/> <path d="M5526 3801 c-7 -11 28 -51 44 -51 20 0 9 24 -22 48 -10 8 -18 9 -22 3z"/> <path d="M2960 3790 c0 -5 7 -10 15 -10 8 0 15 5 15 10 0 6 -7 10 -15 10 -8 0 -15 -4 -15 -10z"/> <path d="M3108 3793 c-10 -3 -18 -9 -18 -14 0 -10 7 -11 34 0 23 9 9 19 -16 14z"/> <path d="M4127 3794 c-8 -8 1 -24 14 -24 5 0 9 7 9 15 0 15 -12 20 -23 9z"/> <path d="M5296 3793 c-14 -14 -4 -23 37 -34 23 -6 51 -19 62 -29 11 -11 37 -26 57 -34 20 -9 38 -21 40 -28 5 -14 38 -4 38 12 0 5 -9 10 -20 10 -14 0 -18 5 -13 16 7 18 -12 34 -43 34 -12 0 -37 11 -56 23 -35 25 -91 41 -102 30z"/> <path d="M2487 3764 c-14 -15 5 -22 34 -14 45 13 48 20 7 20 -19 0 -38 -3 -41 -6z"/> <path d="M2740 3755 c-7 -8 -10 -18 -6 -22 3 -3 6 -1 6 6 0 9 13 12 45 9 25 -2 45 0 45 4 0 5 -8 8 -17 8 -10 0 -27 3 -39 6 -12 3 -26 -1 -34 -11z"/> <path d="M3043 3763 c-13 -2 -23 -11 -23 -19 0 -17 2 -17 35 -2 23 10 36 30 18 27 -5 -1 -18 -4 -30 -6z"/> <path d="M3840 3745 c-7 -9 -10 -18 -7 -21 10 -10 47 7 47 22 0 19 -24 18 -40 -1z"/> <path d="M5592 3738 c3 -7 13 -15 24 -17 16 -3 17 -1 5 13 -16 19 -34 21 -29 4z"/> <path d="M3324 3726 c-3 -9 -12 -16 -20 -16 -7 0 -22 -9 -32 -20 -17 -18 -81 -58 -127 -79 -11 -5 -34 -22 -51 -37 -17 -16 -39 -27 -48 -26 -13 3 -17 -1 -14 -14 4 -22 32 -30 50 -15 30 25 148 111 152 111 3 0 18 10 32 23 72 60 85 75 75 81 -6 4 -14 0 -17 -8z"/> <path d="M4927 3734 c-10 -11 3 -24 24 -24 23 0 25 15 3 24 -19 7 -19 7 -27 0z"/> <path d="M6195 3731 c-7 -12 12 -24 25 -16 11 7 4 25 -10 25 -5 0 -11 -4 -15 -9z"/> <path d="M3663 3692 c-6 -4 -15 -20 -18 -35 -10 -38 17 -36 32 3 12 31 6 44 -14 32z"/> <path d="M5941 3664 c32 -31 39 -35 58 -25 32 18 26 27 -28 45 -69 22 -71 21 -30 -20z"/> <path d="M3086 3665 c-8 -8 -19 -15 -25 -15 -6 0 -11 -5 -11 -11 0 -6 6 -9 13 -6 40 17 67 33 67 40 0 12 -28 8 -44 -8z"/> <path d="M3365 3669 c-10 -15 3 -25 16 -12 7 7 7 13 1 17 -6 3 -14 1 -17 -5z"/> <path d="M3573 3635 c-38 -39 -41 -49 -13 -40 30 9 73 52 65 64 -10 17 -17 13 -52 -24z"/> <path d="M5182 3658 c6 -18 28 -21 28 -4 0 9 -7 16 -16 16 -9 0 -14 -5 -12 -12z"/> <path d="M3428 3637 c-14 -12 -38 -31 -52 -41 -14 -10 -26 -24 -26 -31 0 -15 44 -28 48 -15 2 6 9 10 16 10 13 0 86 68 86 80 0 7 -24 20 -38 20 -4 0 -19 -10 -34 -23z"/> <path d="M3320 3635 c-7 -8 -18 -15 -24 -15 -15 -1 -99 -80 -92 -88 3 -3 14 2 24 11 10 10 25 17 33 17 8 0 26 13 39 30 14 16 31 29 38 30 13 0 17 30 3 30 -5 0 -14 -7 -21 -15z"/> <path d="M4572 3638 c3 -7 13 -15 22 -16 12 -3 17 1 14 10 -3 7 -13 15 -22 16 -12 3 -17 -1 -14 -10z"/> <path d="M5244 3638 c-9 -14 31 -52 45 -44 21 13 12 43 -14 48 -14 3 -28 1 -31 -4z"/> <path d="M5840 3638 c0 -11 21 -25 68 -45 25 -11 11 13 -21 35 -38 25 -47 27 -47 10z"/> <path d="M3013 3623 c-20 -8 -15 -23 7 -23 11 0 20 7 20 15 0 15 -6 17 -27 8z"/> <path d="M3620 3615 c0 -8 5 -15 10 -15 6 0 10 7 10 15 0 8 -4 15 -10 15 -5 0 -10 -7 -10 -15z"/> <path d="M3722 3608 c-17 -17 -15 -48 2 -48 14 0 46 36 46 52 0 12 -35 9 -48 -4z"/> <path d="M5332 3608 c6 -18 28 -21 28 -4 0 9 -7 16 -16 16 -9 0 -14 -5 -12 -12z"/> <path d="M2054 3586 c-11 -11 -23 -29 -27 -38 -9 -25 -126 -21 -152 6 -18 18 -19 18 -26 0 -12 -30 -10 -34 16 -44 14 -5 25 -14 25 -20 0 -5 8 -10 19 -10 10 0 24 -7 31 -15 18 -22 43 -18 70 10 22 23 50 34 50 18 0 -4 -12 -20 -27 -35 -23 -24 -25 -30 -13 -38 30 -19 41 -13 86 45 56 73 55 104 -2 80 l-36 -15 7 40 c8 45 7 46 -21 16z"/> <path d="M3595 3581 c-6 -11 9 -23 19 -14 9 9 7 23 -3 23 -6 0 -12 -4 -16 -9z"/> <path d="M1955 3570 c3 -5 15 -10 26 -10 10 0 19 5 19 10 0 6 -12 10 -26 10 -14 0 -23 -4 -19 -10z"/> <path d="M3852 3568 c-7 -7 -12 -16 -12 -20 0 -15 15 -8 28 12 13 22 3 27 -16 8z"/> <path d="M5536 3565 c25 -19 40 -19 24 0 -7 8 -20 15 -28 15 -13 0 -12 -3 4 -15z"/> <path d="M5120 3545 c0 -8 7 -15 15 -15 10 0 15 -10 15 -30 0 -20 5 -30 15 -30 21 0 18 40 -4 68 -22 25 -41 29 -41 7z"/> <path d="M2590 3540 c0 -5 7 -10 15 -10 8 0 15 5 15 10 0 6 -7 10 -15 10 -8 0 -15 -4 -15 -10z"/> <path d="M3300 3540 c0 -5 7 -10 15 -10 8 0 15 -9 15 -20 0 -19 1 -19 20 -2 19 16 20 17 3 20 -10 2 -22 8 -27 13 -13 12 -26 11 -26 -1z"/> <path d="M5070 3537 c0 -21 36 -51 43 -35 2 7 -6 21 -19 31 -19 14 -24 15 -24 4z"/> <path d="M5990 3543 c1 -20 20 -34 53 -40 24 -4 37 -2 37 6 0 6 -11 11 -24 11 -13 0 -29 7 -36 15 -13 16 -30 20 -30 8z"/> <path d="M3138 3497 c-18 -19 -41 -37 -50 -40 -18 -6 -26 -37 -10 -37 9 0 112 95 112 104 0 15 -22 3 -52 -27z"/> <path d="M5610 3521 c0 -14 50 -51 68 -51 11 0 4 11 -18 30 -37 31 -50 36 -50 21z"/> <path d="M3000 3512 c0 -4 5 -13 12 -20 16 -16 28 -15 28 2 0 8 -7 17 -16 20 -21 8 -24 8 -24 -2z"/> <path d="M3257 3498 c-10 -11 -16 -22 -14 -25 8 -7 47 21 47 34 0 18 -12 15 -33 -9z"/> <path d="M5230 3492 c0 -13 45 -52 59 -52 16 0 -29 59 -46 59 -7 1 -13 -3 -13 -7z"/> <path d="M3600 3475 c0 -8 7 -15 15 -15 8 0 15 7 15 15 0 8 -7 15 -15 15 -8 0 -15 -7 -15 -15z"/> <path d="M2209 3444 c-7 -9 -21 -13 -34 -10 -27 7 -60 -16 -53 -36 7 -17 59 -43 104 -51 25 -5 40 0 68 21 39 30 43 55 9 60 -12 2 -27 10 -33 18 -16 19 -44 18 -61 -2z"/> <path d="M2895 3440 c-11 -5 -31 -18 -45 -29 l-25 -21 23 0 c12 0 22 4 22 8 0 4 14 13 30 19 17 6 30 16 30 22 0 13 -8 13 -35 1z"/> <path d="M3265 3429 c-4 -6 -5 -13 -2 -16 7 -7 27 6 27 18 0 12 -17 12 -25 -2z"/> <path d="M1851 3411 c-9 -15 -5 -21 24 -37 18 -10 36 -26 38 -36 6 -22 30 -23 47 -3 7 8 21 15 31 15 37 0 27 18 -19 35 -26 10 -54 24 -63 31 -22 19 -47 17 -58 -5z"/> <path d="M2686 3414 c-9 -22 -8 -23 13 -17 12 3 17 11 14 19 -7 19 -19 18 -27 -2z"/> <path d="M3030 3420 c0 -5 7 -10 15 -10 8 0 15 5 15 10 0 6 -7 10 -15 10 -8 0 -15 -4 -15 -10z"/> <path d="M5949 3410 c-9 -9 -23 -20 -30 -22 -11 -4 -12 -9 -1 -27 17 -30 15 -34 -14 -28 -33 6 -40 -12 -20 -52 17 -33 50 -56 66 -46 6 3 10 20 10 37 0 18 10 52 22 76 15 32 18 49 11 60 -14 22 -26 23 -44 2z"/> <path d="M5426 3402 c-3 -6 -1 -14 5 -17 15 -10 25 3 12 16 -7 7 -13 7 -17 1z"/> <path d="M3438 3380 c-20 -11 -40 -25 -43 -31 -10 -15 3 -25 16 -12 6 6 17 9 24 7 7 -3 20 8 28 25 9 17 15 31 14 31 -1 -1 -19 -10 -39 -20z"/> <path d="M2365 3370 c-3 -11 -15 -20 -25 -20 -19 0 -36 -17 -27 -26 2 -2 17 0 32 6 19 7 31 7 41 -1 14 -11 34 -5 34 12 0 5 -7 9 -15 9 -8 0 -15 9 -15 20 0 11 -4 20 -9 20 -5 0 -13 -9 -16 -20z"/> <path d="M5480 3375 c0 -14 55 -55 68 -50 7 3 18 5 23 5 11 0 12 27 2 33 -14 8 -93 19 -93 12z"/> <path d="M4073 3355 c-3 -9 -3 -18 0 -21 9 -9 27 6 27 22 0 19 -19 18 -27 -1z"/> <path d="M4912 3338 c6 -18 28 -21 28 -4 0 9 -7 16 -16 16 -9 0 -14 -5 -12 -12z"/> <path d="M2056 3318 c3 -13 13 -27 20 -31 21 -12 17 -39 -14 -77 -43 -55 -58 -88 -44 -102 19 -19 14 -25 -22 -32 -34 -7 -34 -7 -20 -34 20 -39 18 -62 -7 -62 -18 0 -19 -3 -9 -15 14 -17 5 -68 -16 -86 -8 -6 -14 -24 -14 -39 0 -15 -9 -48 -20 -73 -11 -25 -20 -65 -20 -89 1 -64 -4 -93 -18 -111 -8 -9 -11 -20 -8 -26 3 -5 -1 -22 -9 -37 -8 -16 -15 -37 -15 -47 0 -10 -7 -31 -15 -48 -9 -16 -20 -53 -25 -81 -6 -29 -19 -70 -30 -91 -11 -20 -20 -55 -20 -77 0 -40 -11 -51 -27 -27 -5 7 -11 -7 -15 -38 -12 -86 -20 -119 -34 -133 -8 -7 -14 -23 -14 -34 0 -11 -8 -42 -17 -67 -17 -49 -12 -101 7 -71 6 8 10 25 10 36 0 12 7 27 15 34 8 7 15 25 15 40 0 15 7 33 15 40 8 7 15 25 15 40 0 15 7 33 15 40 8 7 15 21 15 32 0 11 6 32 14 46 8 15 21 45 29 67 8 22 36 90 62 150 50 114 56 145 71 362 4 52 11 86 20 94 8 7 14 30 14 55 0 32 4 44 15 44 10 0 15 10 15 34 0 18 7 39 15 46 8 7 15 23 15 35 0 12 7 28 15 35 8 7 15 21 15 32 0 10 7 21 15 24 8 4 15 14 15 24 0 10 7 23 15 30 8 7 15 19 15 27 0 7 7 16 15 19 8 4 15 11 15 18 0 6 21 34 45 61 25 28 45 54 45 58 0 5 -17 6 -37 3 -25 -4 -48 -1 -67 9 -15 8 -39 15 -53 15 -21 0 -23 -3 -17 -22z"/> <path d="M4287 3333 c-16 -15 -6 -33 18 -33 27 0 32 9 13 28 -14 14 -22 15 -31 5z"/> <path d="M4507 3318 c-18 -19 -18 -19 15 -16 22 2 34 9 36 21 5 24 -28 21 -51 -5z"/> <path d="M4620 3315 c0 -10 -11 -15 -35 -15 -46 0 -46 -22 1 -50 l35 -22 20 21 c11 11 26 21 34 21 21 0 19 16 -5 40 -24 24 -50 26 -50 5z"/> <path d="M3051 3306 c-9 -10 -8 -15 4 -20 10 -4 15 1 15 14 0 24 -4 25 -19 6z"/> <path d="M5730 3313 c0 -6 11 -22 25 -37 14 -15 25 -34 25 -42 0 -8 14 -28 30 -44 17 -16 30 -35 30 -41 0 -12 29 -38 42 -39 4 0 19 17 33 38 l25 37 -40 38 c-23 20 -45 37 -50 37 -6 0 -10 4 -10 10 0 5 -19 14 -42 21 -24 6 -49 16 -55 21 -8 7 -13 7 -13 1z"/> <path d="M2000 3300 c0 -5 7 -10 15 -10 8 0 15 5 15 10 0 6 -7 10 -15 10 -8 0 -15 -4 -15 -10z"/> <path d="M2269 3283 c-27 -33 -92 -135 -108 -170 -6 -13 -15 -23 -21 -23 -5 0 -10 -11 -10 -24 0 -13 -7 -29 -15 -36 -8 -7 -15 -18 -15 -25 0 -7 -7 -18 -15 -25 -8 -7 -15 -23 -15 -35 0 -12 -7 -28 -15 -35 -8 -7 -15 -24 -15 -39 0 -14 -7 -35 -15 -45 -8 -11 -15 -32 -15 -48 0 -15 -7 -45 -16 -67 -20 -50 -24 -132 -6 -138 7 -3 12 5 12 21 0 15 7 29 15 32 8 4 15 16 15 29 0 12 7 28 15 35 8 7 15 19 15 26 0 8 5 14 10 14 6 0 10 7 10 15 0 8 12 31 26 52 14 21 30 47 35 58 5 11 18 34 29 50 11 17 23 37 27 45 8 18 45 73 54 80 4 3 9 15 13 28 4 12 12 22 17 22 5 0 9 7 9 15 0 7 6 18 13 22 7 4 31 30 52 57 22 28 50 61 62 74 13 14 20 29 17 34 -4 5 -32 8 -64 6 -32 -1 -62 0 -66 5 -11 11 -20 9 -35 -10z m37 -48 c-3 -8 -8 -37 -12 -65 -5 -41 -9 -48 -21 -39 -9 8 -11 23 -7 48 10 60 15 71 31 71 9 0 13 -6 9 -15z"/> <path d="M4733 3288 c-9 -16 9 -27 36 -22 16 3 38 1 50 -5 19 -10 21 -9 21 12 0 22 -4 23 -51 23 -28 -1 -53 -4 -56 -8z"/> <path d="M1966 3271 c-6 -10 22 -37 29 -29 8 7 -5 38 -15 38 -5 0 -11 -4 -14 -9z"/> <path d="M2448 3222 c-9 -2 -20 -13 -24 -24 -5 -18 -34 -57 -104 -145 -6 -7 -10 -16 -10 -21 0 -5 -9 -17 -20 -27 -11 -10 -20 -24 -20 -31 0 -7 -3 -14 -7 -16 -12 -5 -53 -66 -53 -78 0 -15 18 -12 27 4 21 36 116 146 211 243 52 53 65 83 38 83 -8 0 -16 4 -18 8 -1 4 -11 6 -20 4z"/> <path d="M5681 3177 c-23 -11 -27 -27 -9 -45 8 -8 5 -14 -15 -23 -22 -10 -37 -28 -24 -29 1 0 27 -9 56 -19 68 -22 78 -41 22 -41 -42 0 -55 -15 -23 -27 44 -16 76 -73 41 -73 -11 0 -72 41 -77 53 -2 4 -10 7 -17 7 -8 0 -30 14 -48 30 -19 17 -37 30 -41 30 -9 0 -7 -45 3 -55 5 -6 14 -26 20 -45 7 -24 22 -42 46 -54 33 -18 36 -18 53 -3 30 28 66 21 101 -18 17 -20 31 -43 31 -51 0 -8 14 -20 31 -26 27 -9 29 -14 24 -39 -6 -24 -3 -29 13 -29 44 0 107 -126 129 -257 3 -18 11 -38 19 -44 8 -6 14 -25 14 -42 0 -16 9 -45 21 -63 11 -19 17 -38 14 -44 -4 -6 1 -22 10 -36 9 -14 23 -47 30 -72 37 -127 99 -252 126 -252 5 0 15 -12 21 -27 7 -16 21 -38 32 -51 12 -13 22 -36 23 -50 3 -53 29 -131 51 -154 14 -16 22 -37 22 -60 0 -23 6 -38 15 -42 10 -4 15 -19 15 -49 0 -24 5 -48 12 -55 6 -6 14 -30 18 -54 5 -24 16 -68 25 -98 9 -30 23 -118 31 -195 21 -221 31 -288 43 -319 7 -16 9 -36 6 -44 -3 -8 4 -30 15 -49 11 -19 20 -43 20 -53 0 -10 5 -22 10 -25 6 -4 8 -15 5 -24 -3 -10 1 -31 10 -47 8 -16 15 -35 15 -43 0 -8 4 -28 9 -45 5 -17 15 -51 22 -76 7 -25 19 -52 26 -61 7 -8 13 -27 13 -41 0 -14 6 -28 14 -31 8 -3 16 -26 19 -54 7 -65 22 -136 31 -151 4 -7 32 -12 73 -12 62 0 65 1 52 18 -24 28 -46 83 -64 162 -9 41 -26 98 -37 125 -40 97 -89 252 -123 385 -47 192 -54 229 -65 375 -14 195 -27 276 -77 493 -8 36 -32 92 -54 128 -21 35 -39 67 -39 71 0 4 -47 92 -104 197 -97 178 -114 220 -147 361 -50 209 -163 429 -321 621 -32 39 -58 77 -58 84 0 8 14 28 30 45 37 39 32 58 -21 79 -21 9 -39 20 -39 25 0 13 -54 18 -79 8z"/> <path d="M2612 3157 c-12 -13 -22 -29 -22 -35 0 -21 27 -13 44 13 30 46 15 61 -22 22z"/> <path d="M2520 3149 c0 -6 -17 -28 -37 -48 -21 -21 -63 -67 -93 -101 -30 -35 -60 -68 -66 -74 -11 -12 -131 -172 -154 -206 -8 -12 -19 -28 -25 -34 -10 -12 -25 -39 -67 -118 -11 -21 -24 -38 -28 -38 -4 0 -11 -11 -14 -25 -4 -14 -11 -25 -16 -25 -6 0 -10 -9 -10 -19 0 -11 -6 -26 -14 -34 -22 -22 -36 -85 -25 -114 5 -13 9 -52 9 -86 0 -83 19 -62 27 28 3 48 12 77 26 97 12 16 37 59 57 95 39 75 59 89 61 46 2 -24 2 -25 6 -5 3 14 -3 32 -13 43 -18 20 -15 22 27 19 21 -1 28 4 33 26 8 31 1 43 -16 26 -7 -7 -18 -12 -25 -12 -27 0 -11 40 45 106 108 131 180 233 208 294 4 8 20 27 36 42 15 15 28 29 28 32 0 3 16 21 35 40 38 38 44 56 20 56 -8 0 -15 -5 -15 -11z"/> <path d="M2705 3142 c-35 -21 -295 -279 -339 -338 -64 -86 -71 -97 -78 -118 -9 -32 -9 -106 1 -106 5 0 12 16 15 35 4 19 11 35 16 35 5 0 12 9 15 20 3 11 15 20 26 20 12 0 23 10 30 27 16 42 60 82 92 83 27 0 27 -1 27 -62 0 -41 -5 -67 -15 -78 -9 -10 -18 -41 -22 -71 -3 -30 -12 -63 -19 -74 -18 -26 -19 -128 -1 -123 7 3 13 28 15 65 2 38 8 66 17 73 8 7 15 27 15 44 0 17 7 40 15 50 8 11 15 30 15 42 0 12 7 27 15 34 8 7 15 20 15 30 0 10 7 23 15 30 8 7 15 23 15 35 0 13 7 25 15 29 8 3 15 15 15 26 0 11 7 23 15 26 8 4 15 17 15 30 0 15 6 24 15 24 8 0 15 7 15 15 0 9 7 18 15 21 8 4 15 12 15 19 0 10 9 24 50 72 5 7 10 19 10 27 0 8 5 18 10 21 6 3 10 17 10 31 0 20 -5 24 -27 24 -16 0 -41 -8 -58 -18z m-129 -224 c-3 -13 -6 -26 -6 -30 0 -14 -18 -8 -24 7 -8 21 3 45 21 45 11 0 14 -6 9 -22z"/> <path d="M2868 3125 c-33 -33 -44 -47 -67 -91 -32 -60 -45 -78 -58 -87 -7 -4 -13 -17 -13 -27 0 -11 -4 -20 -9 -20 -11 0 -51 -75 -51 -94 0 -8 -7 -16 -15 -20 -9 -3 -15 -18 -15 -35 0 -16 -6 -31 -15 -35 -9 -3 -15 -18 -15 -34 0 -16 -7 -35 -15 -42 -8 -7 -15 -26 -15 -42 0 -16 -6 -31 -15 -34 -10 -4 -15 -20 -15 -49 0 -26 -6 -47 -15 -55 -16 -14 -21 -95 -6 -104 10 -6 20 26 21 64 0 14 7 34 15 44 8 11 15 27 15 36 0 8 9 32 19 51 11 20 17 46 14 57 -3 13 2 28 11 37 9 9 16 23 16 31 0 8 4 14 9 14 13 0 25 39 22 68 -2 18 3 22 23 22 29 0 50 31 41 60 -4 13 -1 22 10 26 9 4 23 20 31 36 11 21 21 28 33 25 10 -2 29 2 42 9 36 20 69 17 106 -12 27 -21 33 -32 33 -64 0 -21 5 -42 10 -45 6 -3 10 -15 10 -26 0 -10 -4 -19 -10 -19 -6 0 -10 -30 -10 -70 0 -52 3 -70 14 -70 9 0 15 22 20 78 11 124 22 185 39 217 9 17 17 38 17 47 0 9 5 20 10 23 18 11 11 38 -8 33 -10 -3 -27 1 -36 8 -10 7 -24 10 -32 7 -8 -3 -17 2 -20 11 -7 17 -34 22 -34 6 0 -13 -47 -13 -55 0 -3 5 3 20 15 32 24 26 22 38 -7 49 -16 6 -27 2 -45 -16z"/> <path d="M2532 3071 c-23 -22 -42 -44 -42 -49 0 -5 21 10 46 35 26 24 44 46 42 48 -2 3 -23 -13 -46 -34z"/> <path d="M3390 3070 c0 -11 5 -20 10 -20 6 0 10 9 10 20 0 11 -4 20 -10 20 -5 0 -10 -9 -10 -20z"/> <path d="M3144 3021 c-4 -17 -11 -34 -15 -37 -5 -3 -9 -35 -9 -72 -1 -39 -7 -77 -15 -92 -10 -18 -14 -59 -15 -140 0 -127 6 -166 24 -151 7 6 11 47 10 114 -1 95 1 106 18 110 10 3 18 14 18 26 0 25 32 43 63 36 29 -8 48 27 39 71 -4 22 -70 121 -108 163 -2 2 -7 -10 -10 -28z"/> <path d="M5630 3040 c0 -5 7 -10 15 -10 8 0 15 5 15 10 0 6 -7 10 -15 10 -8 0 -15 -4 -15 -10z"/> <path d="M3410 2989 c0 -41 -4 -52 -19 -56 -13 -3 -20 -17 -25 -50 -10 -72 -7 -138 6 -151 7 -7 15 -35 18 -63 6 -59 20 -68 32 -19 5 19 16 40 25 47 12 9 13 20 7 45 -4 18 -8 87 -8 153 -1 66 -5 126 -9 133 -17 25 -27 10 -27 -39z"/> <path d="M5230 3016 c0 -7 10 -20 23 -29 l22 -15 -25 -20 c-24 -20 -25 -20 -49 -1 -31 25 -51 24 -51 -1 0 -11 6 -20 14 -20 25 0 26 -29 1 -57 l-23 -28 -24 23 c-13 12 -33 22 -44 22 -18 -1 -18 -1 -1 -14 9 -7 17 -18 17 -25 0 -6 6 -11 14 -11 8 0 16 -3 18 -7 6 -14 78 -43 105 -43 14 0 32 -8 39 -17 10 -15 15 -16 26 -5 11 11 10 15 -3 25 -8 7 -18 20 -22 30 -4 10 -17 17 -31 17 -16 0 -27 7 -31 20 -14 45 36 58 78 22 14 -13 21 -13 41 -3 28 15 61 7 70 -16 8 -20 -10 -33 -46 -33 -26 0 -27 -2 -16 -24 l11 -25 36 23 c30 19 35 28 33 52 -2 16 -8 31 -13 32 -5 2 -9 9 -9 15 0 12 -80 87 -92 87 -5 0 -17 9 -28 20 -23 23 -40 26 -40 6z"/> <path d="M3920 3000 c0 -11 4 -20 9 -20 11 0 22 26 14 34 -12 12 -23 5 -23 -14z"/> <path d="M5385 3000 c-12 -19 8 -55 51 -93 24 -21 46 -47 49 -57 9 -27 34 -25 39 3 15 69 12 87 -13 110 -14 13 -45 29 -67 35 -50 15 -51 15 -59 2z"/> <path d="M3286 2991 c-8 -12 3 -41 15 -41 5 0 9 11 9 25 0 25 -14 34 -24 16z"/> <path d="M3623 2988 c-15 -19 -25 -83 -17 -112 7 -30 43 -36 64 -11 7 8 19 15 26 15 8 0 14 5 14 11 0 5 -10 9 -22 7 -19 -3 -23 2 -24 27 0 26 -19 75 -28 75 -2 0 -8 -6 -13 -12z"/> <path d="M4154 2992 c-6 -4 -14 -29 -16 -55 -7 -63 -23 -80 -39 -41 l-11 29 -9 -25 c-6 -13 -12 -26 -14 -28 -2 -2 -22 17 -45 42 -63 68 -92 58 -70 -23 6 -24 21 -48 35 -57 14 -9 25 -25 25 -36 0 -15 4 -18 18 -13 28 12 112 24 127 19 8 -4 33 10 57 30 23 20 52 36 65 36 14 0 23 6 23 15 0 8 -7 15 -16 15 -14 0 -74 54 -74 67 0 6 -32 32 -40 33 -3 0 -10 -4 -16 -8z"/> <path d="M3804 2966 c-4 -10 2 -23 17 -36 44 -36 55 -18 14 26 -21 22 -26 24 -31 10z"/> <path d="M4912 2915 c-10 -34 -9 -37 14 -47 30 -14 30 -21 0 -37 -33 -18 -46 -7 -44 38 1 44 -7 61 -29 61 -11 0 -14 -6 -10 -21 14 -53 -25 -58 -62 -8 -27 36 -51 38 -51 4 0 -16 -6 -25 -15 -25 -18 0 -20 -31 -3 -48 10 -10 10 -14 0 -21 -15 -9 -32 -65 -32 -106 1 -27 2 -28 14 -12 10 13 28 17 85 17 55 0 71 3 71 14 0 8 -13 17 -30 21 -21 5 -30 13 -30 26 0 15 -5 18 -24 13 -29 -7 -44 12 -16 21 23 7 27 30 5 39 -8 3 -15 12 -15 21 0 21 23 9 73 -38 20 -20 46 -38 56 -42 11 -3 22 -12 25 -20 3 -8 15 -15 26 -15 15 0 20 7 20 25 0 14 7 28 15 31 8 4 15 12 15 20 0 8 7 14 15 14 17 0 20 -25 5 -35 -5 -3 -10 -17 -10 -31 0 -21 4 -25 23 -22 16 2 23 11 25 33 4 33 22 60 22 32 0 -20 54 -77 74 -77 22 0 30 19 12 26 -9 3 -23 21 -32 40 -9 19 -24 34 -33 34 -9 0 -22 9 -29 20 -7 11 -23 20 -36 20 -16 0 -35 13 -54 35 l-29 35 -11 -35z"/> <path d="M8000 2920 c0 -13 5 -20 13 -17 6 2 12 10 12 17 0 7 -6 15 -12 18 -8 2 -13 -5 -13 -18z"/> <path d="M4586 2921 c-12 -20 -9 -81 5 -98 9 -10 19 -26 22 -35 7 -21 23 -23 30 -5 9 25 -10 104 -31 125 -12 12 -23 18 -26 13z"/> <path d="M3530 2897 c0 -13 5 -28 12 -35 9 -9 8 -15 -7 -26 -19 -13 -19 -16 -3 -48 l16 -35 46 11 c46 10 60 29 31 40 -8 3 -15 14 -15 25 0 18 -59 91 -74 91 -3 0 -6 -10 -6 -23z"/> <path d="M3883 2903 c-18 -7 -16 -30 4 -37 21 -8 38 8 30 28 -7 16 -13 18 -34 9z"/> <path d="M6765 2883 c-4 -17 -2 -29 4 -31 6 -2 11 -10 11 -18 0 -19 14 -18 31 2 11 14 10 18 -10 34 -14 9 -21 22 -17 29 4 6 3 11 -2 11 -6 0 -13 -12 -17 -27z"/> <path d="M3480 2865 c1 -26 2 -28 11 -12 8 14 8 22 0 30 -8 8 -11 3 -11 -18z"/> <path d="M4348 2862 c-13 -16 -31 -26 -41 -24 -17 3 -36 -13 -77 -62 -14 -17 -13 -18 17 -12 17 4 34 3 37 -2 3 -6 15 -8 25 -5 10 3 22 0 25 -6 9 -14 26 -14 26 0 0 14 47 59 61 59 20 0 8 48 -16 64 -31 20 -29 21 -57 -12z"/> <path d="M2187 2853 c-10 -9 -9 -23 2 -23 5 0 11 7 15 15 5 15 -5 20 -17 8z"/> <path d="M3768 2848 c5 -7 12 -22 14 -33 5 -18 6 -19 13 -2 7 18 -9 47 -27 47 -7 0 -7 -4 0 -12z"/> <path d="M3827 2840 c-3 -10 1 -25 9 -31 8 -7 12 -20 9 -29 -6 -20 18 -50 40 -50 19 0 27 16 28 57 1 26 -5 41 -22 54 -30 25 -57 24 -64 -1z"/> <path d="M4527 2853 c-4 -3 -7 -19 -7 -34 0 -36 -10 -60 -21 -53 -5 3 -9 20 -9 39 0 46 -12 50 -39 15 -15 -21 -20 -37 -15 -55 8 -31 21 -40 55 -37 15 1 32 -5 39 -13 34 -41 55 -4 40 74 -13 69 -23 84 -43 64z"/> <path d="M3680 2821 c0 -5 7 -16 15 -25 18 -17 20 -42 4 -52 -7 -4 -8 -9 0 -17 7 -7 15 -6 26 3 21 17 19 47 -5 60 -11 6 -20 17 -20 25 0 8 -4 15 -10 15 -5 0 -10 -4 -10 -9z"/> <path d="M8972 2818 c6 -18 28 -21 28 -4 0 9 -7 16 -16 16 -9 0 -14 -5 -12 -12z"/> <path d="M6740 2788 c0 -6 8 -20 17 -30 14 -16 15 -23 5 -39 -10 -16 -9 -19 7 -19 36 0 36 45 -1 82 -21 21 -28 23 -28 6z"/> <path d="M5446 2783 c-12 -12 -6 -33 9 -33 8 0 15 6 15 14 0 17 -14 28 -24 19z"/> <path d="M8000 2766 c0 -14 4 -27 9 -31 12 -7 25 31 16 45 -11 18 -25 10 -25 -14z"/> <path d="M3207 2764 c-4 -4 2 -14 13 -21 11 -8 18 -18 15 -23 -8 -13 6 -40 21 -40 21 0 30 31 13 44 -8 6 -14 18 -14 26 0 16 -36 26 -48 14z"/> <path d="M5476 2732 c-8 -13 5 -53 15 -46 12 7 12 41 0 49 -5 3 -12 2 -15 -3z"/> <path d="M8975 2717 c-9 -22 -2 -62 10 -60 6 1 11 14 13 29 4 32 -14 56 -23 31z"/> <path d="M6800 2675 c0 -8 5 -15 10 -15 6 0 10 7 10 15 0 8 -4 15 -10 15 -5 0 -10 -7 -10 -15z"/> <path d="M3297 2644 c-7 -8 24 -74 35 -74 4 0 8 11 8 23 0 24 -32 62 -43 51z"/> <path d="M7976 2625 c-7 -19 3 -47 15 -39 12 7 12 54 0 54 -5 0 -11 -7 -15 -15z"/> <path d="M8974 2626 c-4 -10 -2 -22 4 -28 8 -8 13 -7 18 6 4 10 2 22 -4 28 -8 8 -13 7 -18 -6z"/> <path d="M3007 2604 c-8 -8 3 -156 13 -174 16 -28 23 16 15 95 -6 70 -14 92 -28 79z"/> <path d="M2254 2555 c-8 -21 6 -41 17 -24 12 19 11 39 -1 39 -6 0 -13 -7 -16 -15z"/> <path d="M3120 2446 c0 -8 5 -18 10 -21 6 -3 10 3 10 14 0 12 -4 21 -10 21 -5 0 -10 -6 -10 -14z"/> <path d="M2423 2363 c-14 -24 -16 -103 -3 -143 13 -42 21 -2 18 86 -3 69 -5 76 -15 57z"/> <path d="M4537 2369 c-12 -7 -40 -8 -71 -5 -36 5 -67 2 -99 -9 -36 -12 -60 -14 -109 -6 -35 5 -270 8 -523 7 -509 -1 -553 -6 -606 -58 -15 -16 -30 -43 -33 -61 -2 -18 -10 -68 -16 -112 -6 -44 -11 -96 -10 -115 1 -19 -1 -75 -3 -124 -4 -60 -1 -103 9 -135 7 -25 14 -58 14 -73 0 -21 5 -28 20 -28 18 0 20 7 21 68 1 37 3 112 5 167 2 55 5 165 7 245 2 80 7 151 11 158 9 15 66 16 103 1 37 -15 958 -14 1103 1 93 10 174 20 278 37 40 6 41 19 2 28 -16 4 -32 11 -35 16 -8 12 -46 11 -68 -2z"/> <path d="M2497 2296 c-10 -24 -7 -460 2 -516 l8 -45 3 45 c1 25 2 130 2 234 0 104 4 200 9 213 6 16 5 34 -4 56 -11 26 -14 28 -20 13z"/> <path d="M4711 2262 c-7 -26 -17 -85 -23 -132 -5 -47 -13 -89 -18 -94 -5 -5 -23 9 -42 30 -83 97 -82 96 -188 89 -324 -21 -434 -24 -514 -12 -53 8 -74 7 -89 -3 -17 -10 -23 -10 -33 5 -12 17 -18 16 -91 -8 -43 -15 -100 -33 -128 -42 -49 -15 -50 -17 -68 -73 -20 -65 -22 -108 -6 -118 22 -13 40 23 46 95 6 70 7 72 32 69 25 -3 26 -6 26 -58 0 -102 -43 -190 -91 -190 -31 0 -81 44 -87 77 -3 15 1 59 8 98 10 53 20 75 39 90 34 28 36 75 3 75 -16 0 -26 -9 -34 -31 -11 -28 -15 -30 -55 -27 -57 4 -65 -24 -18 -62 29 -23 34 -35 37 -81 5 -62 -19 -111 -62 -131 -31 -14 -90 10 -118 48 -18 23 -17 25 8 50 24 24 27 25 50 10 31 -20 49 -20 66 0 12 14 9 19 -16 40 -17 12 -41 32 -53 44 -23 20 -25 20 -43 4 -10 -9 -19 -28 -19 -42 0 -13 -7 -37 -17 -52 -19 -34 -9 -66 37 -117 28 -31 31 -32 127 -36 110 -5 150 -13 176 -35 9 -8 20 -12 24 -8 21 21 60 165 71 266 l7 65 50 1 c28 0 60 -1 71 -4 23 -4 49 -46 59 -96 8 -40 17 -26 24 41 l6 58 55 0 c53 0 55 -1 58 -27 4 -35 19 -36 34 -3 22 49 92 45 121 -6 20 -35 26 -33 42 14 l10 32 77 -2 c42 -2 80 2 83 7 3 6 17 10 31 10 18 0 29 -9 41 -35 9 -19 20 -35 24 -35 4 0 16 17 26 38 19 39 43 49 89 38 43 -11 75 -116 40 -129 -11 -4 -13 -16 -10 -39 5 -27 1 -38 -20 -57 -39 -37 -79 -32 -118 13 -33 38 -33 38 -34 12 -3 -40 -12 -56 -32 -56 -37 0 -46 25 -28 77 19 54 20 79 6 88 -24 15 -40 -17 -40 -79 0 -68 -17 -103 -44 -93 -27 10 -30 36 -14 98 17 61 15 69 -13 69 -23 0 -29 -20 -29 -90 0 -56 -15 -90 -40 -90 -17 0 -30 40 -28 82 2 34 0 42 -12 39 -8 -3 -28 -5 -45 -6 -51 -3 -55 -5 -55 -19 0 -21 20 -30 33 -17 6 6 21 11 34 11 32 0 31 -39 -1 -70 -30 -27 -65 -29 -99 -4 -31 23 -41 58 -32 119 8 51 -5 59 -44 28 -16 -14 -23 -34 -27 -83 -7 -69 -22 -91 -54 -83 -15 4 -20 14 -20 39 0 39 -16 45 -29 11 -11 -29 -48 -48 -86 -45 -30 3 -30 2 -27 -42 2 -24 5 -46 7 -49 3 -2 22 3 42 12 21 8 62 18 92 21 29 3 65 13 78 21 20 13 31 14 55 6 17 -6 45 -11 62 -11 18 0 37 -5 43 -11 7 -7 17 -8 25 -3 7 5 42 9 78 10 36 0 128 4 205 9 l140 7 62 47 c47 35 62 53 65 75 5 46 28 45 27 -1 -1 -21 3 -68 8 -105 8 -59 5 -84 -12 -106 -9 -12 -148 -28 -310 -36 -71 -4 -173 -10 -225 -14 -52 -4 -165 -5 -250 -3 -85 2 -281 4 -435 5 -250 1 -280 -1 -283 -15 -4 -22 58 -34 228 -42 41 -2 87 -7 101 -11 16 -5 29 -3 33 3 9 14 63 14 72 0 4 -7 41 -10 104 -8 54 2 102 1 106 -3 4 -5 13 -3 21 4 10 8 20 8 39 -1 15 -7 51 -9 92 -5 37 3 108 7 157 8 120 4 306 24 358 37 23 6 67 12 97 13 80 3 130 38 130 93 0 16 8 25 24 29 31 7 39 27 21 51 -17 22 -19 65 -4 80 7 7 8 17 3 25 -13 21 -15 90 -3 120 6 14 11 73 12 130 2 80 -2 108 -14 125 -15 22 -16 22 -28 -25z"/> <path d="M1920 2275 c0 -8 -7 -18 -15 -21 -8 -4 -15 -14 -15 -23 0 -10 -7 -26 -15 -37 -8 -10 -15 -27 -15 -37 0 -11 -6 -31 -13 -45 -8 -15 -21 -42 -30 -60 -9 -19 -17 -45 -17 -58 0 -14 -7 -27 -15 -30 -10 -4 -15 -20 -15 -44 0 -24 -5 -40 -15 -44 -17 -6 -21 -81 -6 -91 14 -8 26 16 22 43 -2 15 5 29 18 39 12 8 21 25 21 37 0 13 7 29 15 36 8 7 15 23 15 36 0 19 5 24 24 24 19 0 25 6 29 33 25 155 37 224 41 234 3 7 1 15 -4 18 -6 4 -10 -1 -10 -10z"/> <path d="M3334 2215 c-48 -12 -84 -40 -84 -66 0 -33 18 -30 49 8 30 37 33 38 91 36 62 -2 81 12 33 23 -16 3 -32 7 -38 8 -5 1 -29 -3 -51 -9z"/> <path d="M2390 2012 c0 -46 4 -71 10 -67 13 8 13 105 0 125 -7 10 -10 -7 -10 -58z"/> <path d="M4056 1991 c-3 -5 0 -11 8 -14 15 -6 26 1 26 15 0 11 -27 10 -34 -1z"/> <path d="M3705 1966 c-19 -28 -14 -53 10 -62 24 -9 56 25 53 55 -4 37 -41 40 -63 7z"/> <path d="M8972 1963 c4 -39 28 -42 28 -4 0 21 -5 31 -16 31 -11 0 -14 -8 -12 -27z"/> <path d="M4490 1946 c0 -24 14 -25 39 -5 l23 19 -31 0 c-20 0 -31 -5 -31 -14z"/> <path d="M7946 1932 c-3 -6 -1 -14 5 -17 15 -10 25 3 12 16 -7 7 -13 7 -17 1z"/> <path d="M8067 1923 c-10 -9 -9 -43 1 -43 16 0 52 32 47 41 -7 10 -38 12 -48 2z"/> <path d="M8160 1900 c-13 -8 -12 -10 3 -10 9 0 20 0 24 -1 4 0 9 4 11 10 5 14 -18 14 -38 1z"/> <path d="M2417 1849 c-3 -12 -3 -44 0 -71 8 -63 23 -43 23 29 0 54 -14 78 -23 42z"/> <path d="M6823 1812 c-24 -2 -43 -8 -43 -13 0 -9 87 -3 98 6 8 7 -16 10 -55 7z"/> <path d="M1600 1734 c0 -31 23 -28 28 4 2 15 -2 22 -12 22 -11 0 -16 -9 -16 -26z"/> <path d="M1702 1721 c-12 -17 -22 -37 -22 -45 0 -23 19 -30 26 -9 3 10 10 28 16 40 17 36 4 46 -20 14z"/> <path d="M3630 1710 c0 -5 6 -10 14 -10 8 0 18 5 21 10 3 6 -3 10 -14 10 -12 0 -21 -4 -21 -10z"/> <path d="M1576 1683 c-12 -12 -6 -33 9 -33 8 0 15 6 15 14 0 17 -14 28 -24 19z"/> <path d="M1541 1618 c-5 -13 -21 -40 -35 -61 -14 -21 -26 -42 -26 -47 0 -19 21 -10 30 13 15 33 33 61 48 70 14 10 16 47 2 47 -6 0 -14 -10 -19 -22z"/> <path d="M2450 1538 c0 -31 3 -39 10 -28 13 20 13 57 0 65 -6 4 -10 -11 -10 -37z"/> <path d="M1593 1513 c-4 -10 -12 -22 -20 -26 -17 -11 -17 -27 1 -27 16 0 46 37 46 57 0 19 -20 16 -27 -4z"/> <path d="M2453 1435 c0 -22 2 -30 4 -17 2 12 2 30 0 40 -3 9 -5 -1 -4 -23z"/> <path d="M204 1336 c-10 -26 4 -46 30 -46 36 0 37 12 5 38 -25 20 -30 21 -35 8z"/> <path d="M94 1309 c-3 -6 2 -20 13 -30 24 -25 53 -15 53 17 0 20 -5 24 -29 24 -17 0 -33 -5 -37 -11z"/> </g> </svg> 