<?xml version="1.0" encoding="UTF-8"?>
<svg version="1.1" xmlns="http://www.w3.org/2000/svg" width="512" height="512">
<path d="M0 0 C0.78087859 -0.00175304 1.56175718 -0.00350607 2.36629876 -0.00531223 C4.986619 -0.00996939 7.60688368 -0.00750746 10.22720623 -0.00507832 C12.12337896 -0.00694643 14.0195513 -0.00924713 15.91572303 -0.01194364 C21.12951974 -0.01806798 26.34330044 -0.0179273 31.55709994 -0.01674926 C37.17889855 -0.01654542 42.800692 -0.02206246 48.42248821 -0.02680683 C59.43773393 -0.03511736 70.4529743 -0.03786185 81.46822289 -0.03841921 C90.42061679 -0.03889417 99.37300892 -0.0409479 108.32540226 -0.04411983 C129.56993426 -0.05149397 150.81446478 -0.05764454 172.05899811 -0.05712128 C172.73839077 -0.0571057 173.41778342 -0.05709012 174.11776374 -0.05707407 C177.56119978 -0.05699096 181.00463583 -0.05689192 184.44807187 -0.05678936 C185.13194931 -0.05676942 185.81582674 -0.05674947 186.52042773 -0.05672892 C187.90339449 -0.05668848 189.28636125 -0.05664669 190.66932801 -0.05660353 C212.18632343 -0.05599077 233.70330309 -0.06349756 255.220294 -0.07717609 C279.3951747 -0.09253794 303.57004174 -0.10112959 327.74492854 -0.10021287 C340.54481261 -0.09988067 353.34467891 -0.10263792 366.14455891 -0.11339092 C377.04189153 -0.12248686 387.93919833 -0.12467863 398.83653311 -0.1178815 C404.39706452 -0.11461175 409.95754635 -0.11457604 415.51807308 -0.12323475 C420.60884847 -0.13108049 425.6995348 -0.12968801 430.79030796 -0.12095062 C432.63146135 -0.11941139 434.47262131 -0.12124768 436.31376693 -0.12681069 C438.81868582 -0.13387771 441.32329288 -0.12857174 443.82820129 -0.12025452 C444.89716234 -0.12770679 444.89716234 -0.12770679 445.98771855 -0.13530961 C455.31488449 -0.06995905 462.93909747 2.00173027 470.10286236 8.12863445 C475.17903003 13.67120214 478.34723747 18.99119232 478.36292458 26.65102959 C478.36999017 27.75557084 478.37705576 28.8601121 478.38433546 29.9981243 C478.38192037 31.20627856 478.37950529 32.41443282 478.37701702 33.65919781 C478.3822537 34.94681682 478.38749038 36.23443583 478.39288574 37.5610736 C478.40706183 41.13338899 478.40872911 44.70561736 478.40828884 48.27795684 C478.40993741 52.13155692 478.42300474 55.98512119 478.43448162 59.8387022 C478.45732834 68.26442817 478.46525197 76.69012894 478.47030807 85.11588168 C478.47356567 90.37830814 478.48008856 95.64072728 478.48730946 100.9031496 C478.50687547 115.47710433 478.5232795 130.05105227 478.52618599 144.62502098 C478.52637356 145.55759491 478.52656113 146.49016884 478.52675438 147.45100259 C478.52712063 149.3415132 478.52748433 151.23202381 478.52784549 153.12253442 C478.52802831 154.06097077 478.52821112 154.99940712 478.52839947 155.96628094 C478.52867029 157.37565642 478.52867029 157.37565642 478.52894659 158.81350414 C478.53248757 174.03516395 478.55950518 189.25668223 478.59689736 204.47829296 C478.63499187 220.11109868 478.65434355 235.74383419 478.6546455 251.37668735 C478.65522984 260.15194519 478.66370638 268.92703422 478.69264317 277.70224857 C478.71717244 285.1751796 478.7244296 292.64788027 478.70939564 300.12084069 C478.70223281 303.93180935 478.70305644 307.74232327 478.72580624 311.55324078 C478.75026519 315.69021132 478.73574303 319.82615001 478.71759319 323.96315289 C478.73079316 325.16015353 478.74399313 326.35715418 478.7575931 327.59042758 C478.67265105 336.07488405 476.99911126 342.90745385 471.12625974 349.27007788 C463.24335262 356.7280249 454.83921125 358.28763752 444.20572472 358.25726891 C443.42484612 358.25902194 442.64396753 358.26077498 441.83942595 358.26258114 C439.21910571 358.26723829 436.59884104 358.26477636 433.97851849 358.26234722 C432.08234576 358.26421533 430.18617342 358.26651604 428.29000169 358.26921254 C423.07620497 358.27533688 417.86242427 358.2751962 412.64862478 358.27401817 C407.02682616 358.27381432 401.40503272 358.27933137 395.7832365 358.28407574 C384.76799078 358.29238627 373.75275041 358.29513076 362.73750182 358.29568812 C353.78510792 358.29616307 344.83271579 358.29821681 335.88032246 358.30138874 C314.63579045 358.30876287 293.39125993 358.31491345 272.14672661 358.31439018 C271.46733395 358.3143746 270.78794129 358.31435903 270.08796098 358.31434297 C266.64452493 358.31425987 263.20108889 358.31416083 259.75765284 358.31405827 C259.07377541 358.31403832 258.38989798 358.31401838 257.68529699 358.31399783 C256.30233023 358.31395739 254.91936347 358.31391559 253.53639671 358.31387244 C232.01940129 358.31325967 210.50242163 358.32076646 188.98543072 358.334445 C164.81055002 358.34980685 140.63568298 358.3583985 116.46079618 358.35748178 C103.66091211 358.35714958 90.86104581 358.35990683 78.06116581 358.37065983 C67.16383318 358.37975576 56.26652638 358.38194753 45.36919161 358.3751504 C39.8086602 358.37188066 34.24817836 358.37184495 28.68765163 358.38050365 C23.59687625 358.3883494 18.50618992 358.38695692 13.41541675 358.37821952 C11.57426337 358.37668029 9.7331034 358.37851658 7.89195778 358.3840796 C5.3870389 358.39114662 2.88243184 358.38584065 0.37752342 358.37752342 C-0.33511727 358.3824916 -1.04775797 358.38745978 -1.78199384 358.39257851 C-11.10915977 358.32722796 -18.73337275 356.25553863 -25.89713764 350.12863445 C-30.97330531 344.58606676 -34.14151276 339.26607659 -34.15719986 331.60623932 C-34.16426545 330.50169806 -34.17133104 329.39715681 -34.17861074 328.2591446 C-34.17619566 327.05099035 -34.17378057 325.84283609 -34.1712923 324.5980711 C-34.17652898 323.31045209 -34.18176566 322.02283307 -34.18716103 320.6961953 C-34.20133712 317.12387992 -34.2030044 313.55165155 -34.20256412 309.97931206 C-34.20421269 306.12571198 -34.21728002 302.27214772 -34.2287569 298.4185667 C-34.25160362 289.99284074 -34.25952726 281.56713997 -34.26458335 273.14138722 C-34.26784095 267.87896077 -34.27436384 262.61654162 -34.28158474 257.3541193 C-34.30115076 242.78016457 -34.31755478 228.20621663 -34.32046127 213.63224792 C-34.32064884 212.69967399 -34.32083641 211.76710006 -34.32102967 210.80626632 C-34.32139591 208.91575571 -34.32175961 207.0252451 -34.32212078 205.13473449 C-34.32230359 204.19629814 -34.3224864 203.25786179 -34.32267475 202.29098797 C-34.3228553 201.35140431 -34.32303585 200.41182066 -34.32322187 199.44376477 C-34.32676285 184.22210496 -34.35378047 169.00058668 -34.39117264 153.77897594 C-34.42926715 138.14617023 -34.44861884 122.51343472 -34.44892079 106.88058156 C-34.44950512 98.10532372 -34.45798166 89.33023469 -34.48691845 80.55502033 C-34.51144773 73.0820893 -34.51870489 65.60938863 -34.50367092 58.13642821 C-34.49650809 54.32545955 -34.49733173 50.51494563 -34.52008152 46.70402813 C-34.54454047 42.56705759 -34.53001832 38.4311189 -34.51186848 34.29411602 C-34.52506844 33.09711537 -34.53826841 31.90011472 -34.55186838 30.66684133 C-34.46692633 22.18238485 -32.79338654 15.34981505 -26.92053503 8.98719102 C-19.0376279 1.529244 -10.63348653 -0.03036861 0 0 Z " fill="#FE9933" transform="translate(33.89713764190674,76.87136554718018)"/>
<path d="M0 0 C168.96 0 337.92 0 512 0 C512 103.91935484 512 103.91935484 503.125 112.9375 C495.51410032 119.01763602 487.6762671 120.15597553 478.10286236 120.12863445 C477.32198377 120.13038749 476.54110517 120.13214053 475.73656359 120.13394669 C473.11624336 120.13860384 470.49597868 120.13614191 467.87565613 120.13371277 C465.9794834 120.13558088 464.08331106 120.13788159 462.18713933 120.14057809 C456.97334261 120.14670243 451.75956192 120.14656175 446.54576242 120.14538372 C440.92396381 120.14517987 435.30217036 120.15069692 429.68037415 120.15544128 C418.66512843 120.16375181 407.64988806 120.1664963 396.63463946 120.16705366 C387.68224557 120.16752862 378.72985344 120.16958236 369.7774601 120.17275429 C348.53292809 120.18012842 327.28839757 120.18627899 306.04386425 120.18575573 C305.36447159 120.18574015 304.68507894 120.18572457 303.98509862 120.18570852 C300.54166258 120.18562541 297.09822653 120.18552637 293.65479048 120.18542381 C292.97091305 120.18540387 292.28703562 120.18538392 291.58243463 120.18536337 C290.19946787 120.18532294 288.81650111 120.18528114 287.43353435 120.18523798 C265.91653893 120.18462522 244.39955927 120.19213201 222.88256836 120.20581055 C198.70768766 120.2211724 174.53282062 120.22976404 150.35793382 120.22884732 C137.55804975 120.22851512 124.75818345 120.23127238 111.95830345 120.24202538 C101.06097082 120.25112131 90.16366403 120.25331308 79.26632925 120.24651595 C73.70579784 120.2432462 68.145316 120.2432105 62.58478928 120.2518692 C57.49401389 120.25971494 52.40332756 120.25832247 47.3125544 120.24958507 C45.47140101 120.24804584 43.63024105 120.24988213 41.78909542 120.25544515 C39.28417654 120.26251216 36.77956948 120.2572062 34.27466106 120.24888897 C33.20570002 120.25634124 33.20570002 120.25634124 32.11514381 120.26394406 C22.78797787 120.19859351 15.16376489 118.12690418 8 112 C-17.80542652 83.82356207 0 24.45088839 0 0 Z " fill="#138807" transform="translate(0,315)"/>
<path d="M0 0 C168.96 0 337.92 0 512 0 C512 38.94 512 77.88 512 118 C343.04 118 174.08 118 0 118 C0 79.06 0 40.12 0 0 Z " fill="#FEFEFE" transform="translate(0,197)"/>
<path d="M0 0 C6.98600034 4.63191837 11.76039292 10.10984794 16.05078125 17.2734375 C16.84355469 18.57667969 16.84355469 18.57667969 17.65234375 19.90625 C22.90197631 30.20022222 22.6508016 43.02930867 20.19921875 54.12890625 C15.39257624 67.8131232 6.66325529 76.88203619 -5.8046875 83.875 C-16.42185171 88.79213426 -29.26090573 89.07758415 -40.578125 86.421875 C-43.58679452 85.26861706 -46.19800852 83.94702236 -48.94921875 82.2734375 C-50.37621094 81.41878906 -50.37621094 81.41878906 -51.83203125 80.546875 C-62.57188875 73.4357432 -70.15597007 62.91993497 -72.94921875 50.2734375 C-74.29012945 38.70402286 -74.1387072 27.44835265 -67.94921875 17.2734375 C-67.09457031 15.84644531 -67.09457031 15.84644531 -66.22265625 14.390625 C-61.57362579 7.36924978 -56.14903148 2.58552046 -48.94921875 -1.7265625 C-48.08039063 -2.25507813 -47.2115625 -2.78359375 -46.31640625 -3.328125 C-31.70041775 -10.78186272 -13.63483586 -7.98224828 0 0 Z " fill="#F1F1F2" transform="translate(281.94921875,215.7265625)"/>
<path d="M0 0 C6.98600034 4.63191837 11.76039292 10.10984794 16.05078125 17.2734375 C16.84355469 18.57667969 16.84355469 18.57667969 17.65234375 19.90625 C22.90197631 30.20022222 22.6508016 43.02930867 20.19921875 54.12890625 C15.39257624 67.8131232 6.66325529 76.88203619 -5.8046875 83.875 C-16.42185171 88.79213426 -29.26090573 89.07758415 -40.578125 86.421875 C-43.58679452 85.26861706 -46.19800852 83.94702236 -48.94921875 82.2734375 C-50.37621094 81.41878906 -50.37621094 81.41878906 -51.83203125 80.546875 C-62.57188875 73.4357432 -70.15597007 62.91993497 -72.94921875 50.2734375 C-74.29012945 38.70402286 -74.1387072 27.44835265 -67.94921875 17.2734375 C-67.09457031 15.84644531 -67.09457031 15.84644531 -66.22265625 14.390625 C-61.57362579 7.36924978 -56.14903148 2.58552046 -48.94921875 -1.7265625 C-48.08039063 -2.25507813 -47.2115625 -2.78359375 -46.31640625 -3.328125 C-31.70041775 -10.78186272 -13.63483586 -7.98224828 0 0 Z M-28.94921875 -1.7265625 C-29.27921875 -1.0665625 -29.60921875 -0.4065625 -29.94921875 0.2734375 C-30.93921875 0.6034375 -31.92921875 0.9334375 -32.94921875 1.2734375 C-32.94921875 0.6134375 -32.94921875 -0.0465625 -32.94921875 -0.7265625 C-35.88365277 -0.45999678 -35.88365277 -0.45999678 -38.94921875 0.2734375 C-39.93921875 1.7584375 -39.93921875 1.7584375 -40.94921875 3.2734375 C-42.10421875 3.4178125 -43.25921875 3.5621875 -44.44921875 3.7109375 C-45.60421875 3.8965625 -46.75921875 4.0821875 -47.94921875 4.2734375 C-49.11588542 6.19010417 -49.11588542 6.19010417 -49.94921875 8.2734375 C-52.44921875 9.3984375 -52.44921875 9.3984375 -54.94921875 10.2734375 C-57.10215398 12.04991678 -57.10215398 12.04991678 -57.32421875 14.2734375 C-57.53046875 14.9334375 -57.73671875 15.5934375 -57.94921875 16.2734375 C-58.60921875 16.5415625 -59.26921875 16.8096875 -59.94921875 17.0859375 C-60.60921875 17.4778125 -61.26921875 17.8696875 -61.94921875 18.2734375 C-62.32322661 20.6005975 -62.65686608 22.93461612 -62.94921875 25.2734375 C-63.93921875 25.9334375 -64.92921875 26.5934375 -65.94921875 27.2734375 C-66.68265303 30.33900348 -66.68265303 30.33900348 -66.94921875 33.2734375 C-66.28921875 33.2734375 -65.62921875 33.2734375 -64.94921875 33.2734375 C-65.94921875 36.2734375 -65.94921875 36.2734375 -67.94921875 37.2734375 C-67.94921875 39.2534375 -67.94921875 41.2334375 -67.94921875 43.2734375 C-67.28921875 43.6034375 -66.62921875 43.9334375 -65.94921875 44.2734375 C-65.61921875 45.2634375 -65.28921875 46.2534375 -64.94921875 47.2734375 C-65.60921875 47.2734375 -66.26921875 47.2734375 -66.94921875 47.2734375 C-66.68265303 50.20787152 -66.68265303 50.20787152 -65.94921875 53.2734375 C-64.95921875 53.9334375 -63.96921875 54.5934375 -62.94921875 55.2734375 C-62.80484375 56.4284375 -62.66046875 57.5834375 -62.51171875 58.7734375 C-62.32609375 59.9284375 -62.14046875 61.0834375 -61.94921875 62.2734375 C-60.03255208 63.44010417 -60.03255208 63.44010417 -57.94921875 64.2734375 C-56.82421875 66.7734375 -56.82421875 66.7734375 -55.94921875 69.2734375 C-54.17273947 71.42637273 -54.17273947 71.42637273 -51.94921875 71.6484375 C-51.28921875 71.8546875 -50.62921875 72.0609375 -49.94921875 72.2734375 C-49.68109375 72.9334375 -49.41296875 73.5934375 -49.13671875 74.2734375 C-48.54890625 75.2634375 -48.54890625 75.2634375 -47.94921875 76.2734375 C-45.62205875 76.64744536 -43.28804013 76.98108483 -40.94921875 77.2734375 C-40.28921875 78.2634375 -39.62921875 79.2534375 -38.94921875 80.2734375 C-35.88365277 81.00687178 -35.88365277 81.00687178 -32.94921875 81.2734375 C-32.94921875 80.6134375 -32.94921875 79.9534375 -32.94921875 79.2734375 C-32.41296875 79.6034375 -31.87671875 79.9334375 -31.32421875 80.2734375 C-28.33311615 81.53284912 -26.17191892 81.54199585 -22.94921875 81.2734375 C-20.64691109 80.37512734 -20.64691109 80.37512734 -18.94921875 79.2734375 C-18.94921875 79.9334375 -18.94921875 80.5934375 -18.94921875 81.2734375 C-16.01478473 81.00687178 -16.01478473 81.00687178 -12.94921875 80.2734375 C-11.95921875 78.7884375 -11.95921875 78.7884375 -10.94921875 77.2734375 C-9.21671875 77.056875 -9.21671875 77.056875 -7.44921875 76.8359375 C-6.29421875 76.6503125 -5.13921875 76.4646875 -3.94921875 76.2734375 C-2.78255208 74.35677083 -2.78255208 74.35677083 -1.94921875 72.2734375 C0.55078125 71.1484375 0.55078125 71.1484375 3.05078125 70.2734375 C5.20371648 68.49695822 5.20371648 68.49695822 5.42578125 66.2734375 C5.63203125 65.6134375 5.83828125 64.9534375 6.05078125 64.2734375 C7.04078125 63.87125 7.04078125 63.87125 8.05078125 63.4609375 C8.71078125 63.0690625 9.37078125 62.6771875 10.05078125 62.2734375 C10.42478911 59.9462775 10.75842858 57.61225888 11.05078125 55.2734375 C12.04078125 54.6134375 13.03078125 53.9534375 14.05078125 53.2734375 C14.78421553 50.20787152 14.78421553 50.20787152 15.05078125 47.2734375 C14.39078125 47.2734375 13.73078125 47.2734375 13.05078125 47.2734375 C13.38078125 46.7371875 13.71078125 46.2009375 14.05078125 45.6484375 C15.31019287 42.6573349 15.3193396 40.49613767 15.05078125 37.2734375 C14.15247109 34.97112984 14.15247109 34.97112984 13.05078125 33.2734375 C13.71078125 33.2734375 14.37078125 33.2734375 15.05078125 33.2734375 C14.78421553 30.33900348 14.78421553 30.33900348 14.05078125 27.2734375 C13.06078125 26.6134375 12.07078125 25.9534375 11.05078125 25.2734375 C10.90640625 24.1184375 10.76203125 22.9634375 10.61328125 21.7734375 C10.42765625 20.6184375 10.24203125 19.4634375 10.05078125 18.2734375 C8.13411458 17.10677083 8.13411458 17.10677083 6.05078125 16.2734375 C4.92578125 13.7734375 4.92578125 13.7734375 4.05078125 11.2734375 C2.27430197 9.12050227 2.27430197 9.12050227 0.05078125 8.8984375 C-0.60921875 8.6921875 -1.26921875 8.4859375 -1.94921875 8.2734375 C-2.35140625 7.2834375 -2.35140625 7.2834375 -2.76171875 6.2734375 C-3.34953125 5.2834375 -3.34953125 5.2834375 -3.94921875 4.2734375 C-6.27637875 3.89942964 -8.61039737 3.56579017 -10.94921875 3.2734375 C-11.60921875 2.2834375 -12.26921875 1.2934375 -12.94921875 0.2734375 C-16.01478473 -0.45999678 -16.01478473 -0.45999678 -18.94921875 -0.7265625 C-18.94921875 -0.0665625 -18.94921875 0.5934375 -18.94921875 1.2734375 C-19.93921875 0.9434375 -20.92921875 0.6134375 -21.94921875 0.2734375 C-22.44421875 -0.7165625 -22.44421875 -0.7165625 -22.94921875 -1.7265625 C-24.92921875 -1.7265625 -26.90921875 -1.7265625 -28.94921875 -1.7265625 Z " fill="#0B0B77" transform="translate(281.94921875,215.7265625)"/>
<path d="M0 0 C2.20906244 3.31359366 3.34349593 6.62755721 4.5625 10.375 C4.78357422 11.035 5.00464844 11.695 5.23242188 12.375 C6.40275043 15.92487877 7.26384443 19.31922214 8 23 C8.33 15.74 8.66 8.48 9 1 C9.66 1 10.32 1 11 1 C11.33 8.26 11.66 15.52 12 23 C13.5566661 17.6759009 13.5566661 17.6759009 15.11083984 12.35107422 C16.32686722 8.20431203 17.60179977 4.09006237 19 0 C19.96098816 3.05729923 19.98900315 5.07870104 19.2578125 8.1875 C19.07863281 8.96867188 18.89945312 9.74984375 18.71484375 10.5546875 C18.52019531 11.36164063 18.32554687 12.16859375 18.125 13 C17.84462891 14.21042969 17.84462891 14.21042969 17.55859375 15.4453125 C16.73805905 18.97186588 15.88279853 22.48853321 15 26 C15.495 24.9275 15.99 23.855 16.5 22.75 C19.4431472 16.8210513 23.26010253 11.44645263 27 6 C27.495 6.99 27.495 6.99 28 8 C27.22729492 9.80004883 27.22729492 9.80004883 25.98046875 11.95703125 C25.53509766 12.74013672 25.08972656 13.52324219 24.63085938 14.33007812 C24.15455078 15.14927734 23.67824219 15.96847656 23.1875 16.8125 C19.14943807 23.69036564 19.14943807 23.69036564 16 31 C16.66 31.33 17.32 31.66 18 32 C18 32.66 18 33.32 18 34 C18.94746094 33.61908203 18.94746094 33.61908203 19.9140625 33.23046875 C38.82292849 25.95573212 38.82292849 25.95573212 47 28 C39.41 30.31 31.82 32.62 24 35 C30.93 35.33 37.86 35.66 45 36 C45 36.66 45 37.32 45 38 C37.74 38.33 30.48 38.66 23 39 C29.7743681 40.89040817 29.7743681 40.89040817 36.55200195 42.76904297 C37.39722412 43.00768066 38.24244629 43.24631836 39.11328125 43.4921875 C39.97735596 43.73308105 40.84143066 43.97397461 41.73168945 44.22216797 C44 45 44 45 47 47 C40.44791995 46.54020491 34.35950135 45.14745199 28.05444336 43.37207031 C24.58114432 42.35061705 24.58114432 42.35061705 21 42 C22.0725 42.495 23.145 42.99 24.25 43.5 C30.1789487 46.4431472 35.55354737 50.26010253 41 54 C40.01 54.495 40.01 54.495 39 55 C37.24414062 54.30322266 37.24414062 54.30322266 35.15625 53.1640625 C34.40472656 52.75929688 33.65320313 52.35453125 32.87890625 51.9375 C32.09386719 51.504375 31.30882812 51.07125 30.5 50.625 C29.32244141 49.98691406 29.32244141 49.98691406 28.12109375 49.3359375 C26.66401271 48.54616459 25.20874855 47.75302452 23.75585938 46.95556641 C22.51607407 46.28085566 21.26247445 45.63123723 20 45 C20.78246094 45.75925781 21.56492187 46.51851563 22.37109375 47.30078125 C23.39349196 48.30441986 24.41561299 49.30834089 25.4375 50.3125 C25.95376953 50.81201172 26.47003906 51.31152344 27.00195312 51.82617188 C29.40590176 54.19869635 30.91656793 55.74970379 32 59 C27.92623969 57.38989473 25.23492931 54.46177729 22.25 51.375 C21.74339844 50.859375 21.23679687 50.34375 20.71484375 49.8125 C19.47196098 48.54616661 18.23534724 47.2736856 17 46 C17.54269531 46.94101562 18.08539063 47.88203125 18.64453125 48.8515625 C19.36727516 50.10932463 20.08992648 51.36713997 20.8125 52.625 C21.16892578 53.24246094 21.52535156 53.85992187 21.89257812 54.49609375 C26.35851393 62.28075249 26.35851393 62.28075249 28 66 C27.67 66.66 27.34 67.32 27 68 C25.20489709 65.2522289 23.41453036 62.50140293 21.625 59.75 C21.11710937 58.97269531 20.60921875 58.19539063 20.0859375 57.39453125 C19.59609375 56.64042969 19.10625 55.88632812 18.6015625 55.109375 C18.15119629 54.41811523 17.70083008 53.72685547 17.23681641 53.01464844 C16.03432195 51.05590698 14.99477483 49.07075576 14 47 C14.18175781 47.57105469 14.36351562 48.14210938 14.55078125 48.73046875 C16.10452922 53.74230195 17.50033717 58.77844881 18.75 63.875 C19.01296875 64.94492187 19.2759375 66.01484375 19.546875 67.1171875 C20 70 20 70 19 74 C16.69 66.41 14.38 58.82 12 51 C11.67 58.26 11.34 65.52 11 73 C10.34 73 9.68 73 9 73 C8.67 65.74 8.34 58.48 8 51 C5.69 58.59 3.38 66.18 1 74 C0.07436878 70.29747511 -0.07082671 69.26918771 0.7421875 65.8125 C0.92136719 65.03132813 1.10054687 64.25015625 1.28515625 63.4453125 C1.47980469 62.63835937 1.67445313 61.83140625 1.875 61 C2.06191406 60.19304687 2.24882812 59.38609375 2.44140625 58.5546875 C3.26194095 55.02813412 4.11720147 51.51146679 5 48 C4.505 49.0725 4.01 50.145 3.5 51.25 C0.5568528 57.1789487 -3.26010253 62.55354737 -7 68 C-7.495 67.01 -7.495 67.01 -8 66 C-7.30322266 64.24414062 -7.30322266 64.24414062 -6.1640625 62.15625 C-5.75929687 61.40472656 -5.35453125 60.65320313 -4.9375 59.87890625 C-4.504375 59.09386719 -4.07125 58.30882812 -3.625 57.5 C-3.19960937 56.71496094 -2.77421875 55.92992187 -2.3359375 55.12109375 C-1.54616459 53.66401271 -0.75302452 52.20874855 0.04443359 50.75585938 C0.71914434 49.51607407 1.36876277 48.26247445 2 47 C-2.62 51.62 -7.24 56.24 -12 61 C-12.66 60.67 -13.32 60.34 -14 60 C-12.27227744 58.10283355 -10.54287266 56.20724695 -8.8125 54.3125 C-8.32974609 53.78205078 -7.84699219 53.25160156 -7.34960938 52.70507812 C-4.312614 49.38272748 -1.2063098 46.15941679 2 43 C1.40574219 43.36351562 0.81148437 43.72703125 0.19921875 44.1015625 C-4.49479095 46.94862904 -9.21818085 49.74022553 -14 52.4375 C-15.36125 53.20900391 -15.36125 53.20900391 -16.75 53.99609375 C-17.4925 54.32738281 -18.235 54.65867187 -19 55 C-19.66 54.67 -20.32 54.34 -21 54 C-18.2522289 52.20489709 -15.50140293 50.41453036 -12.75 48.625 C-11.97269531 48.11710937 -11.19539062 47.60921875 -10.39453125 47.0859375 C-9.26337891 46.35117187 -9.26337891 46.35117187 -8.109375 45.6015625 C-7.41811523 45.15119629 -6.72685547 44.70083008 -6.01464844 44.23681641 C-4.05590698 43.03432195 -2.07075576 41.99477483 0 41 C-1.19625 41.433125 -2.3925 41.86625 -3.625 42.3125 C-20.4744475 47.91112405 -20.4744475 47.91112405 -27 46 C-24.14827038 45.01321102 -21.29395658 44.03543182 -18.4375 43.0625 C-17.23770508 42.64581055 -17.23770508 42.64581055 -16.01367188 42.22070312 C-15.22412109 41.95322266 -14.43457031 41.68574219 -13.62109375 41.41015625 C-12.54492798 41.04096069 -12.54492798 41.04096069 -11.44702148 40.66430664 C-8.36120954 39.82658397 -5.1653648 39.45219497 -2 39 C-9.92 38.67 -17.84 38.34 -26 38 C-26 37.34 -26 36.68 -26 36 C-15.11 35.505 -15.11 35.505 -4 35 C-9.3240991 33.4433339 -9.3240991 33.4433339 -14.64892578 31.88916016 C-18.79568797 30.67313278 -22.90993763 29.39820023 -27 28 C-24.02108351 27.07212038 -22.08370521 26.98058217 -19.06640625 27.7421875 C-18.33486328 27.92136719 -17.60332031 28.10054687 -16.84960938 28.28515625 C-16.09486328 28.47980469 -15.34011719 28.67445313 -14.5625 28.875 C-13.06395914 29.24802734 -11.56526485 29.62043893 -10.06640625 29.9921875 C-9.36531738 30.1684668 -8.66422852 30.34474609 -7.94189453 30.52636719 C-5.64044414 31.08769655 -3.32845479 31.56486133 -1 32 C-2.60875 31.2575 -2.60875 31.2575 -4.25 30.5 C-10.1789487 27.5568528 -15.55354737 23.73989747 -21 20 C-20.34 19.67 -19.68 19.34 -19 19 C-17.18408203 19.77270508 -17.18408203 19.77270508 -15.0078125 21.01953125 C-14.22019531 21.46490234 -13.43257812 21.91027344 -12.62109375 22.36914062 C-11.79738281 22.84544922 -10.97367188 23.32175781 -10.125 23.8125 C-8.5029455 24.73627669 -6.88056072 25.65947374 -5.2578125 26.58203125 C-4.5373877 26.99686768 -3.81696289 27.4117041 -3.07470703 27.83911133 C-1.07722053 28.95679176 0.94452213 29.99367832 3 31 C3.33 30.34 3.66 29.68 4 29 C2.97957028 26.88650942 2.97957028 26.88650942 1.4375 24.5625 C-0.92897693 20.74613931 -3.23936481 16.9163958 -5.4375 13 C-6.20900391 11.63875 -6.20900391 11.63875 -6.99609375 10.25 C-7.32738281 9.5075 -7.65867188 8.765 -8 8 C-7.67 7.34 -7.34 6.68 -7 6 C-5.20489709 8.7477711 -3.41453036 11.49859707 -1.625 14.25 C-1.11710937 15.02730469 -0.60921875 15.80460938 -0.0859375 16.60546875 C0.40390625 17.35957031 0.89375 18.11367187 1.3984375 18.890625 C1.84880371 19.58188477 2.29916992 20.27314453 2.76318359 20.98535156 C3.96567805 22.94409302 5.00522517 24.92924424 6 27 C5.60167969 25.64068359 5.60167969 25.64068359 5.1953125 24.25390625 C0 6.33576642 0 6.33576642 0 0 Z " fill="#343468" transform="translate(246,219)"/>
<path d="M0 0 C0.12375 0.928125 0.12375 0.928125 0.25 1.875 C0.4975 2.57625 0.745 3.2775 1 4 C1.66 4.268125 2.32 4.53625 3 4.8125 C3.66 5.204375 4.32 5.59625 5 6 C5.37400786 8.32716 5.70764733 10.66117862 6 13 C7.485 13.99 7.485 13.99 9 15 C9.6875 18.125 9.6875 18.125 10 21 C9.34 21 8.68 21 8 21 C8.495 21.804375 8.495 21.804375 9 22.625 C10.25941162 25.6161026 10.26855835 27.77729983 10 31 C9 33.375 9 33.375 8 35 C8.66 35 9.32 35 10 35 C9.6875 37.875 9.6875 37.875 9 41 C8.01 41.66 7.02 42.32 6 43 C5.855625 44.155 5.71125 45.31 5.5625 46.5 C5.376875 47.655 5.19125 48.81 5 50 C3.0625 51.125 3.0625 51.125 1 52 C-0.28254644 54.53770003 -0.28254644 54.53770003 -1 57 C-5.18053119 55.45165512 -7.31986088 52.37250839 -10 49 C-14.59063126 43.45298723 -19.46151924 38.60341258 -25 34 C-24.01 33.505 -24.01 33.505 -23 33 C-20.81814267 34.20552826 -18.7668179 35.44859669 -16.6875 36.8125 C-12.90990569 39.26387207 -9.26849061 41.48640765 -5 43 C-6.87199359 41.72474223 -8.74774026 40.45499289 -10.625 39.1875 C-11.66914063 38.47980469 -12.71328125 37.77210938 -13.7890625 37.04296875 C-16.7854282 35.13652196 -19.79592741 33.52506158 -23 32 C-21 31 -21 31 -19.109375 31.453125 C-18.33078125 31.71609375 -17.5521875 31.9790625 -16.75 32.25 C-10.26824108 34.31237784 -3.65978358 35.64693158 3 37 C-0.39488938 36.01754027 -3.79106929 35.03961667 -7.1875 34.0625 C-8.14720703 33.78470703 -9.10691406 33.50691406 -10.09570312 33.22070312 C-11.49272461 32.81948242 -11.49272461 32.81948242 -12.91796875 32.41015625 C-13.77156982 32.16402588 -14.6251709 31.91789551 -15.50463867 31.66430664 C-17.98946496 31.0028046 -20.47382332 30.47674908 -23 30 C-23 29.67 -23 29.34 -23 29 C-14.09 29 -5.18 29 4 29 C4 28.34 4 27.68 4 27 C-4.91 27 -13.82 27 -23 27 C-23 26.67 -23 26.34 -23 26 C-21.94941406 25.74605469 -20.89882813 25.49210937 -19.81640625 25.23046875 C-12.43140971 23.4264196 -5.16759364 21.55985487 2 19 C-0.85477651 19.62231107 -3.70880481 20.24776536 -6.5625 20.875 C-7.76229492 21.13603516 -7.76229492 21.13603516 -8.98632812 21.40234375 C-13.71433941 22.44443603 -18.35991592 23.61731723 -23 25 C-23 24.34 -23 23.68 -23 23 C-23.66 23 -24.32 23 -25 23 C-22.83819742 16.11701937 -17.09129331 11.81645967 -12 7 C-11.22011719 6.25105469 -10.44023437 5.50210938 -9.63671875 4.73046875 C-4.52087576 0 -4.52087576 0 0 0 Z " fill="#F0F0F1" transform="translate(287,228)"/>
<path d="M0 0 C1.98 0 3.96 0 6 0 C6.495 0.99 6.495 0.99 7 2 C7.99 2.33 8.98 2.66 10 3 C10 2.34 10 1.68 10 1 C12.875 1.3125 12.875 1.3125 16 2 C16.66 2.99 17.32 3.98 18 5 C19.155 5.144375 20.31 5.28875 21.5 5.4375 C22.655 5.623125 23.81 5.80875 25 6 C26.125 7.9375 26.125 7.9375 27 10 C28.64363134 10.72159424 30.31050386 11.39351421 32 12 C32.495 12.99 32.495 12.99 33 14 C31.99453125 14.52980469 31.99453125 14.52980469 30.96875 15.0703125 C27.06609515 17.60703815 23.86278328 20.67203216 20.5 23.875 C19.84902344 24.48730469 19.19804687 25.09960938 18.52734375 25.73046875 C14.95901004 29.09695732 11.4488675 32.51133788 8 36 C9.7989503 30.92365174 12.49026455 26.36286389 15.125 21.6875 C15.59292969 20.85154297 16.06085938 20.01558594 16.54296875 19.15429688 C17.6926259 17.10133767 18.84503802 15.04997798 20 13 C18.52884819 15.20630391 17.05840713 17.41306552 15.58984375 19.62109375 C14.34389317 21.48542767 13.08131696 23.33865243 11.8125 25.1875 C9.97479535 28.03911066 8.45757652 30.93908932 7 34 C6.67 33.34 6.34 32.68 6 32 C6.6872945 29.97248121 7.38012719 27.94670466 8.09765625 25.9296875 C9.89991804 20.07818817 10.88288333 14.01341527 12 8 C9.11684805 16.25329756 6.36646875 24.3321012 5 33 C4.67 33 4.34 33 4 33 C4 24.09 4 15.18 4 6 C3.34 6 2.68 6 2 6 C2 14.91 2 23.82 2 33 C1.67 33 1.34 33 1 33 C0.74605469 31.9378125 0.49210937 30.875625 0.23046875 29.78125 C-0.11692872 28.35410365 -0.46459968 26.92702385 -0.8125 25.5 C-0.97814453 24.80390625 -1.14378906 24.1078125 -1.31445312 23.390625 C-2.53212851 18.42802343 -4.13065672 13.75638062 -6 9 C-5.37571782 11.66683649 -4.75059174 14.33347067 -4.125 17 C-3.95097656 17.74378906 -3.77695313 18.48757812 -3.59765625 19.25390625 C-2.44097218 24.18052359 -1.23786742 29.09313816 0 34 C-2.76628154 31.45129116 -4.1304315 28.79722154 -5.75 25.40625 C-8.17183216 20.74422309 -11.12558296 16.39236762 -14 12 C-12.75256064 14.5221286 -11.50212931 17.04270078 -10.25 19.5625 C-9.90195313 20.26697266 -9.55390625 20.97144531 -9.1953125 21.69726562 C-6.94162392 26.22551026 -4.54907588 30.6309758 -2 35 C-2.66 35 -3.32 35 -4 35 C-5.4453125 33.49609375 -5.4453125 33.49609375 -7.125 31.4375 C-10.29312862 27.68243387 -13.69430236 24.54734343 -17.49609375 21.4453125 C-17.99238281 20.96835938 -18.48867187 20.49140625 -19 20 C-19 19.34 -19 18.68 -19 18 C-19.66 18 -20.32 18 -21 18 C-21 17.34 -21 16.68 -21 16 C-21.66 16 -22.32 16 -23 16 C-23 15.34 -23 14.68 -23 14 C-26.0745356 14.7763932 -26.0745356 14.7763932 -28 17 C-27.42655063 14.13275314 -27.1385485 13.1385485 -25 11 C-24.34 10.87625 -23.68 10.7525 -23 10.625 C-22.34 10.41875 -21.68 10.2125 -21 10 C-20.731875 9.34 -20.46375 8.68 -20.1875 8 C-19.795625 7.34 -19.40375 6.68 -19 6 C-16.67284 5.62599214 -14.33882138 5.29235267 -12 5 C-11.34 4.01 -10.68 3.02 -10 2 C-6.875 1.3125 -6.875 1.3125 -4 1 C-4 1.66 -4 2.32 -4 3 C-3.01 2.67 -2.02 2.34 -1 2 C-0.67 1.34 -0.34 0.68 0 0 Z " fill="#F2F2F3" transform="translate(253,214)"/>
<path d="M0 0 C1 2 1 2 0.51171875 4.03125 C0.10373047 5.25328125 0.10373047 5.25328125 -0.3125 6.5 C-1.93683182 11.6114295 -3.04632849 16.72675754 -4 22 C-3.18428782 19.43848317 -2.37233869 16.87587372 -1.5625 14.3125 C-1.21735352 13.2306543 -1.21735352 13.2306543 -0.86523438 12.12695312 C0.2969767 8.43819625 1.34442773 4.82040393 2 1 C2.33 1 2.66 1 3 1 C3 9.91 3 18.82 3 28 C3.66 28 4.32 28 5 28 C5 19.09 5 10.18 5 1 C5.33 1 5.66 1 6 1 C6.25394531 1.97839844 6.50789063 2.95679688 6.76953125 3.96484375 C8.62800556 11.06454166 10.56837361 18.06986479 13 25 C12.37768893 22.14522349 11.75223464 19.29119519 11.125 16.4375 C10.95097656 15.63763672 10.77695312 14.83777344 10.59765625 14.01367188 C9.55556397 9.28566059 8.38268277 4.64008408 7 0 C9.76628154 2.54870884 11.1304315 5.20277846 12.75 8.59375 C15.17183216 13.25577691 18.12558296 17.60763238 21 22 C19.73412642 19.41412997 18.46254151 16.83134499 17.1875 14.25 C16.83107422 13.52039063 16.47464844 12.79078125 16.10742188 12.0390625 C14.32469483 8.44089782 12.58911661 5.10367291 10 2 C10.33 1.34 10.66 0.68 11 0 C11.845625 0.85722656 12.69125 1.71445312 13.5625 2.59765625 C14.707737 3.75319549 15.85361237 4.90810227 17 6.0625 C17.58998779 6.65724121 18.17997559 7.25198242 18.7878418 7.86474609 C22.59564425 11.67515058 26.48801877 15.2750005 30.70703125 18.6328125 C32 20 32 20 32 23 C31.071875 23.12375 31.071875 23.12375 30.125 23.25 C29.42375 23.4975 28.7225 23.745 28 24 C27.731875 24.66 27.46375 25.32 27.1875 26 C26.795625 26.66 26.40375 27.32 26 28 C23.67284 28.37400786 21.33882138 28.70764733 19 29 C18.34 29.99 17.68 30.98 17 32 C13.875 32.6875 13.875 32.6875 11 33 C11 32.34 11 31.68 11 31 C10.46375 31.33 9.9275 31.66 9.375 32 C6.3838974 33.25941162 4.22270017 33.26855835 1 33 C-1.375 32 -1.375 32 -3 31 C-3 31.66 -3 32.32 -3 33 C-5.875 32.6875 -5.875 32.6875 -9 32 C-9.66 31.01 -10.32 30.02 -11 29 C-13.58380177 28.74969023 -13.58380177 28.74969023 -16 29 C-14.51074791 23.43072592 -11.74293952 19.21882683 -8.5625 14.5 C-5.40331696 9.77575519 -2.41140008 5.16611814 0 0 Z " fill="#F2F2F4" transform="translate(252,264)"/>
<path d="M0 0 C0.99 0 1.98 0 3 0 C3 0.66 3 1.32 3 2 C3.66 2 4.32 2 5 2 C5 2.66 5 3.32 5 4 C5.66 4 6.32 4 7 4 C7 4.66 7 5.32 7 6 C7.54269531 6.21914062 8.08539063 6.43828125 8.64453125 6.6640625 C11.78409373 8.44470987 14.16456637 10.8353582 16.6875 13.375 C17.18572266 13.85710937 17.68394531 14.33921875 18.19726562 14.8359375 C20.75804264 17.39323992 22.62405193 19.31046316 23 23 C17.92365174 21.2010497 13.36286389 18.50973545 8.6875 15.875 C7.85154297 15.40707031 7.01558594 14.93914062 6.15429688 14.45703125 C4.10133767 13.3073741 2.04997798 12.15496198 0 11 C2.20630391 12.47115181 4.41306552 13.94159287 6.62109375 15.41015625 C8.48542767 16.65610683 10.33865243 17.91868304 12.1875 19.1875 C15.03911066 21.02520465 17.93908932 22.54242348 21 24 C17.8560548 25.5719726 15.59775551 24.13745919 12.3125 23.125 C7.50489225 21.64811942 2.9744995 20.60026053 -2 20 C0.72838435 20.81520635 3.45764417 21.62724843 6.1875 22.4375 C6.95642578 22.66759766 7.72535156 22.89769531 8.51757812 23.13476562 C12.32525141 24.26235986 16.08151762 25.3168177 20 26 C20 26.33 20 26.66 20 27 C11.09 27 2.18 27 -7 27 C-7 27.66 -7 28.32 -7 29 C-8.65 29 -10.3 29 -12 29 C-12.33 29.66 -12.66 30.32 -13 31 C-13 29.02 -13 27.04 -13 25 C-12.34 24.67 -11.68 24.34 -11 24 C-10.67 23.01 -10.34 22.02 -10 21 C-10.66 21 -11.32 21 -12 21 C-11.6875 18.125 -11.6875 18.125 -11 15 C-10.01 14.34 -9.02 13.68 -8 13 C-7.814375 11.2984375 -7.814375 11.2984375 -7.625 9.5625 C-7 6 -7 6 -4.5625 4.25 C-3.716875 3.8375 -2.87125 3.425 -2 3 C-1.34 2.01 -0.68 1.02 0 0 Z " fill="#F1F1F3" transform="translate(227,228)"/>
<path d="M0 0 C2.20906244 3.31359366 3.34349593 6.62755721 4.5625 10.375 C4.78357422 11.035 5.00464844 11.695 5.23242188 12.375 C6.40275043 15.92487877 7.26384443 19.31922214 8 23 C8.33 15.74 8.66 8.48 9 1 C9.66 1 10.32 1 11 1 C11.33 8.26 11.66 15.52 12 23 C13.5566661 17.6759009 13.5566661 17.6759009 15.11083984 12.35107422 C16.32686722 8.20431203 17.60179977 4.09006237 19 0 C19.96098816 3.05729923 19.98900315 5.07870104 19.2578125 8.1875 C19.07863281 8.96867188 18.89945312 9.74984375 18.71484375 10.5546875 C18.52019531 11.36164063 18.32554687 12.16859375 18.125 13 C17.93808594 13.80695313 17.75117188 14.61390625 17.55859375 15.4453125 C16.73805905 18.97186588 15.88279853 22.48853321 15 26 C15.7425 24.39125 15.7425 24.39125 16.5 22.75 C19.4431472 16.8210513 23.26010253 11.44645263 27 6 C27.495 6.99 27.495 6.99 28 8 C27.24316406 9.81591797 27.24316406 9.81591797 26.015625 11.9921875 C25.57476562 12.77980469 25.13390625 13.56742188 24.6796875 14.37890625 C24.20789063 15.20261719 23.73609375 16.02632812 23.25 16.875 C22.79367187 17.69097656 22.33734375 18.50695312 21.8671875 19.34765625 C16.02806041 29.69269933 16.02806041 29.69269933 12.84375 30.64453125 C11.68359375 30.72767578 11.68359375 30.72767578 10.5 30.8125 C9.33984375 30.91498047 9.33984375 30.91498047 8.15625 31.01953125 C6 31 6 31 3 30 C3 29.01 3 28.02 3 27 C2.11768207 25.27619388 2.11768207 25.27619388 0.875 23.5 C-1.32399894 20.10039819 -3.39189869 16.65566168 -5.375 13.125 C-5.89835938 12.19945312 -6.42171875 11.27390625 -6.9609375 10.3203125 C-7.30382812 9.55460938 -7.64671875 8.78890625 -8 8 C-7.67 7.34 -7.34 6.68 -7 6 C-5.20489709 8.7477711 -3.41453036 11.49859707 -1.625 14.25 C-1.11710938 15.02730469 -0.60921875 15.80460938 -0.0859375 16.60546875 C0.40390625 17.35957031 0.89375 18.11367187 1.3984375 18.890625 C1.84880371 19.58188477 2.29916992 20.27314453 2.76318359 20.98535156 C3.96567805 22.94409302 5.00522517 24.92924424 6 27 C5.73445312 26.09378906 5.46890625 25.18757813 5.1953125 24.25390625 C0 6.33576642 0 6.33576642 0 0 Z " fill="#34343F" transform="translate(246,219)"/>
<path d="M0 0 C4.71697732 1.39708947 8.83134915 3.40873873 13.0625 5.875 C13.9606543 6.38353516 13.9606543 6.38353516 14.87695312 6.90234375 C24.5905124 12.49854548 24.5905124 12.49854548 25.5859375 16.1484375 C25.25338853 19.65867666 24.89055397 22.08814091 22.3671875 24.671875 C19.9865058 26.30584842 17.55508058 27.65354675 15 29 C13.30810547 29.96873047 13.30810547 29.96873047 11.58203125 30.95703125 C5.21565409 34.55595448 5.21565409 34.55595448 2 36 C1.34 35.67 0.68 35.34 0 35 C2.7477711 33.20489709 5.49859707 31.41453036 8.25 29.625 C9.02730469 29.11710937 9.80460938 28.60921875 10.60546875 28.0859375 C11.35957031 27.59609375 12.11367187 27.10625 12.890625 26.6015625 C13.58188477 26.15119629 14.27314453 25.70083008 14.98535156 25.23681641 C16.94409302 24.03432195 18.92924424 22.99477483 21 22 C19.80375 22.433125 18.6075 22.86625 17.375 23.3125 C0.5255525 28.91112405 0.5255525 28.91112405 -6 27 C-3.14827038 26.01321102 -0.29395658 25.03543182 2.5625 24.0625 C3.76229492 23.64581055 3.76229492 23.64581055 4.98632812 23.22070312 C5.77587891 22.95322266 6.56542969 22.68574219 7.37890625 22.41015625 C8.0963501 22.16402588 8.81379395 21.91789551 9.55297852 21.66430664 C12.63879046 20.82658397 15.8346352 20.45219497 19 20 C11.08 19.67 3.16 19.34 -5 19 C-5 18.34 -5 17.68 -5 17 C5.89 16.505 5.89 16.505 17 16 C11.6759009 14.4433339 11.6759009 14.4433339 6.35107422 12.88916016 C2.20431203 11.67313278 -1.90993763 10.39820023 -6 9 C-3.02108351 8.07212038 -1.08370521 7.98058217 1.93359375 8.7421875 C2.66513672 8.92136719 3.39667969 9.10054687 4.15039062 9.28515625 C4.90513672 9.47980469 5.65988281 9.67445313 6.4375 9.875 C7.93604086 10.24802734 9.43473515 10.62043893 10.93359375 10.9921875 C11.98522705 11.25660645 11.98522705 11.25660645 13.05810547 11.52636719 C15.35955586 12.08769655 17.67154521 12.56486133 20 13 C18.9275 12.505 17.855 12.01 16.75 11.5 C10.84222008 8.55673554 5.33026935 4.88221284 0 1 C0 0.67 0 0.34 0 0 Z " fill="#323238" transform="translate(225,238)"/>
<path d="M0 0 C0.12375 0.928125 0.12375 0.928125 0.25 1.875 C0.81258459 4.18437567 0.81258459 4.18437567 3.0625 5.25 C3.701875 5.4975 4.34125 5.745 5 6 C3.82841158 9.51476527 3.19612426 9.76560739 0.10546875 11.55859375 C-1.08079102 12.26145508 -1.08079102 12.26145508 -2.29101562 12.97851562 C-3.12310547 13.45998047 -3.95519531 13.94144531 -4.8125 14.4375 C-9.7149327 17.29115486 -14.08534764 19.83649444 -18 24 C-20.75 24.75 -20.75 24.75 -23 25 C-23 24.34 -23 23.68 -23 23 C-23.66 23 -24.32 23 -25 23 C-22.83819742 16.11701937 -17.09129331 11.81645967 -12 7 C-11.22011719 6.25105469 -10.44023437 5.50210938 -9.63671875 4.73046875 C-4.52087576 0 -4.52087576 0 0 0 Z " fill="#E6E6E7" transform="translate(287,228)"/>
<path d="M0 0 C-7.59 2.31 -15.18 4.62 -23 7 C-16.07 7.33 -9.14 7.66 -2 8 C-2 8.66 -2 9.32 -2 10 C-12.89 10.495 -12.89 10.495 -24 11 C-17.2256319 12.89040817 -17.2256319 12.89040817 -10.44799805 14.76904297 C-9.60277588 15.00768066 -8.75755371 15.24631836 -7.88671875 15.4921875 C-7.02264404 15.73308105 -6.15856934 15.97397461 -5.26831055 16.22216797 C-3 17 -3 17 0 19 C-6.55208005 18.54020491 -12.64049865 17.14745199 -18.94555664 15.37207031 C-22.41885568 14.35061705 -22.41885568 14.35061705 -26 14 C-24.9275 14.495 -23.855 14.99 -22.75 15.5 C-16.8210513 18.4431472 -11.44645263 22.26010253 -6 26 C-6.66 26.33 -7.32 26.66 -8 27 C-9.70825195 26.35083008 -9.70825195 26.35083008 -11.73828125 25.26953125 C-12.47626953 24.87830078 -13.21425781 24.48707031 -13.97460938 24.08398438 C-14.74611328 23.66439453 -15.51761719 23.24480469 -16.3125 22.8125 C-17.07240234 22.41224609 -17.83230469 22.01199219 -18.61523438 21.59960938 C-22.70834756 19.40547312 -26.63209165 17.24690566 -30 14 C-30 13.01 -30 12.02 -30 11 C-30.66 11 -31.32 11 -32 11 C-32 9.68 -32 8.36 -32 7 C-31.34 7 -30.68 7 -30 7 C-29.67 6.34 -29.34 5.68 -29 5 C-26.30913439 4.23882697 -23.66666844 3.58760902 -20.9375 3 C-19.44649091 2.66722029 -17.95560488 2.33388876 -16.46484375 2 C-15.35471924 1.75830078 -15.35471924 1.75830078 -14.22216797 1.51171875 C-12.02502974 1.00576382 -9.86427531 0.41302398 -7.69140625 -0.1875 C-4 -1 -4 -1 0 0 Z " fill="#2E2E3C" transform="translate(293,247)"/>
<path d="M0 0 C0.99 0 1.98 0 3 0 C3 0.66 3 1.32 3 2 C3.66 2 4.32 2 5 2 C5 2.66 5 3.32 5 4 C5.66 4 6.32 4 7 4 C7 4.66 7 5.32 7 6 C7.54269531 6.21914062 8.08539063 6.43828125 8.64453125 6.6640625 C11.78409373 8.44470987 14.16456637 10.8353582 16.6875 13.375 C17.18572266 13.85710937 17.68394531 14.33921875 18.19726562 14.8359375 C20.75804264 17.39323992 22.62405193 19.31046316 23 23 C17.21848152 20.95673243 12.05216884 17.69902006 6.76953125 14.6328125 C2.22481378 12.05110745 -1.90553072 10.19550212 -7 9 C-7.33 9.66 -7.66 10.32 -8 11 C-7.8125 8.6875 -7.8125 8.6875 -7 6 C-4.5625 4.375 -4.5625 4.375 -2 3 C-1.34 2.01 -0.68 1.02 0 0 Z " fill="#E7E7E8" transform="translate(227,228)"/>
<path d="M0 0 C0.78246094 -0.02578125 1.56492187 -0.0515625 2.37109375 -0.078125 C5.04181509 0.32176911 5.88227439 1.19699122 7.5625 3.25 C7.2325 3.91 6.9025 4.57 6.5625 5.25 C5.9025 5.25 5.2425 5.25 4.5625 5.25 C4.5625 6.57 4.5625 7.89 4.5625 9.25 C5.2225 9.25 5.8825 9.25 6.5625 9.25 C6.2325 10.57 5.9025 11.89 5.5625 13.25 C-0.57969114 15.41783217 -0.57969114 15.41783217 -4.3125 14.6875 C-6.4375 13.25 -6.4375 13.25 -7.3125 11.0625 C-7.4645171 7.64211519 -7.14588932 4.59874951 -6.4375 1.25 C-4.11063547 0.08656773 -2.59028587 0.05104012 0 0 Z " fill="#000081" transform="translate(256.4375,248.75)"/>
<path d="M0 0 C4.14435558 1.51338827 7.84275398 3.57225464 11.625 5.8125 C17.58345776 9.28787138 23.64487461 12.30231412 30 15 C29.67 15.99 29.34 16.98 29 18 C28.01 18.33 27.02 18.66 26 19 C24.78130071 21.50447516 24.78130071 21.50447516 24 24 C19.81946881 22.45165512 17.68013912 19.37250839 15 16 C10.8411068 10.97467071 6.52023989 6.52634784 1.50390625 2.34765625 C1.00761719 1.90292969 0.51132812 1.45820313 0 1 C0 0.67 0 0.34 0 0 Z " fill="#EFEFF0" transform="translate(262,261)"/>
<path d="M0 0 C-1.24763701 10.77700249 -4.58949987 20.74704993 -8 31 C-8.96098816 27.94270077 -8.98900315 25.92129896 -8.2578125 22.8125 C-7.98904297 21.64074219 -7.98904297 21.64074219 -7.71484375 20.4453125 C-7.52019531 19.63835937 -7.32554687 18.83140625 -7.125 18 C-6.93808594 17.19304687 -6.75117188 16.38609375 -6.55859375 15.5546875 C-5.73805905 12.02813412 -4.88279853 8.51146679 -4 5 C-4.495 6.0725 -4.99 7.145 -5.5 8.25 C-8.4431472 14.1789487 -12.26010253 19.55354737 -16 25 C-16.33 24.34 -16.66 23.68 -17 23 C-16.30322266 21.24414062 -16.30322266 21.24414062 -15.1640625 19.15625 C-14.75929687 18.40472656 -14.35453125 17.65320313 -13.9375 16.87890625 C-13.504375 16.09386719 -13.07125 15.30882812 -12.625 14.5 C-12.19960937 13.71496094 -11.77421875 12.92992187 -11.3359375 12.12109375 C-10.54616459 10.66401271 -9.75302452 9.20874855 -8.95556641 7.75585938 C-8.28085566 6.51607407 -7.63123723 5.26247445 -7 4 C-11.62 8.62 -16.24 13.24 -21 18 C-21.66 17.67 -22.32 17.34 -23 17 C-21.29657414 15.09955869 -19.58752883 13.20471126 -17.875 11.3125 C-17.400625 10.78205078 -16.92625 10.25160156 -16.4375 9.70507812 C-6.88167142 -0.8192466 -6.88167142 -0.8192466 0 0 Z " fill="#282828" transform="translate(255,262)"/>
<path d="M0 0 C-0.0928125 1.175625 -0.0928125 1.175625 -0.1875 2.375 C-0.125625 3.24125 -0.06375 4.1075 0 5 C0.99 5.66 1.98 6.32 3 7 C2.28515625 8.9609375 2.28515625 8.9609375 1 11 C-1.06640625 11.5390625 -1.06640625 11.5390625 -3.5625 11.625 C-7.89554507 11.8758275 -11.8065288 12.56781034 -15.9921875 13.6953125 C-18.27412407 14.04159859 -19.8176109 13.69484137 -22 13 C-3.92307692 0 -3.92307692 0 0 0 Z " fill="#F5F5F6" transform="translate(293,236)"/>
<path d="M0 0 C0.7734375 -0.00773438 1.546875 -0.01546875 2.34375 -0.0234375 C4.95159728 0.45844732 5.83871866 1.36229376 7.5 3.375 C5.12463453 3.375 2.74846745 3.3449387 0.375 3.25 C-2.63181749 3.05633441 -2.63181749 3.05633441 -4.5 5.375 C-4.71676408 8.77097063 -4.58073852 11.13278445 -3.5 14.375 C-4.82 13.715 -6.14 13.055 -7.5 12.375 C-7.58131463 10.93844146 -7.63933559 9.5005517 -7.6875 8.0625 C-7.72230469 7.26199219 -7.75710937 6.46148437 -7.79296875 5.63671875 C-7.5 3.375 -7.5 3.375 -6.26953125 1.60546875 C-4.04065358 0.05558693 -2.69804524 -0.02698045 0 0 Z " fill="#020264" transform="translate(256.5,248.625)"/>
<path d="M0 0 C-3.7635076 3.55896915 -8.09525932 4.21577353 -13 5.25 C-13.80695313 5.435625 -14.61390625 5.62125 -15.4453125 5.8125 C-19.37509038 6.66849122 -22.08845903 7.21960968 -26 6 C-23.17138187 4.98459862 -20.33831286 3.9876261 -17.5 3 C-16.70851562 2.71382813 -15.91703125 2.42765625 -15.1015625 2.1328125 C-9.83649269 0.32024748 -5.56617366 -0.30639488 0 0 Z " fill="#333333" transform="translate(245,259)"/>
<path d="M0 0 C5.86774637 1.32768253 10.03635604 3.6908324 14.9375 7.125 C15.62134766 7.59292969 16.30519531 8.06085938 17.00976562 8.54296875 C18.67897287 9.68690099 20.34032282 10.84228438 22 12 C21.01 12.495 21.01 12.495 20 13 C17.05420196 11.90095735 14.32915477 10.29977684 11.5625 8.8125 C10.78583984 8.41224609 10.00917969 8.01199219 9.20898438 7.59960938 C2.20022111 3.87488333 2.20022111 3.87488333 0 0 Z " fill="#141414" transform="translate(265,261)"/>
<path d="M0 0 C0.33 0.66 0.66 1.32 1 2 C-2.07821798 9.22712046 -6.56726477 15.54456034 -11 22 C-11.33 21.34 -11.66 20.68 -12 20 C-11.33496094 18.26000977 -11.33496094 18.26000977 -10.234375 16.19140625 C-9.83863281 15.44439453 -9.44289062 14.69738281 -9.03515625 13.92773438 C-8.39900391 12.75694336 -8.39900391 12.75694336 -7.75 11.5625 C-7.13705078 10.39750977 -7.13705078 10.39750977 -6.51171875 9.20898438 C-4.61986024 5.67771793 -2.96596216 2.74121953 0 0 Z " fill="#252525" transform="translate(250,265)"/>
<path d="M0 0 C0.66 0.33 1.32 0.66 2 1 C-0.72063403 2.82556472 -3.45284037 4.63302713 -6.1875 6.4375 C-6.95642578 6.95376953 -7.72535156 7.47003906 -8.51757812 8.00195312 C-9.64389648 8.74155273 -9.64389648 8.74155273 -10.79296875 9.49609375 C-11.4789917 9.95169678 -12.16501465 10.4072998 -12.87182617 10.87670898 C-15.24068121 12.12703616 -17.36378289 12.59520272 -20 13 C-16.19100626 8.80052914 -12.3278965 6.22269324 -7.3125 3.625 C-6.63638672 3.25761719 -5.96027344 2.89023438 -5.26367188 2.51171875 C-3.54406424 1.60486099 -1.77461098 0.79384965 0 0 Z " fill="#252525" transform="translate(285,238)"/>
<path d="M0 0 C0.33 0.66 0.66 1.32 1 2 C0.24316406 3.84765625 0.24316406 3.84765625 -0.984375 6.0625 C-1.42523438 6.85914063 -1.86609375 7.65578125 -2.3203125 8.4765625 C-2.79210937 9.30929688 -3.26390625 10.14203125 -3.75 11 C-4.43449219 12.24910156 -4.43449219 12.24910156 -5.1328125 13.5234375 C-8.61523774 19.74349182 -8.61523774 19.74349182 -12 22 C-10.67231747 16.13225363 -8.3091676 11.96364396 -4.875 7.0625 C-4.40707031 6.37865234 -3.93914062 5.69480469 -3.45703125 4.99023438 C-2.31309901 3.32102713 -1.15771562 1.65967718 0 0 Z " fill="#252525" transform="translate(273,225)"/>
<path d="M0 0 C3.41276629 3.13667733 5.75988073 6.49774265 8.1875 10.4375 C9.22970703 12.10619141 9.22970703 12.10619141 10.29296875 13.80859375 C11.82632974 16.67531212 12.59994222 18.80550875 13 22 C8.79339629 18.1912187 6.25967451 14.34459093 3.6875 9.3125 C3.32849609 8.63638672 2.96949219 7.96027344 2.59960938 7.26367188 C0 2.28727679 0 2.28727679 0 0 Z " fill="#232323" transform="translate(238,225)"/>
<path d="M0 0 C8.79246214 0.47102476 16.70615203 3.24216834 25 6 C20.32512434 7.45946055 16.60201023 6.31702061 11.9375 5.25 C11.12216797 5.07984375 10.30683594 4.9096875 9.46679688 4.734375 C8.68240234 4.5590625 7.89800781 4.38375 7.08984375 4.203125 C6.37691162 4.04489258 5.66397949 3.88666016 4.92944336 3.72363281 C2.69024338 2.88382657 1.55940441 1.78549817 0 0 Z " fill="#2B2B2B" transform="translate(268,259)"/>
<path d="M0 0 C4.82547676 1.42840033 8.92227913 3.43897471 13.25 5.9375 C14.18585938 6.45860352 14.18585938 6.45860352 15.140625 6.99023438 C18.25726883 8.7735726 19.9749732 9.9624598 22 13 C16.15842937 11.67064387 11.96076663 9.33600295 7.0625 5.9375 C6.37865234 5.47794922 5.69480469 5.01839844 4.99023438 4.54492188 C3.30322839 3.3972185 1.64821271 2.20274981 0 1 C0 0.67 0 0.34 0 0 Z " fill="#212121" transform="translate(225,238)"/>
<path d="M0 0 C0 3 0 3 -1.19335938 4.53393555 C-1.73798828 5.062854 -2.28261719 5.59177246 -2.84375 6.13671875 C-3.72353516 7.00200195 -3.72353516 7.00200195 -4.62109375 7.88476562 C-5.24113281 8.47966797 -5.86117188 9.07457031 -6.5 9.6875 C-7.12003906 10.29400391 -7.74007813 10.90050781 -8.37890625 11.52539062 C-9.91264707 13.02373743 -11.45548198 14.51276493 -13 16 C-13.66 15.67 -14.32 15.34 -15 15 C-10.39863498 9.46398272 -5.53601728 4.60136502 0 0 Z " fill="#171717" transform="translate(277,234)"/>
<path d="M0 0 C-1.65863505 4.32504836 -4.871041 7.09418825 -8.125 10.25 C-8.68832031 10.80429687 -9.25164062 11.35859375 -9.83203125 11.9296875 C-11.21686028 13.29104485 -12.60783204 14.64614859 -14 16 C-14.66 15.67 -15.32 15.34 -16 15 C-14.23000902 13.06172464 -12.45904239 11.12435656 -10.6875 9.1875 C-10.18798828 8.64029297 -9.68847656 8.09308594 -9.17382812 7.52929688 C-7.78777469 6.01473517 -6.39413878 4.50712253 -5 3 C-4.42894531 2.37738281 -3.85789063 1.75476563 -3.26953125 1.11328125 C-2 0 -2 0 0 0 Z " fill="#2F2F2F" transform="translate(248,264)"/>
<path d="M0 0 C4.03082 1.612328 6.75944137 4.46234596 9.75 7.5 C10.25660156 7.99886719 10.76320312 8.49773437 11.28515625 9.01171875 C15 12.74658861 15 12.74658861 15 15 C10.96918 13.387672 8.24055863 10.53765404 5.25 7.5 C4.74339844 7.00113281 4.23679688 6.50226563 3.71484375 5.98828125 C0 2.25341139 0 2.25341139 0 0 Z " fill="#292929" transform="translate(234,234)"/>
<path d="M0 0 C3.60286506 1.52524036 5.94299983 3.67485437 8.6875 6.4375 C9.47511719 7.21996094 10.26273437 8.00242187 11.07421875 8.80859375 C13 11 13 11 14 14 C10.14406926 12.41438362 7.66783709 9.93490046 4.75 7 C3.85796875 6.113125 2.9659375 5.22625 2.046875 4.3125 C0 2 0 2 0 0 Z " fill="#191919" transform="translate(264,264)"/>
<path d="M0 0 C2.01635978 3.02453967 3.03246502 5.63075348 4.1875 9.0625 C4.55230469 10.12597656 4.91710937 11.18945312 5.29296875 12.28515625 C6 15 6 15 5 17 C4.34 17.33 3.68 17.66 3 18 C2.49490792 15.75113762 1.99610821 13.50086131 1.5 11.25 C1.2215625 9.99703125 0.943125 8.7440625 0.65625 7.453125 C0 4 0 4 0 0 Z " fill="#484848" transform="translate(246,219)"/>
<path d="M0 0 C1.51553092 3.97450493 0.49888623 7.20481149 -0.4375 11.25 C-0.72496094 12.51328125 -1.01242187 13.7765625 -1.30859375 15.078125 C-1.53675781 16.04234375 -1.76492188 17.0065625 -2 18 C-2.99 17.67 -3.98 17.34 -5 17 C-1.92482916 5.47835991 -1.92482916 5.47835991 0 0 Z " fill="#484848" transform="translate(265,219)"/>
<path d="M0 0 C2.96659857 3.55991828 5.381348 7.65222543 7 12 C6.67 12.66 6.34 13.32 6 14 C4.98576166 12.61447798 3.98912998 11.21605712 3 9.8125 C2.443125 9.03519531 1.88625 8.25789063 1.3125 7.45703125 C-0.151369 4.71663363 -0.26080213 3.05899163 0 0 Z " fill="#3E3E3E" transform="translate(267,273)"/>
<path d="M0 0 C4.0042343 3.49087093 5.62671065 5.64951939 6 11 C2.1334716 7.777893 1.11940982 4.85077588 0 0 Z " fill="#141414" transform="translate(261,265)"/>
<path d="M0 0 C4.28577219 -0.36539443 6.34492062 0.51576402 9.8125 3 C10.60269531 3.556875 11.39289063 4.11375 12.20703125 4.6875 C12.79871094 5.120625 13.39039063 5.55375 14 6 C13.01 6.495 13.01 6.495 12 7 C9.1796875 5.78515625 9.1796875 5.78515625 5.875 4.0625 C4.77929688 3.49660156 3.68359375 2.93070312 2.5546875 2.34765625 C1.71164062 1.90292969 0.86859375 1.45820313 0 1 C0 0.67 0 0.34 0 0 Z " fill="#3B3B3B" transform="translate(273,267)"/>
<path d="M0 0 C-0.33 2.64 -0.66 5.28 -1 8 C-1.2475 7.360625 -1.495 6.72125 -1.75 6.0625 C-2.80148727 3.80939427 -2.80148727 3.80939427 -5.0625 3.375 C-5.701875 3.25125 -6.34125 3.1275 -7 3 C-7.33 2.34 -7.66 1.68 -8 1 C-5.29120665 -0.35439668 -2.99066732 -0.06501451 0 0 Z " fill="#454554" transform="translate(255,262)"/>
<path d="M0 0 C0 0.66 0 1.32 0 2 C-3.47325181 3.1577506 -6.36067448 3.06866652 -10 3 C-6.68152292 -0.06320961 -4.44849969 -0.3033068 0 0 Z " fill="#111111" transform="translate(277,250)"/>
<path d="M0 0 C0.33 0 0.66 0 1 0 C1.36923077 5.41538462 1.36923077 5.41538462 -0.5 8.375 C-0.995 8.91125 -1.49 9.4475 -2 10 C-2.1953125 3.9453125 -2.1953125 3.9453125 -2 2 C-1.34 1.34 -0.68 0.68 0 0 Z " fill="#141415" transform="translate(261,235)"/>
<path d="M0 0 C7.75 0.75 7.75 0.75 10 3 C8.72125 3.061875 7.4425 3.12375 6.125 3.1875 C5.40570313 3.22230469 4.68640625 3.25710937 3.9453125 3.29296875 C3.30335938 3.19628906 2.66140625 3.09960938 2 3 C1.34 2.01 0.68 1.02 0 0 Z " fill="#101010" transform="translate(235,250)"/>
<path d="M0 0 C0 3 0 3 -1.3125 4.38671875 C-2.875 5.59114583 -4.4375 6.79557292 -6 8 C-6 5 -6 5 -4.6875 3.61328125 C-3.125 2.40885417 -1.5625 1.20442708 0 0 Z " fill="#292929" transform="translate(277,234)"/>
<path d="M0 0 C1.485 0.99 1.485 0.99 3 2 C3.40843923 4.71203652 3.13336867 7.2437142 3 10 C-0.00617269 6.99382731 0.40414684 4.17618402 0 0 Z " fill="#101010" transform="translate(250,235)"/>
<path d="M0 0 C2.86697492 1.28519565 4.97607712 2.57129254 7 5 C7 5.66 7 6.32 7 7 C4.13302508 5.71480435 2.02392288 4.42870746 0 2 C0 1.34 0 0.68 0 0 Z " fill="#131313" transform="translate(242,242)"/>
<path d="M0 0 C-1.15173355 2.46800047 -2.04783565 4.04783565 -4 6 C-4.99 5.67 -5.98 5.34 -7 5 C-2.25 0 -2.25 0 0 0 Z " fill="#0A0A0A" transform="translate(248,264)"/>
<path d="M0 0 C3.99500618 1.3697164 6.80009492 3.25722422 10 6 C9.01 6.33 8.02 6.66 7 7 C5.17578125 5.8203125 5.17578125 5.8203125 3.3125 4.125 C2.68988281 3.57070313 2.06726563 3.01640625 1.42578125 2.4453125 C0 1 0 1 0 0 Z " fill="#C8C8C9" transform="translate(262,261)"/>
<path d="M0 0 C0.66 0.33 1.32 0.66 2 1 C-0.64 2.98 -3.28 4.96 -6 7 C-6.66 6.34 -7.32 5.68 -8 5 C-6.71475739 4.13619741 -5.42157581 3.28419631 -4.125 2.4375 C-3.04605469 1.72400391 -3.04605469 1.72400391 -1.9453125 0.99609375 C-1.30335938 0.66738281 -0.66140625 0.33867187 0 0 Z " fill="#C8C8C9" transform="translate(248,261)"/>
<path d="M0 0 C0.66 0.99 1.32 1.98 2 3 C0.02 5.31 -1.96 7.62 -4 10 C-4.33 9.34 -4.66 8.68 -5 8 C-4.00390625 6.0546875 -4.00390625 6.0546875 -2.5625 3.875 C-2.08941406 3.15054688 -1.61632812 2.42609375 -1.12890625 1.6796875 C-0.75636719 1.12539062 -0.38382812 0.57109375 0 0 Z " fill="#C7C7C9" transform="translate(266,240)"/>
</svg>
